<svg width="21" height="21" viewBox="0 0 21 21" fill="none" xmlns="http://www.w3.org/2000/svg">
<circle cx="10.5" cy="10.5" r="10.5" fill="#5C4F90"/>
<path d="M17.9802 14.6192C17.8579 15.5522 17.4001 16.4087 16.6923 17.0286C15.9844 17.6486 15.0751 17.9896 14.1342 17.9878C8.54611 17.9878 4.00001 13.4416 4.00001 7.85339C3.9982 6.91277 4.33887 6.00367 4.95838 5.29588C5.57789 4.5881 6.43386 4.13005 7.36641 4.0073C7.58108 3.98121 7.79842 4.02548 7.98579 4.13345C8.17316 4.24142 8.32044 4.40727 8.40552 4.60609L9.91137 7.96758C9.97786 8.11976 10.0054 8.28611 9.99141 8.45159C9.97746 8.61708 9.92247 8.77647 9.83144 8.91536C9.82226 8.9295 9.81225 8.94309 9.80146 8.95605L8.29775 10.7446C8.28862 10.7631 8.28387 10.7835 8.28387 10.8042C8.28387 10.8248 8.28862 10.8452 8.29775 10.8637C8.84443 11.9828 10.0177 13.1476 11.1524 13.6935C11.1714 13.7022 11.1921 13.7063 11.2129 13.7055C11.2337 13.7048 11.2541 13.6992 11.2723 13.6893L13.0344 12.1905C13.047 12.1796 13.0603 12.1695 13.0744 12.1605C13.2126 12.0683 13.3717 12.0121 13.5372 11.9969C13.7027 11.9817 13.8694 12.008 14.0221 12.0735L17.3935 13.5843C17.5897 13.6713 17.7527 13.8191 17.8583 14.0058C17.964 14.1926 18.0067 14.4084 17.9802 14.6213V14.6192ZM17.1316 14.5136C17.134 14.4837 17.127 14.4539 17.1115 14.4283C17.096 14.4027 17.0728 14.3826 17.0453 14.3708L13.6731 12.8599C13.6547 12.8528 13.635 12.8498 13.6153 12.851C13.5956 12.8523 13.5764 12.8577 13.559 12.8671L11.7976 14.3658C11.7848 14.3765 11.7712 14.3865 11.7576 14.3958C11.614 14.4916 11.4479 14.5486 11.2757 14.5611C11.1035 14.5736 10.9309 14.5412 10.7749 14.4672C9.46461 13.8341 8.15859 12.5402 7.52556 11.242C7.4511 11.0869 7.41796 10.9152 7.42934 10.7435C7.44072 10.5719 7.49623 10.406 7.5905 10.2621C7.59969 10.2478 7.60995 10.2342 7.62119 10.2214L9.12419 8.43291C9.13278 8.41422 9.13722 8.39389 9.13722 8.37332C9.13722 8.35274 9.13278 8.33241 9.12419 8.31372L7.62119 4.94937C7.61127 4.92237 7.59343 4.899 7.56999 4.88231C7.54656 4.86563 7.51863 4.85642 7.48987 4.85588H7.47346C6.74761 4.95244 6.08172 5.30989 5.60013 5.86149C5.11854 6.4131 4.85418 7.12113 4.85642 7.85339C4.85642 12.9691 9.01856 17.1314 14.1342 17.1314C14.8665 17.1336 15.5746 16.8691 16.1262 16.3874C16.6778 15.9056 17.0352 15.2396 17.1316 14.5136Z" fill="white"/>
</svg>
