<svg width="44" height="44" viewBox="0 0 44 44" fill="none" xmlns="http://www.w3.org/2000/svg">
<circle cx="22.1925" cy="21.8077" r="21.3077" stroke="#5C4F90"/>
<path d="M24.7202 23.4108H24.2202V23.9108V36.6505H19.87V23.9011V23.4011H19.37H15.4229V19.2173H19.3603H19.8603V18.7173V14.9131C19.8603 12.8046 20.5038 11.235 21.5603 10.1925C22.6185 9.1483 24.1464 8.5784 26.0189 8.5784L26.0209 8.57839C27.1839 8.57387 28.3464 8.62637 29.5041 8.73568V12.4052H27.2838C26.1432 12.4052 25.3236 12.6767 24.8142 13.2824C24.3212 13.8687 24.2202 14.6555 24.2202 15.4252V18.727V19.227H24.7202H29.2825L28.7467 23.4108H24.7202Z" fill="#5C4F90" stroke="#5C4F90"/>
</svg>
