<svg width="44" height="44" viewBox="0 0 44 44" fill="none" xmlns="http://www.w3.org/2000/svg">
<circle cx="21.8077" cy="21.8077" r="21.3077" stroke="#5C4F90"/>
<path fill-rule="evenodd" clip-rule="evenodd" d="M21.8079 8.07812C18.0786 8.07812 17.6118 8.0946 16.1467 8.16051C14.6858 8.22779 13.6875 8.45984 12.8143 8.79899C11.8977 9.14342 11.0674 9.68371 10.3812 10.3821C9.68276 11.0684 9.14248 11.8987 8.79801 12.8152C8.45886 13.6885 8.22681 14.6867 8.15953 16.1477C8.09225 17.6128 8.07715 18.0796 8.07715 21.8089C8.07715 25.5382 8.09225 26.005 8.15953 27.4701C8.22681 28.931 8.45886 29.9293 8.79801 30.8025C9.14252 31.7191 9.6828 32.5494 10.3812 33.2356C11.0674 33.934 11.8978 34.4743 12.8143 34.8188C13.6875 35.1579 14.6858 35.39 16.1467 35.4573C17.6118 35.5232 18.0786 35.5397 21.8079 35.5397C25.5372 35.5397 26.004 35.5232 27.4691 35.4573C28.9301 35.39 29.9283 35.1579 30.8016 34.8188C31.7181 34.4743 32.5484 33.934 33.2347 33.2356C33.9331 32.5494 34.4734 31.7191 34.8178 30.8025C35.157 29.9293 35.389 28.931 35.4563 27.4701C35.5222 26.005 35.5387 25.5382 35.5387 21.8089C35.5387 18.0796 35.5222 17.6128 35.4563 16.1477C35.389 14.6867 35.157 13.6885 34.8178 12.8152C34.4734 11.8987 33.9331 11.0684 33.2347 10.3821C32.5485 9.68371 31.7181 9.14342 30.8016 8.79899C29.9283 8.45984 28.9301 8.22779 27.4691 8.16051C26.004 8.0946 25.5372 8.07812 21.8079 8.07812ZM21.8079 10.5524C25.474 10.5524 25.9079 10.5661 27.3552 10.632C28.6953 10.6938 29.4216 10.9163 29.9063 11.1044C30.5462 11.3543 31.0048 11.6522 31.4854 12.1314C31.9659 12.612 32.2625 13.0706 32.5124 13.7105C32.6992 14.1952 32.9243 14.9215 32.9848 16.2603C33.0507 17.7089 33.0644 18.1414 33.0644 21.8089C33.0644 25.475 33.0507 25.9089 32.9848 27.3561C32.923 28.6962 32.6992 29.4226 32.5124 29.9073C32.2923 30.5037 31.9413 31.0433 31.4854 31.4863C31.0048 31.9669 30.5462 32.2635 29.9063 32.5134C29.4216 32.7001 28.6953 32.9253 27.3565 32.9857C25.9093 33.0516 25.4754 33.0654 21.8079 33.0654C18.1418 33.0654 17.7065 33.0516 16.2607 32.9857C14.9206 32.924 14.1942 32.7001 13.7095 32.5134C13.113 32.2934 12.5735 31.9424 12.1305 31.4863C11.6744 31.0434 11.3235 30.5038 11.1034 29.9073C10.9153 29.4226 10.6915 28.6962 10.6311 27.3575C10.5652 25.9089 10.5514 25.4764 10.5514 21.8089C10.5514 18.1428 10.5652 17.7089 10.6311 16.2617C10.6929 14.9215 10.9153 14.1952 11.1034 13.7105C11.3533 13.0706 11.6513 12.612 12.1305 12.1314C12.611 11.6509 13.0697 11.3543 13.7095 11.1044C14.1942 10.9163 14.9206 10.6925 16.2593 10.632C17.7079 10.5661 18.1404 10.5524 21.8079 10.5524ZM21.8079 26.3854C20.5942 26.3854 19.4301 25.9032 18.5719 25.0449C17.7136 24.1867 17.2315 23.0226 17.2315 21.8089C17.2315 20.5951 17.7136 19.4311 18.5719 18.5728C19.4301 17.7146 20.5942 17.2324 21.8079 17.2324C23.0217 17.2324 24.1857 17.7146 25.044 18.5728C25.9022 19.4311 26.3844 20.5951 26.3844 21.8089C26.3844 23.0226 25.9022 24.1867 25.044 25.0449C24.1857 25.9032 23.0217 26.3854 21.8079 26.3854ZM21.8079 14.7581C20.882 14.7581 19.9651 14.9405 19.1097 15.2949C18.2543 15.6492 17.477 16.1685 16.8223 16.8233C16.1676 17.478 15.6482 18.2553 15.2939 19.1107C14.9395 19.9661 14.7572 20.883 14.7572 21.8089C14.7572 22.7348 14.9395 23.6517 15.2939 24.5071C15.6482 25.3625 16.1676 26.1398 16.8223 26.7945C17.477 27.4492 18.2543 27.9686 19.1097 28.3229C19.9651 28.6773 20.882 28.8596 21.8079 28.8596C23.6779 28.8596 25.4713 28.1168 26.7936 26.7945C28.1158 25.4723 28.8587 23.6789 28.8587 21.8089C28.8587 19.9389 28.1158 18.1455 26.7936 16.8233C25.4713 15.501 23.6779 14.7581 21.8079 14.7581ZM30.7851 14.4794C30.7851 14.6958 30.7425 14.91 30.6597 15.11C30.5769 15.3099 30.4555 15.4915 30.3025 15.6445C30.1495 15.7975 29.9679 15.9189 29.7679 16.0017C29.568 16.0845 29.3538 16.1271 29.1374 16.1271C28.921 16.1271 28.7068 16.0845 28.5069 16.0017C28.307 15.9189 28.1253 15.7975 27.9723 15.6445C27.8193 15.4915 27.6979 15.3099 27.6151 15.11C27.5323 14.91 27.4897 14.6958 27.4897 14.4794C27.4897 14.0424 27.6633 13.6233 27.9723 13.3143C28.2813 13.0053 28.7004 12.8317 29.1374 12.8317C29.5744 12.8317 29.9935 13.0053 30.3025 13.3143C30.6115 13.6233 30.7851 14.0424 30.7851 14.4794Z" fill="#5C4F90"/>
</svg>
