<svg width="21" height="27" viewBox="0 0 21 27" fill="none" xmlns="http://www.w3.org/2000/svg">
<path d="M10.5 0.617188C4.725 0.617188 0 5.29719 0 11.0172C0 18.0372 9.1875 25.9672 9.58125 26.3572C9.84375 26.4872 10.2375 26.6172 10.5 26.6172C10.7625 26.6172 11.1562 26.4872 11.4187 26.3572C11.8125 25.9672 21 18.0372 21 11.0172C21 5.29719 16.275 0.617188 10.5 0.617188ZM10.5 23.6272C7.74375 21.0272 2.625 15.4372 2.625 11.0172C2.625 6.72719 6.16875 3.21719 10.5 3.21719C14.8313 3.21719 18.375 6.72719 18.375 11.0172C18.375 15.3072 13.2562 21.0272 10.5 23.6272ZM10.5 5.81719C7.6125 5.81719 5.25 8.15719 5.25 11.0172C5.25 13.8772 7.6125 16.2172 10.5 16.2172C13.3875 16.2172 15.75 13.8772 15.75 11.0172C15.75 8.15719 13.3875 5.81719 10.5 5.81719ZM10.5 13.6172C9.05625 13.6172 7.875 12.4472 7.875 11.0172C7.875 9.58719 9.05625 8.41719 10.5 8.41719C11.9438 8.41719 13.125 9.58719 13.125 11.0172C13.125 12.4472 11.9438 13.6172 10.5 13.6172Z" fill="#5C4F90"/>
</svg>
