<svg width="25" height="24" viewBox="0 0 25 24" fill="none" xmlns="http://www.w3.org/2000/svg">
<path d="M15.2418 2.05489C15.2653 1.96686 15.3059 1.88431 15.3613 1.81197C15.4167 1.73963 15.4858 1.67892 15.5647 1.63331C15.6435 1.5877 15.7306 1.55809 15.821 1.54616C15.9113 1.53423 16.0031 1.54023 16.0911 1.56381C17.7656 2.00061 19.2934 2.87595 20.517 4.09965C21.7407 5.32335 22.616 6.85117 23.0528 8.52571C23.0764 8.61372 23.0824 8.70552 23.0705 8.79585C23.0585 8.88618 23.0289 8.97327 22.9833 9.05215C22.9377 9.13103 22.877 9.20014 22.8047 9.25554C22.7323 9.31094 22.6498 9.35153 22.5617 9.37501C22.5033 9.39056 22.4431 9.39833 22.3826 9.39812C22.2299 9.39821 22.0814 9.34785 21.9602 9.25487C21.839 9.16189 21.7519 9.03148 21.7125 8.88392C21.3375 7.44553 20.5857 6.13317 19.5346 5.08208C18.4836 4.03099 17.1712 3.2792 15.7329 2.90419C15.6449 2.88072 15.5623 2.84012 15.49 2.78472C15.4176 2.72933 15.3569 2.66021 15.3113 2.58133C15.2657 2.50246 15.2361 2.41536 15.2242 2.32503C15.2122 2.2347 15.2182 2.14291 15.2418 2.05489ZM14.8085 6.6018C16.4897 7.05013 17.5666 8.12706 18.015 9.80832C18.0544 9.95589 18.1415 10.0863 18.2627 10.1793C18.3839 10.2723 18.5324 10.3226 18.6851 10.3225C18.7456 10.3227 18.8058 10.315 18.8642 10.2994C18.9523 10.2759 19.0348 10.2353 19.1071 10.1799C19.1795 10.1245 19.2402 10.0554 19.2858 9.97655C19.3314 9.89768 19.361 9.81058 19.3729 9.72025C19.3849 9.62992 19.3789 9.53812 19.3553 9.45011C18.7776 7.28817 17.3286 5.83917 15.1667 5.26142C15.0787 5.23789 14.9869 5.23194 14.8966 5.24389C14.8063 5.25584 14.7192 5.28546 14.6404 5.33106C14.4811 5.42316 14.3649 5.57476 14.3174 5.7525C14.2699 5.93025 14.295 6.11959 14.3871 6.27886C14.4792 6.43813 14.6308 6.5543 14.8085 6.6018ZM23.9876 17.8102C23.7896 19.3207 23.0484 20.7074 21.9024 21.7112C20.7564 22.7149 19.2841 23.267 17.7607 23.2642C8.7134 23.2642 1.35304 15.9036 1.35304 6.85601C1.35012 5.33311 1.90168 3.86122 2.90469 2.71529C3.9077 1.56935 5.29356 0.827751 6.8034 0.629004C7.15097 0.586765 7.50285 0.658434 7.80621 0.833245C8.10957 1.00806 8.34803 1.27657 8.48577 1.59847L10.9238 7.04089C11.0315 7.28727 11.076 7.55661 11.0534 7.82453C11.0308 8.09246 10.9418 8.35052 10.7944 8.5754C10.7795 8.59829 10.7633 8.62028 10.7459 8.64126L8.31129 11.537C8.29651 11.567 8.28883 11.6 8.28883 11.6334C8.28883 11.6669 8.29651 11.6999 8.31129 11.7299C9.19639 13.5417 11.096 15.4275 12.9332 16.3115C12.9639 16.3255 12.9974 16.3321 13.0311 16.3309C13.0648 16.3297 13.0977 16.3207 13.1273 16.3046L15.9802 13.878C16.0005 13.8603 16.0222 13.8441 16.0449 13.8295C16.2687 13.6802 16.5263 13.5891 16.7942 13.5645C17.0622 13.5399 17.332 13.5825 17.5793 13.6885L23.0378 16.1347C23.3554 16.2755 23.6192 16.5147 23.7903 16.8171C23.9614 17.1195 24.0305 17.4689 23.9876 17.8136V17.8102ZM22.6137 17.6392C22.6176 17.5908 22.6062 17.5425 22.5811 17.5011C22.556 17.4596 22.5185 17.4271 22.4739 17.4081L17.0143 14.9619C16.9845 14.9504 16.9525 14.9454 16.9206 14.9474C16.8887 14.9494 16.8576 14.9583 16.8294 14.9734L13.9777 17.4C13.9569 17.4173 13.935 17.4335 13.913 17.4485C13.6804 17.6036 13.4116 17.6958 13.1327 17.7161C12.8539 17.7363 12.5745 17.6839 12.3219 17.5641C10.2005 16.5391 8.08598 14.4442 7.06107 12.3423C6.94053 12.0912 6.88687 11.8132 6.90529 11.5353C6.92371 11.2573 7.01359 10.9888 7.16622 10.7558C7.1811 10.7327 7.19771 10.7106 7.21591 10.69L9.64933 7.79428C9.66324 7.76401 9.67043 7.7311 9.67043 7.69779C9.67043 7.66449 9.66324 7.63157 9.64933 7.60131L7.21591 2.15427C7.19985 2.11055 7.17095 2.07271 7.13302 2.0457C7.09508 2.01868 7.04986 2.00377 7.0033 2.0029H6.97672C5.80154 2.15923 4.72343 2.73796 3.94372 3.63103C3.164 4.5241 2.73599 5.67045 2.73961 6.85601C2.73961 15.1387 9.47832 21.8775 17.7607 21.8775C18.9465 21.8811 20.0929 21.4529 20.986 20.673C21.8791 19.893 22.4577 18.8146 22.6137 17.6392Z" fill="#5C4F90" stroke="#5C4F90"/>
</svg>
