<svg width="55" height="55" viewBox="0 0 55 55" fill="none" xmlns="http://www.w3.org/2000/svg">
<path fill-rule="evenodd" clip-rule="evenodd" d="M27.5 55C12.3122 55 -1.66893e-06 42.6878 -1.66893e-06 27.5C-1.66893e-06 12.3122 12.3122 0 27.5 0C42.6878 0 55 12.3122 55 27.5C55 42.6878 42.6878 55 27.5 55Z" fill="#5C4F90"/>
<g clip-path="url(#clip0_4846_35259)">
<path d="M31.9343 29.6504H22.8951C21.426 29.6522 20.0176 30.2366 18.9787 31.2754C17.9399 32.3142 17.3555 33.7226 17.3538 35.1918V40.8293H37.4757V35.1918C37.4739 33.7226 36.8895 32.3142 35.8507 31.2754C34.8119 30.2366 33.4035 29.6522 31.9343 29.6504V29.6504Z" fill="white"/>
<path d="M27.4146 27.4146C31.1189 27.4146 34.1219 24.4117 34.1219 20.7073C34.1219 17.003 31.1189 14 27.4146 14C23.7102 14 20.7073 17.003 20.7073 20.7073C20.7073 24.4117 23.7102 27.4146 27.4146 27.4146Z" fill="white"/>
</g>
<defs>
<clipPath id="clip0_4846_35259">
<rect width="26.8293" height="26.8293" fill="white" transform="translate(14 14)"/>
</clipPath>
</defs>
</svg>
