<svg width="41" height="40" viewBox="0 0 41 40" fill="none" xmlns="http://www.w3.org/2000/svg">
<path d="M0.714355 5C0.714355 2.23858 2.95293 0 5.71436 0H35.7144C38.4758 0 40.7144 2.23858 40.7144 5V35C40.7144 37.7614 38.4758 40 35.7144 40H5.71436C2.95293 40 0.714355 37.7614 0.714355 35V5Z" fill="#5C4F90"/>
<path d="M24.0082 32.6902V24.1743C24.0082 23.9407 24.101 23.7166 24.2662 23.5514C24.4315 23.3862 24.6555 23.2934 24.8892 23.2934H33.405C33.6387 23.2934 33.8628 23.3862 34.028 23.5514C34.1932 23.7166 34.286 23.9407 34.286 24.1743V32.6902C34.286 32.9238 34.1932 33.1479 34.028 33.3131C33.8628 33.4783 33.6387 33.5711 33.405 33.5711H24.8892C24.6555 33.5711 24.4315 33.4783 24.2662 33.3131C24.101 33.1479 24.0082 32.9238 24.0082 32.6902ZM7.85742 32.6902V24.1743C7.85742 23.9407 7.95024 23.7166 8.11545 23.5514C8.28066 23.3862 8.50473 23.2934 8.73837 23.2934H17.2542C17.4879 23.2934 17.712 23.3862 17.8772 23.5514C18.0424 23.7166 18.1352 23.9407 18.1352 24.1743V32.6902C18.1352 32.9238 18.0424 33.1479 17.8772 33.3131C17.712 33.4783 17.4879 33.5711 17.2542 33.5711H8.73837C8.50473 33.5711 8.28066 33.4783 8.11545 33.3131C7.95024 33.1479 7.85742 32.9238 7.85742 32.6902ZM24.0082 16.5394V8.02353C24.0082 7.78989 24.101 7.56581 24.2662 7.4006C24.4315 7.23539 24.6555 7.14258 24.8892 7.14258H33.405C33.6387 7.14258 33.8628 7.23539 34.028 7.4006C34.1932 7.56581 34.286 7.78989 34.286 8.02353V16.5394C34.286 16.773 34.1932 16.9971 34.028 17.1623C33.8628 17.3275 33.6387 17.4204 33.405 17.4204H24.8892C24.6555 17.4204 24.4315 17.3275 24.2662 17.1623C24.101 16.9971 24.0082 16.773 24.0082 16.5394ZM7.85742 16.5394V8.02353C7.85742 7.78989 7.95024 7.56581 8.11545 7.4006C8.28066 7.23539 8.50473 7.14258 8.73837 7.14258H17.2542C17.4879 7.14258 17.712 7.23539 17.8772 7.4006C18.0424 7.56581 18.1352 7.78989 18.1352 8.02353V16.5394C18.1352 16.773 18.0424 16.9971 17.8772 17.1623C17.712 17.3275 17.4879 17.4204 17.2542 17.4204H8.73837C8.50473 17.4204 8.28066 17.3275 8.11545 17.1623C7.95024 16.9971 7.85742 16.773 7.85742 16.5394Z" stroke="#F7F4FF" stroke-width="1.5"/>
</svg>
