<svg width="40" height="40" viewBox="0 0 40 40" fill="none" xmlns="http://www.w3.org/2000/svg">
<path d="M0 5C0 2.23858 2.23858 0 5 0H35C37.7614 0 40 2.23858 40 5V35C40 37.7614 37.7614 40 35 40H5C2.23858 40 0 37.7614 0 35V5Z" fill="#F7F4FF"/>
<path d="M30.0823 33.2144H10.2751C9.25496 33.2144 8.27662 32.8091 7.55529 32.0878C6.83395 31.3664 6.42871 30.3881 6.42871 29.368V9.56072C6.42871 8.5406 6.83395 7.56226 7.55529 6.84093C8.27662 6.1196 9.25496 5.71436 10.2751 5.71436H30.0823C31.1025 5.71436 32.0808 6.1196 32.8021 6.84093C33.5235 7.56226 33.9287 8.5406 33.9287 9.56072V29.368C33.9287 30.3881 33.5235 31.3664 32.8021 32.0878C32.0808 32.8091 31.1025 33.2144 30.0823 33.2144ZM10.2751 7.2529C9.66301 7.2529 9.076 7.49605 8.6432 7.92885C8.2104 8.36165 7.96726 8.94865 7.96726 9.56072V29.368C7.96726 29.9801 8.2104 30.5671 8.6432 30.9999C9.076 31.4327 9.66301 31.6758 10.2751 31.6758H30.0823C30.6944 31.6758 31.2814 31.4327 31.7142 30.9999C32.147 30.5671 32.3902 29.9801 32.3902 29.368V9.56072C32.3902 8.94865 32.147 8.36165 31.7142 7.92885C31.2814 7.49605 30.6944 7.2529 30.0823 7.2529H10.2751Z" fill="#5C4F90"/>
<path d="M11.7857 13.7447C11.5825 13.7412 11.3883 13.6603 11.2426 13.5186C11.0984 13.3743 11.0174 13.1787 11.0174 12.9747C11.0174 12.7707 11.0984 12.5751 11.2426 12.4308C11.3879 12.2887 11.5825 12.2082 11.7857 12.2062H13.3335C13.5366 12.2088 13.731 12.2892 13.8766 12.4308C13.9483 12.5023 14.0051 12.5872 14.0439 12.6806C14.0828 12.7741 14.1027 12.8743 14.1028 12.9755C14.1028 13.1795 14.0217 13.3752 13.8774 13.5194C13.7332 13.6637 13.5375 13.7447 13.3335 13.7447H11.7857ZM11.7857 20.2328C11.5828 20.2291 11.3888 20.1489 11.2426 20.0082C11.171 19.9367 11.1141 19.8518 11.0753 19.7584C11.0366 19.6649 11.0166 19.5647 11.0166 19.4635C11.0166 19.3623 11.0366 19.2622 11.0753 19.1687C11.1141 19.0752 11.171 18.9903 11.2426 18.9189C11.3882 18.7773 11.5826 18.6969 11.7857 18.6943H13.3335C13.5364 18.6977 13.7305 18.7779 13.8766 18.9189C13.9482 18.9903 14.0051 19.0752 14.0439 19.1687C14.0826 19.2622 14.1026 19.3623 14.1026 19.4635C14.1026 19.5647 14.0826 19.6649 14.0439 19.7584C14.0051 19.8518 13.9482 19.9367 13.8766 20.0082C13.731 20.1498 13.5366 20.2302 13.3335 20.2328H11.7857ZM11.7857 26.7255C11.5825 26.722 11.3883 26.6411 11.2426 26.4993C11.0984 26.355 11.0174 26.1594 11.0174 25.9554C11.0174 25.7514 11.0984 25.5558 11.2426 25.4116C11.3882 25.27 11.5826 25.1896 11.7857 25.1869H13.3335C13.5366 25.1896 13.731 25.27 13.8766 25.4116C13.9483 25.483 14.0051 25.5679 14.0439 25.6613C14.0828 25.7548 14.1027 25.855 14.1028 25.9562C14.1028 26.1602 14.0217 26.3559 13.8774 26.5002C13.7332 26.6444 13.5375 26.7255 13.3335 26.7255H11.7857ZM17.9553 13.7417C17.7513 13.7417 17.5556 13.6606 17.4113 13.5164C17.2671 13.3721 17.186 13.1764 17.186 12.9724C17.186 12.7684 17.2671 12.5727 17.4113 12.4284C17.5556 12.2842 17.7513 12.2031 17.9553 12.2031H28.5713C28.7753 12.2031 28.971 12.2842 29.1152 12.4284C29.2595 12.5727 29.3405 12.7684 29.3405 12.9724C29.3405 13.1764 29.2595 13.3721 29.1152 13.5164C28.971 13.6606 28.7753 13.7417 28.5713 13.7417H17.9553ZM17.9553 20.2328C17.7513 20.2328 17.5556 20.1518 17.4113 20.0075C17.2671 19.8632 17.186 19.6676 17.186 19.4635C17.186 19.2595 17.2671 19.0638 17.4113 18.9196C17.5556 18.7753 17.7513 18.6943 17.9553 18.6943H28.5713C28.7753 18.6943 28.971 18.7753 29.1152 18.9196C29.2595 19.0638 29.3405 19.2595 29.3405 19.4635C29.3405 19.6676 29.2595 19.8632 29.1152 20.0075C28.971 20.1518 28.7753 20.2328 28.5713 20.2328H17.9553ZM17.9553 26.7224C17.7513 26.7224 17.5556 26.6414 17.4113 26.4971C17.2671 26.3528 17.186 26.1571 17.186 25.9531C17.186 25.7491 17.2671 25.5534 17.4113 25.4092C17.5556 25.2649 17.7513 25.1839 17.9553 25.1839H28.5713C28.7753 25.1839 28.971 25.2649 29.1152 25.4092C29.2595 25.5534 29.3405 25.7491 29.3405 25.9531C29.3405 26.1571 29.2595 26.3528 29.1152 26.4971C28.971 26.6414 28.7753 26.7224 28.5713 26.7224H17.9553Z" fill="#5C4F90"/>
</svg>
