<svg width="23" height="23" viewBox="0 0 23 23" fill="none" xmlns="http://www.w3.org/2000/svg">
<path d="M19.5205 16.0924H6.39975L6.04393 13.9453H19.5798C20.0065 13.9466 20.4203 13.776 20.7503 13.4626C21.0803 13.1492 21.3059 12.7126 21.3885 12.2275L22.6339 5.35659C22.6912 5.04409 22.6877 4.72069 22.6234 4.40998C22.5592 4.09927 22.436 3.80908 22.2627 3.56057C22.0894 3.31205 21.8704 3.11148 21.6217 2.97347C21.373 2.83546 21.1009 2.76349 20.8251 2.76281H4.1759L3.84973 0.632812H0.469482V2.77998H2.32269L4.54654 16.247C3.90065 16.4239 3.32464 16.8467 2.9107 17.4477C2.49676 18.0488 2.26883 18.7934 2.26339 19.5623C2.29811 20.5085 2.65415 21.4006 3.25397 22.0441C3.85378 22.6875 4.64876 23.0303 5.46573 22.9978C6.27619 23.021 7.06195 22.6736 7.65296 22.0306C8.24396 21.3876 8.59267 20.5009 8.6236 19.5623C8.62086 19.1075 8.54023 18.658 8.38639 18.2396H16.5257C16.3718 18.658 16.2912 19.1075 16.2885 19.5623C16.3232 20.5085 16.6792 21.4006 17.279 22.0441C17.8789 22.6875 18.6738 23.0303 19.4908 22.9978C20.2772 22.9978 21.0314 22.6358 21.5875 21.9915C22.1435 21.3472 22.4559 20.4734 22.4559 19.5623C22.4559 18.6511 22.1435 17.7773 21.5875 17.133C21.0314 16.4888 20.2772 16.1268 19.4908 16.1268L19.5205 16.0924ZM20.8251 4.96151L19.5798 11.8325H5.65846L4.56137 4.96151H20.8251ZM5.46573 20.8849C5.14601 20.8953 4.83485 20.7644 4.59534 20.5188C4.35582 20.2732 4.20588 19.9312 4.1759 19.5623C4.20609 19.1808 4.36444 18.8284 4.61681 18.581C4.86918 18.3336 5.19536 18.211 5.52503 18.2396C5.85314 18.2112 6.17763 18.3343 6.42763 18.5821C6.67764 18.8299 6.83284 19.1823 6.85934 19.5623C6.84657 19.7568 6.79987 19.9463 6.72208 20.1194C6.64428 20.2924 6.53701 20.4454 6.40674 20.569C6.27647 20.6926 6.12592 20.7844 5.96418 20.8387C5.80243 20.893 5.63287 20.9087 5.46573 20.8849ZM19.5205 20.8849C19.1908 20.9136 18.8646 20.791 18.6122 20.5435C18.3599 20.2961 18.2015 19.9437 18.1713 19.5623C18.2287 19.1985 18.3944 18.8695 18.6396 18.6327C18.8848 18.3959 19.1939 18.2662 19.5131 18.2662C19.8322 18.2662 20.1413 18.3959 20.3865 18.6327C20.6317 18.8695 20.7974 19.1985 20.8548 19.5623C20.8246 19.9405 20.6683 20.2903 20.4192 20.5372C20.1701 20.7842 19.8477 20.9089 19.5205 20.8849Z" fill="#5C4F90"/>
</svg>
