<svg width="53" height="54" viewBox="0 0 53 54" fill="none" xmlns="http://www.w3.org/2000/svg">
<ellipse cx="26.5" cy="27" rx="26.5" ry="27" transform="rotate(-180 26.5 27)" fill="#5C4F90"/>
<path fill-rule="evenodd" clip-rule="evenodd" d="M33.9831 25.684L21.3333 25.684L26.8678 20.0464C27.0842 19.8364 27.2067 19.5453 27.2067 19.2408C27.2067 18.9363 27.0842 18.6451 26.8678 18.4352C26.6617 18.2147 26.376 18.0898 26.0771 18.0898C25.7783 18.0898 25.4925 18.2147 25.2864 18.4352L17.9446 25.9142C17.4918 26.4413 17.4918 27.2285 17.9446 27.7556L25.2864 35.2339C25.4925 35.4544 25.7783 35.5792 26.0771 35.5792C26.3759 35.5792 26.6617 35.4544 26.8678 35.2339C27.0842 35.0239 27.2067 34.7328 27.2067 34.4283C27.2067 34.1238 27.0842 33.8326 26.8678 33.6227L21.3333 27.9837L33.9831 27.9837C34.2867 28.0013 34.5834 27.8861 34.7984 27.667C35.0135 27.4478 35.1266 27.1456 35.1093 26.8362C35.128 26.526 35.0155 26.2225 34.8003 26.0023C34.585 25.7821 34.2876 25.6662 33.9831 25.684L33.9831 25.684Z" fill="white"/>
</svg>
