<svg width="21" height="27" viewBox="0 0 21 27" fill="none" xmlns="http://www.w3.org/2000/svg">
<path d="M10.5 0.5C4.725 0.5 0 5.18 0 10.9C0 17.92 9.1875 25.85 9.58125 26.24C9.84375 26.37 10.2375 26.5 10.5 26.5C10.7625 26.5 11.1562 26.37 11.4187 26.24C11.8125 25.85 21 17.92 21 10.9C21 5.18 16.275 0.5 10.5 0.5ZM10.5 23.51C7.74375 20.91 2.625 15.32 2.625 10.9C2.625 6.61 6.16875 3.1 10.5 3.1C14.8313 3.1 18.375 6.61 18.375 10.9C18.375 15.19 13.2562 20.91 10.5 23.51ZM10.5 5.7C7.6125 5.7 5.25 8.04 5.25 10.9C5.25 13.76 7.6125 16.1 10.5 16.1C13.3875 16.1 15.75 13.76 15.75 10.9C15.75 8.04 13.3875 5.7 10.5 5.7ZM10.5 13.5C9.05625 13.5 7.875 12.33 7.875 10.9C7.875 9.47 9.05625 8.3 10.5 8.3C11.9438 8.3 13.125 9.47 13.125 10.9C13.125 12.33 11.9438 13.5 10.5 13.5Z" fill="#5C4F90"/>
</svg>
