<svg width="25" height="25" viewBox="0 0 25 25" fill="none" xmlns="http://www.w3.org/2000/svg">
<path d="M15.2423 2.61446C15.2658 2.52643 15.3064 2.44388 15.3618 2.37154C15.4172 2.2992 15.4863 2.23849 15.5652 2.19288C15.644 2.14727 15.7311 2.11766 15.8214 2.10573C15.9118 2.0938 16.0036 2.0998 16.0916 2.12338C17.7661 2.56018 19.2939 3.43552 20.5175 4.65922C21.7412 5.88292 22.6165 7.41074 23.0533 9.08528C23.0769 9.17329 23.0829 9.26509 23.0709 9.35542C23.059 9.44575 23.0294 9.53284 22.9838 9.61172C22.9382 9.6906 22.8775 9.75971 22.8051 9.81511C22.7328 9.87051 22.6503 9.9111 22.5622 9.93458C22.5038 9.95013 22.4436 9.9579 22.3831 9.95769C22.2304 9.95778 22.0819 9.90742 21.9607 9.81444C21.8395 9.72146 21.7524 9.59105 21.713 9.44349C21.338 8.0051 20.5862 6.69274 19.5351 5.64165C18.4841 4.59056 17.1717 3.83877 15.7334 3.46376C15.6453 3.44029 15.5628 3.39969 15.4905 3.34429C15.4181 3.2889 15.3574 3.21978 15.3118 3.14091C15.2662 3.06203 15.2366 2.97493 15.2247 2.8846C15.2127 2.79427 15.2187 2.70248 15.2423 2.61446ZM14.809 7.16137C16.4902 7.6097 17.5671 8.68663 18.0154 10.3679C18.0549 10.5155 18.142 10.6459 18.2632 10.7388C18.3844 10.8318 18.5329 10.8822 18.6856 10.8821C18.7461 10.8823 18.8063 10.8745 18.8647 10.859C18.9528 10.8355 19.0353 10.7949 19.1076 10.7395C19.18 10.6841 19.2407 10.615 19.2863 10.5361C19.3319 10.4572 19.3615 10.3702 19.3734 10.2798C19.3854 10.1895 19.3794 10.0977 19.3558 10.0097C18.7781 7.84774 17.3291 6.39874 15.1672 5.82099C15.0792 5.79746 14.9874 5.79151 14.8971 5.80346C14.8068 5.81541 14.7197 5.84503 14.6409 5.89064C14.4816 5.98273 14.3654 6.13433 14.3179 6.31207C14.2704 6.48982 14.2955 6.67916 14.3876 6.83843C14.4797 6.9977 14.6313 7.11387 14.809 7.16137ZM23.9881 18.3697C23.7901 19.8803 23.0489 21.267 21.9029 22.2707C20.7569 23.2745 19.2846 23.8265 17.7612 23.8237C8.71389 23.8237 1.35353 16.4632 1.35353 7.41558C1.35061 5.89268 1.90217 4.42079 2.90518 3.27486C3.90819 2.12892 5.29405 1.38732 6.80389 1.18857C7.15145 1.14634 7.50334 1.218 7.8067 1.39282C8.11006 1.56763 8.34852 1.83614 8.48626 2.15804L10.9243 7.60046C11.032 7.84684 11.0765 8.11618 11.0539 8.3841C11.0313 8.65203 10.9423 8.91009 10.7949 9.13497C10.78 9.15786 10.7638 9.17985 10.7464 9.20083L8.31178 12.0965C8.297 12.1265 8.28931 12.1595 8.28931 12.193C8.28931 12.2265 8.297 12.2595 8.31178 12.2895C9.19687 14.1013 11.0965 15.9871 12.9337 16.8711C12.9643 16.885 12.9979 16.8917 13.0315 16.8905C13.0652 16.8893 13.0982 16.8803 13.1278 16.8641L15.9807 14.4376C16.001 14.4198 16.0226 14.4036 16.0454 14.389C16.2692 14.2398 16.5268 14.1487 16.7947 14.1241C17.0627 14.0995 17.3325 14.1421 17.5798 14.2481L23.0383 16.6943C23.3559 16.835 23.6197 17.0743 23.7908 17.3767C23.9619 17.6791 24.031 18.0285 23.9881 18.3732V18.3697ZM22.6142 18.1987C22.6181 18.1504 22.6067 18.1021 22.5816 18.0606C22.5565 18.0192 22.519 17.9866 22.4744 17.9676L17.0148 15.5214C16.985 15.5099 16.953 15.505 16.9211 15.507C16.8892 15.509 16.8581 15.5179 16.8299 15.533L13.9782 17.9595C13.9574 17.9769 13.9355 17.9931 13.9135 18.0081C13.6809 18.1632 13.4121 18.2554 13.1332 18.2756C12.8544 18.2959 12.575 18.2435 12.3224 18.1236C10.201 17.0987 8.08647 15.0038 7.06156 12.9019C6.94102 12.6508 6.88736 12.3728 6.90578 12.0948C6.9242 11.8169 7.01408 11.5484 7.16671 11.3154C7.18159 11.2922 7.1982 11.2702 7.21639 11.2495L9.64982 8.35385C9.66372 8.32358 9.67092 8.29067 9.67092 8.25736C9.67092 8.22406 9.66372 8.19114 9.64982 8.16088L7.21639 2.71384C7.20034 2.67012 7.17144 2.63228 7.1335 2.60527C7.09557 2.57825 7.05035 2.56334 7.00379 2.56247H6.97721C5.80203 2.7188 4.72392 3.29753 3.94421 4.1906C3.16449 5.08367 2.73648 6.23002 2.74009 7.41558C2.74009 15.6982 9.47881 22.4371 17.7612 22.4371C18.9469 22.4407 20.0934 22.0125 20.9865 21.2325C21.8795 20.4526 22.4582 19.3742 22.6142 18.1987Z" fill="#5C4F90" stroke="#5C4F90"/>
</svg>
