<svg width="26" height="26" viewBox="0 0 26 26" fill="none" xmlns="http://www.w3.org/2000/svg">
<path d="M25.5937 9.34375H19.4999C19.2765 9.34375 19.0937 9.52656 19.0937 9.75V15.4375H16.5831C16.6278 15.3116 16.6562 15.1734 16.6562 15.0312V13.8125V6.5C16.6562 6.27656 16.4734 6.09375 16.2499 6.09375V5.27312C16.9284 5.22031 17.4687 4.65562 17.4687 3.96094V2.15313C17.4687 1.72656 17.3428 1.31219 17.1071 0.95875C16.7049 0.3575 16.0346 0 15.3156 0H14.2187C12.6506 0 11.3749 1.27562 11.3749 2.84375C11.3749 3.06719 11.5578 3.25 11.7812 3.25H12.1874V5.28125C12.1874 5.72813 12.5531 6.09375 12.9999 6.09375H13.4062V6.16687C12.9349 6.33344 12.5937 6.78031 12.5937 7.3125V8.125V9.75H9.74994H9.25432L9.3315 9.44125C9.364 9.31938 9.33557 9.19344 9.25838 9.09188C9.18119 8.99437 9.06338 8.9375 8.93744 8.9375H7.31244C7.14588 8.9375 6.99557 9.03906 6.93463 9.19344L6.40244 10.5259L4.97244 10.1684C4.85057 10.1359 4.72463 10.1644 4.62307 10.2416C4.5215 10.3187 4.46869 10.4366 4.46869 10.5625V13.4062C4.46869 13.5322 4.52557 13.65 4.62713 13.7272C4.69619 13.7841 4.78557 13.8125 4.87494 13.8125C4.90744 13.8125 4.93994 13.8084 4.97244 13.8003L5.71588 13.6134L5.70775 13.6216C5.1715 14.1619 4.87494 14.8769 4.87494 15.6366V17.0625H4.46869C3.79838 17.0625 3.24994 17.6109 3.24994 18.2812V19.1994C1.72244 19.5366 0.454941 20.6903 0.0161911 22.2341C-0.0203714 22.3559 0.00400358 22.49 0.0811911 22.5916C0.158379 22.6891 0.280254 22.75 0.406191 22.75H0.844941C0.828691 22.8841 0.812441 23.0181 0.812441 23.1562C0.812441 24.7244 2.08807 26 3.65619 26C4.93182 26 6.02869 25.1631 6.37807 23.9688H6.70307C7.26369 23.9688 7.71869 23.5138 7.71869 22.9531V22.75H15.8437H16.6887C16.6724 22.8841 16.6562 23.0181 16.6562 23.1562C16.6562 24.7244 17.9318 26 19.4999 26C21.0681 26 22.3437 24.7244 22.3437 23.1562C22.3437 23.0181 22.3274 22.8841 22.3112 22.75H22.7499C23.1968 22.75 23.5624 22.3844 23.5624 21.9375V21.3241C23.5624 20.215 23.1318 18.6469 22.8921 17.8466C23.0465 17.7897 23.1562 17.6434 23.1562 17.4688V16.25H25.5937C25.8171 16.25 25.9999 16.0672 25.9999 15.8438V9.75C25.9999 9.52656 25.8171 9.34375 25.5937 9.34375ZM25.1874 10.1562V11.375H22.9531C22.9531 11.1516 22.7703 10.9688 22.5468 10.9688C22.3234 10.9688 22.1406 11.1516 22.1406 11.375H19.9062V10.1562H25.1874ZM13.4509 17.6597L13.8124 18.3787V19.3334L12.9999 20.1459V19.0938V16.25H13.4062V17.4688C13.4062 17.5378 13.4224 17.6028 13.4509 17.6597ZM6.90619 11.7812H7.31244V12.5938H6.90619V11.7812ZM8.39307 18.7241C8.21838 18.3706 8.12494 17.9766 8.12494 17.5825V13V12.1875H9.74994H12.5937V13.4062H11.704C11.0743 13.4062 10.5624 13.9181 10.5624 14.5478V18.8703C10.0831 19.1263 9.74994 19.6259 9.74994 20.2109V20.3084C9.3965 20.2963 9.07963 20.0972 8.92119 19.7763L8.39307 18.7241ZM13.8815 12.1875C14.5153 12.1875 15.0312 11.6716 15.0312 11.0378V8.125C15.0312 7.45469 14.4828 6.90625 13.8124 6.90625H15.8437V13.4062H13.4062V12.1875H13.8815ZM10.5624 20.2109C10.5624 19.8169 10.8793 19.5 11.2734 19.5H12.1874V20.3125H10.5624V20.2109ZM12.9999 15.4375C12.5531 15.4375 12.1874 15.8031 12.1874 16.25V18.6875H11.3749V14.5478C11.3749 14.365 11.5212 14.2188 11.704 14.2188H12.9999H15.8437V15.0312C15.8437 15.2547 15.6609 15.4375 15.4374 15.4375H13.8124H12.9999ZM14.2187 0.8125H15.3156C15.7665 0.8125 16.1809 1.03594 16.4328 1.40969C16.579 1.63313 16.6562 1.88906 16.6562 2.15313V3.96094C16.6562 4.24125 16.4287 4.46875 16.1484 4.46875H15.0312V2.84375C15.0312 2.62031 14.8484 2.4375 14.6249 2.4375H12.2281C12.4149 1.51125 13.2356 0.8125 14.2187 0.8125ZM12.9999 3.25H14.2187V4.875C14.2187 5.09844 14.4015 5.28125 14.6249 5.28125H15.4374V6.09375H14.6249C14.8484 6.09375 15.0312 5.91094 15.0312 5.6875C15.0312 5.46406 14.8484 5.28125 14.6249 5.28125H12.9999V3.25ZM13.4062 9.75V8.125C13.4062 7.90156 13.589 7.71875 13.8124 7.71875C14.0359 7.71875 14.2187 7.90156 14.2187 8.125V11.0378C14.2187 11.2247 14.0684 11.375 13.8815 11.375H10.1562V10.5625H12.5937C13.0406 10.5625 13.4062 10.1969 13.4062 9.75ZM9.34369 11.375H8.12494V10.9688C8.12494 10.7453 8.30775 10.5625 8.53119 10.5625H9.34369V11.375ZM7.58869 9.75H8.41744L8.41338 9.76219C7.79588 9.82312 7.31244 10.335 7.31244 10.9688H7.10119L7.58869 9.75ZM5.28119 11.0825L6.09369 11.2856V11.375V11.3831V12.6831L5.28119 12.8862V11.0825ZM5.68744 15.6366C5.68744 15.0963 5.89869 14.5844 6.28057 14.1984L7.07275 13.4062H7.31244V17.5825C7.31244 18.1025 7.43432 18.6225 7.66588 19.0856L7.66994 19.0938H5.68744V15.6366ZM4.06244 18.2812C4.06244 18.0578 4.24525 17.875 4.46869 17.875H4.87494V19.0938H4.17619C4.13963 19.0938 4.099 19.0978 4.06244 19.0978V18.2812ZM3.65619 25.1875C2.53494 25.1875 1.62494 24.2775 1.62494 23.1562C1.62494 23.0181 1.64119 22.8841 1.66963 22.75H4.67182C4.78557 22.75 4.87494 22.8394 4.87494 22.9531C4.87494 23.3919 5.15525 23.7616 5.54119 23.9037C5.24057 24.6675 4.50525 25.1875 3.65619 25.1875ZM6.70307 23.1562H5.89057C5.77682 23.1562 5.68744 23.0669 5.68744 22.9531C5.68744 22.3925 5.23244 21.9375 4.67182 21.9375H0.991191C1.55994 20.7188 2.80307 19.9062 4.17619 19.9062H5.06994L6.90619 22.4737V22.9531C6.90619 23.0669 6.81682 23.1562 6.70307 23.1562ZM21.5312 23.1562C21.5312 24.2775 20.6212 25.1875 19.4999 25.1875C18.3787 25.1875 17.4687 24.2775 17.4687 23.1562C17.4687 23.0181 17.4849 22.8841 17.5134 22.75H21.4865C21.5149 22.8841 21.5312 23.0181 21.5312 23.1562ZM22.7499 21.9375H16.3068C16.4896 21.2388 17.1193 20.7188 17.8749 20.7188C18.9962 20.7188 19.9062 19.8088 19.9062 18.6875C19.9062 18.4641 19.7234 18.2812 19.4999 18.2812C19.2765 18.2812 19.0937 18.4641 19.0937 18.6875C19.0937 19.3578 18.5453 19.9062 17.8749 19.9062C16.6684 19.9062 15.6649 20.7878 15.4699 21.9375H7.51963L6.06932 19.9062H8.07619L8.194 20.1378C8.49869 20.7472 9.10807 21.125 9.79057 21.125H10.1562H12.5937H12.9999C13.1056 21.125 13.2112 21.0844 13.2884 21.0072L14.5071 19.7884C14.5803 19.7113 14.6249 19.6097 14.6249 19.5V18.2812C14.6249 18.2203 14.6087 18.1553 14.5843 18.0984L14.4706 17.875H22.0471C22.2543 18.5331 22.7499 20.2231 22.7499 21.3241V21.9375ZM22.3437 17.0625H14.2187V16.25H15.4374H19.4999H22.3437V17.0625ZM19.9062 15.4375V12.1875H22.1406V12.5938C22.1406 12.8172 22.3234 13 22.5468 13C22.7703 13 22.9531 12.8172 22.9531 12.5938V12.1875H25.1874V15.4375H19.9062Z" fill="#FF715B"/>
<path d="M20.9908 4.0625H18.8254C18.602 4.0625 18.4192 4.24531 18.4192 4.46875C18.4192 4.69219 18.602 4.875 18.8254 4.875H20.9908C21.2142 4.875 21.397 4.69219 21.397 4.46875C21.397 4.24531 21.2142 4.0625 20.9908 4.0625Z" fill="#FF715B"/>
<path d="M19.634 7.71875C19.4106 7.71875 19.2278 7.90156 19.2278 8.125C19.2278 8.34844 19.4106 8.53125 19.634 8.53125H21.7993C22.0228 8.53125 22.2056 8.34844 22.2056 8.125C22.2056 7.90156 22.0228 7.71875 21.7993 7.71875H19.634Z" fill="#FF715B"/>
<path d="M23.9687 6.09375C23.9687 5.87031 23.7859 5.6875 23.5625 5.6875H19.4309C19.2075 5.6875 19.0247 5.87031 19.0247 6.09375C19.0247 6.31719 19.2075 6.5 19.4309 6.5H23.5625C23.7859 6.5 23.9687 6.31719 23.9687 6.09375Z" fill="#FF715B"/>
<path d="M19.5 23.5625C19.7244 23.5625 19.9062 23.3806 19.9062 23.1562C19.9062 22.9319 19.7244 22.75 19.5 22.75C19.2756 22.75 19.0938 22.9319 19.0938 23.1562C19.0938 23.3806 19.2756 23.5625 19.5 23.5625Z" fill="#FF715B"/>
<path d="M3.65625 23.5625C3.88062 23.5625 4.0625 23.3806 4.0625 23.1562C4.0625 22.9319 3.88062 22.75 3.65625 22.75C3.43188 22.75 3.25 22.9319 3.25 23.1562C3.25 23.3806 3.43188 23.5625 3.65625 23.5625Z" fill="#FF715B"/>
</svg>
