<svg width="157" height="54" viewBox="0 0 157 54" fill="none" xmlns="http://www.w3.org/2000/svg">
<rect width="157" height="54" rx="11.3077" fill="#5C4F90"/>
<path d="M48 34.0956C47.4774 35.7482 46.6533 37.4008 45.5276 39.0535C43.799 41.6448 42.0771 42.9405 40.3618 42.9405C39.7052 42.9405 38.7672 42.729 37.5477 42.3059C36.3953 41.8828 35.3836 41.6713 34.5126 41.6713C33.6951 41.6713 32.7437 41.8894 31.6583 42.3257C30.5729 42.7752 29.6884 43 29.005 43C26.9682 43 24.9514 41.2879 22.9548 37.8636C20.9849 34.4129 20 31.0877 20 27.8882C20 24.8738 20.7571 22.4014 22.2714 20.4712C23.7856 18.5673 25.6884 17.6154 27.9799 17.6154C28.9447 17.6154 30.1307 17.8137 31.5377 18.2103C32.9313 18.607 33.8559 18.8053 34.3116 18.8053C34.9146 18.8053 35.8727 18.5805 37.1859 18.131C38.5528 17.6815 39.7119 17.4567 40.6633 17.4567C42.258 17.4567 43.6851 17.8864 44.9447 18.7458C45.6415 19.2218 46.3384 19.8828 47.0352 20.729C45.9766 21.6148 45.2127 22.3948 44.7437 23.0691C43.8727 24.3119 43.4372 25.6803 43.4372 27.1743C43.4372 28.8137 43.8995 30.2879 44.8241 31.5968C45.7487 32.9056 46.8074 33.7386 48 34.0956ZM40.4422 10.8329C40.4422 11.6394 40.2479 12.5385 39.8593 13.53C39.4573 14.5216 38.8342 15.4339 37.99 16.2668C37.2663 16.9808 36.5427 17.4567 35.8191 17.6947C35.3233 17.8401 34.6265 17.9525 33.7286 18.0319C33.7688 16.0619 34.2915 14.363 35.2965 12.9351C36.2881 11.5204 37.9632 10.5421 40.3216 10C40.335 10.0397 40.3518 10.1124 40.3719 10.2181C40.392 10.3239 40.4087 10.3966 40.4221 10.4363C40.4221 10.4892 40.4255 10.5553 40.4322 10.6346C40.4389 10.7139 40.4422 10.78 40.4422 10.8329Z" fill="white"/>
<path d="M64.4785 13.4858H66.1704C66.9087 13.4858 67.4863 13.7091 67.9033 14.1558C68.3226 14.6001 68.5322 15.2176 68.5322 16.0083C68.5322 16.799 68.3237 17.4176 67.9067 17.8643C67.4897 18.3109 66.911 18.5342 66.1704 18.5342H64.4785V13.4858ZM65.1621 14.1113V17.9053H66.1294C66.6808 17.9053 67.1024 17.7435 67.394 17.4199C67.688 17.0941 67.835 16.6258 67.835 16.0151C67.835 15.3976 67.6891 14.9259 67.3975 14.6001C67.1058 14.2743 66.6831 14.1113 66.1294 14.1113H65.1621ZM70.7129 18.5957C70.3802 18.5957 70.0874 18.5182 69.8345 18.3633C69.5815 18.2083 69.3844 17.9896 69.2432 17.707C69.1019 17.4245 69.0312 17.0907 69.0312 16.7056C69.0312 16.3182 69.1019 15.9832 69.2432 15.7007C69.3844 15.4181 69.5815 15.1994 69.8345 15.0444C70.0874 14.8895 70.3802 14.812 70.7129 14.812C71.0456 14.812 71.3372 14.8895 71.5879 15.0444C71.8408 15.1994 72.0379 15.4181 72.1792 15.7007C72.3205 15.9832 72.3911 16.3182 72.3911 16.7056C72.3911 17.0907 72.3205 17.4245 72.1792 17.707C72.0379 17.9896 71.8408 18.2083 71.5879 18.3633C71.3372 18.5182 71.0456 18.5957 70.7129 18.5957ZM70.7129 17.9976C71.0205 17.9976 71.2643 17.8859 71.4443 17.6626C71.6266 17.4393 71.7178 17.1203 71.7178 16.7056C71.7178 16.2886 71.6266 15.9684 71.4443 15.7451C71.2643 15.5218 71.0205 15.4102 70.7129 15.4102C70.4053 15.4102 70.1603 15.5218 69.978 15.7451C69.7957 15.9684 69.7046 16.2886 69.7046 16.7056C69.7046 17.1203 69.7957 17.4393 69.978 17.6626C70.1603 17.8859 70.4053 17.9976 70.7129 17.9976ZM77.6035 14.877L76.5952 18.5342H75.939L75.1357 15.7554H75.1733L74.3735 18.5342H73.7173L72.7021 14.877H73.3652L74.0762 17.7959H74.0386L74.8418 14.877H75.4673L76.2739 17.7959H76.2329L76.9438 14.877H77.6035ZM78.0923 18.5342V14.877H78.7212V15.4478H78.6802C78.7782 15.2563 78.924 15.1025 79.1177 14.9863C79.3114 14.8701 79.5483 14.812 79.8286 14.812C80.2251 14.812 80.535 14.9351 80.7583 15.1812C80.9816 15.4272 81.0933 15.7565 81.0933 16.1689V18.5342H80.4302V16.2783C80.4302 15.9935 80.3664 15.7782 80.2388 15.6323C80.1112 15.4865 79.9141 15.4136 79.6475 15.4136C79.374 15.4136 79.1564 15.5013 78.9946 15.6768C78.8351 15.8522 78.7554 16.0892 78.7554 16.3877V18.5342H78.0923ZM81.8828 18.5342V13.4858H82.5459V18.5342H81.8828ZM84.8564 18.5957C84.5238 18.5957 84.231 18.5182 83.978 18.3633C83.7251 18.2083 83.528 17.9896 83.3867 17.707C83.2454 17.4245 83.1748 17.0907 83.1748 16.7056C83.1748 16.3182 83.2454 15.9832 83.3867 15.7007C83.528 15.4181 83.7251 15.1994 83.978 15.0444C84.231 14.8895 84.5238 14.812 84.8564 14.812C85.1891 14.812 85.4808 14.8895 85.7314 15.0444C85.9844 15.1994 86.1815 15.4181 86.3228 15.7007C86.464 15.9832 86.5347 16.3182 86.5347 16.7056C86.5347 17.0907 86.464 17.4245 86.3228 17.707C86.1815 17.9896 85.9844 18.2083 85.7314 18.3633C85.4808 18.5182 85.1891 18.5957 84.8564 18.5957ZM84.8564 17.9976C85.1641 17.9976 85.4079 17.8859 85.5879 17.6626C85.7702 17.4393 85.8613 17.1203 85.8613 16.7056C85.8613 16.2886 85.7702 15.9684 85.5879 15.7451C85.4079 15.5218 85.1641 15.4102 84.8564 15.4102C84.5488 15.4102 84.3039 15.5218 84.1216 15.7451C83.9393 15.9684 83.8481 16.2886 83.8481 16.7056C83.8481 17.1203 83.9393 17.4393 84.1216 17.6626C84.3039 17.8859 84.5488 17.9976 84.8564 17.9976ZM88.3428 18.0181C88.6162 18.0181 88.8441 17.9338 89.0264 17.7651C89.2087 17.5965 89.2998 17.3869 89.2998 17.1362V16.8799L88.3872 16.9346C88.1525 16.9505 87.9736 17.0063 87.8506 17.1021C87.7275 17.1955 87.666 17.3231 87.666 17.4849C87.666 17.6466 87.7264 17.7765 87.8472 17.8745C87.9702 17.9702 88.1354 18.0181 88.3428 18.0181ZM88.2095 18.5957C87.8494 18.5957 87.5566 18.4932 87.3311 18.2881C87.1055 18.083 86.9927 17.8153 86.9927 17.4849C86.9927 17.1704 87.1077 16.9186 87.3379 16.7295C87.5703 16.5381 87.895 16.4287 88.312 16.4014L89.2998 16.3433V16.0767C89.2998 15.8647 89.2349 15.7007 89.105 15.5845C88.9774 15.4683 88.7939 15.4102 88.5547 15.4102C88.1081 15.4102 87.8438 15.5993 87.7617 15.9775H87.1226C87.1385 15.752 87.2069 15.5526 87.3276 15.3794C87.4484 15.2039 87.6136 15.0661 87.8232 14.9658C88.0352 14.8633 88.2835 14.812 88.5684 14.812C88.9922 14.812 89.3306 14.9214 89.5835 15.1401C89.8364 15.3589 89.9629 15.6517 89.9629 16.0186V18.5342H89.3306V17.9155H89.3716C89.2645 18.1183 89.105 18.2824 88.8931 18.4077C88.6812 18.533 88.4533 18.5957 88.2095 18.5957ZM92.0991 18.5957C91.7915 18.5957 91.5203 18.5171 91.2856 18.3599C91.0532 18.2026 90.8709 17.9827 90.7388 17.7002C90.6089 17.4154 90.5439 17.0838 90.5439 16.7056C90.5439 16.325 90.6089 15.9935 90.7388 15.7109C90.8687 15.4261 91.0498 15.2051 91.2822 15.0479C91.5146 14.8906 91.7824 14.812 92.0854 14.812C92.3452 14.812 92.5754 14.8713 92.7759 14.9897C92.9764 15.1082 93.1302 15.2643 93.2373 15.458H93.1963V13.4824H93.8594V18.5342H93.2236V17.9258H93.2681C93.1541 18.1309 92.9958 18.2938 92.793 18.4146C92.5924 18.5353 92.3612 18.5957 92.0991 18.5957ZM92.2119 15.4102C91.9066 15.4102 91.665 15.5264 91.4873 15.7588C91.3096 15.9889 91.2207 16.3045 91.2207 16.7056C91.2207 17.1066 91.3096 17.4222 91.4873 17.6523C91.665 17.8825 91.9066 17.9976 92.2119 17.9976C92.5104 17.9976 92.7497 17.8813 92.9297 17.6489C93.1097 17.4165 93.1997 17.1021 93.1997 16.7056C93.1997 16.3091 93.1097 15.9946 92.9297 15.7622C92.7497 15.5275 92.5104 15.4102 92.2119 15.4102ZM97.6055 18.5957C97.2728 18.5957 96.98 18.5182 96.7271 18.3633C96.4741 18.2083 96.277 17.9896 96.1357 17.707C95.9945 17.4245 95.9238 17.0907 95.9238 16.7056C95.9238 16.3182 95.9945 15.9832 96.1357 15.7007C96.277 15.4181 96.4741 15.1994 96.7271 15.0444C96.98 14.8895 97.2728 14.812 97.6055 14.812C97.9382 14.812 98.2298 14.8895 98.4805 15.0444C98.7334 15.1994 98.9305 15.4181 99.0718 15.7007C99.2131 15.9832 99.2837 16.3182 99.2837 16.7056C99.2837 17.0907 99.2131 17.4245 99.0718 17.707C98.9305 17.9896 98.7334 18.2083 98.4805 18.3633C98.2298 18.5182 97.9382 18.5957 97.6055 18.5957ZM97.6055 17.9976C97.9131 17.9976 98.1569 17.8859 98.3369 17.6626C98.5192 17.4393 98.6104 17.1203 98.6104 16.7056C98.6104 16.2886 98.5192 15.9684 98.3369 15.7451C98.1569 15.5218 97.9131 15.4102 97.6055 15.4102C97.2979 15.4102 97.0529 15.5218 96.8706 15.7451C96.6883 15.9684 96.5972 16.2886 96.5972 16.7056C96.5972 17.1203 96.6883 17.4393 96.8706 17.6626C97.0529 17.8859 97.2979 17.9976 97.6055 17.9976ZM99.8853 18.5342V14.877H100.514V15.4478H100.473C100.571 15.2563 100.717 15.1025 100.911 14.9863C101.104 14.8701 101.341 14.812 101.622 14.812C102.018 14.812 102.328 14.9351 102.551 15.1812C102.775 15.4272 102.886 15.7565 102.886 16.1689V18.5342H102.223V16.2783C102.223 15.9935 102.159 15.7782 102.032 15.6323C101.904 15.4865 101.707 15.4136 101.44 15.4136C101.167 15.4136 100.949 15.5013 100.788 15.6768C100.628 15.8522 100.548 16.0892 100.548 16.3877V18.5342H99.8853ZM105.272 14.0088H105.935V14.877H106.625V15.4375H105.935V17.5361C105.935 17.6934 105.967 17.8073 106.031 17.8779C106.095 17.9463 106.198 17.9805 106.342 17.9805C106.408 17.9805 106.501 17.9725 106.622 17.9565V18.5273C106.49 18.5501 106.353 18.5615 106.212 18.5615C105.879 18.5615 105.639 18.484 105.491 18.3291C105.345 18.1742 105.272 17.9201 105.272 17.5669V15.4375H104.742V14.877H105.272V14.0088ZM107.292 18.5342V13.4858H107.955V15.4478H107.914C108.012 15.2518 108.159 15.0968 108.355 14.9829C108.551 14.869 108.787 14.812 109.062 14.812C109.459 14.812 109.772 14.9385 110.002 15.1914C110.233 15.4443 110.348 15.7736 110.348 16.1792V18.5342H109.685V16.292C109.685 16.0117 109.617 15.7952 109.483 15.6426C109.351 15.4899 109.149 15.4136 108.878 15.4136C108.591 15.4136 108.365 15.5036 108.201 15.6836C108.037 15.8613 107.955 16.1029 107.955 16.4082V18.5342H107.292ZM112.562 15.4033C112.291 15.4033 112.07 15.4933 111.899 15.6733C111.731 15.8534 111.636 16.0835 111.616 16.3638H113.475C113.466 16.0812 113.379 15.8511 113.215 15.6733C113.054 15.4933 112.836 15.4033 112.562 15.4033ZM113.472 17.437H114.121C114.057 17.7834 113.886 18.0636 113.608 18.2778C113.33 18.4897 112.994 18.5957 112.6 18.5957C112.083 18.5957 111.675 18.4259 111.376 18.0864C111.078 17.7446 110.929 17.2889 110.929 16.7192C110.929 16.3433 110.996 16.0129 111.13 15.728C111.267 15.4409 111.458 15.2165 111.705 15.0547C111.951 14.8929 112.24 14.812 112.573 14.812C112.899 14.812 113.18 14.8883 113.417 15.041C113.654 15.1914 113.836 15.4045 113.964 15.6802C114.094 15.9536 114.159 16.2726 114.159 16.6372V16.9004H111.609C111.609 17.2376 111.698 17.5065 111.875 17.707C112.056 17.9053 112.302 18.0044 112.614 18.0044C112.835 18.0044 113.019 17.9543 113.167 17.854C113.316 17.7537 113.417 17.6147 113.472 17.437Z" fill="white"/>
<path d="M71.3828 37.5684L70.4805 34.875H66.8164L65.9141 37.5684H64.1777L67.7871 27.4717H69.5371L73.1465 37.5684H71.3828ZM68.6758 29.2627L67.2539 33.4941H70.043L68.6211 29.2627H68.6758ZM77.8701 30.0283C78.7998 30.0283 79.5472 30.3747 80.1123 31.0674C80.682 31.7555 80.9668 32.6807 80.9668 33.8428C80.9668 35.0049 80.6842 35.9346 80.1191 36.6318C79.5586 37.3245 78.818 37.6709 77.8975 37.6709C77.3734 37.6709 76.9085 37.5501 76.5029 37.3086C76.1019 37.0671 75.7988 36.748 75.5938 36.3516H75.6689V39.9473H74.0557V30.1445H75.6211V31.3955H75.5391C75.7487 30.9808 76.0563 30.6504 76.4619 30.4043C76.8721 30.1536 77.3415 30.0283 77.8701 30.0283ZM77.4805 36.2695C78.0501 36.2695 78.4967 36.0531 78.8203 35.6201C79.1484 35.1872 79.3125 34.5947 79.3125 33.8428C79.3125 33.0954 79.1484 32.5052 78.8203 32.0723C78.4967 31.6393 78.0501 31.4229 77.4805 31.4229C76.9336 31.4229 76.4938 31.6416 76.1611 32.0791C75.8285 32.5166 75.6621 33.1045 75.6621 33.8428C75.6621 34.5902 75.8262 35.1826 76.1543 35.6201C76.487 36.0531 76.929 36.2695 77.4805 36.2695ZM85.9229 30.0283C86.8525 30.0283 87.5999 30.3747 88.165 31.0674C88.7347 31.7555 89.0195 32.6807 89.0195 33.8428C89.0195 35.0049 88.737 35.9346 88.1719 36.6318C87.6113 37.3245 86.8708 37.6709 85.9502 37.6709C85.4261 37.6709 84.9613 37.5501 84.5557 37.3086C84.1546 37.0671 83.8516 36.748 83.6465 36.3516H83.7217V39.9473H82.1084V30.1445H83.6738V31.3955H83.5918C83.8014 30.9808 84.109 30.6504 84.5146 30.4043C84.9248 30.1536 85.3942 30.0283 85.9229 30.0283ZM85.5332 36.2695C86.1029 36.2695 86.5495 36.0531 86.873 35.6201C87.2012 35.1872 87.3652 34.5947 87.3652 33.8428C87.3652 33.0954 87.2012 32.5052 86.873 32.0723C86.5495 31.6393 86.1029 31.4229 85.5332 31.4229C84.9863 31.4229 84.5465 31.6416 84.2139 32.0791C83.8812 32.5166 83.7148 33.1045 83.7148 33.8428C83.7148 34.5902 83.8789 35.1826 84.207 35.6201C84.5397 36.0531 84.9818 36.2695 85.5332 36.2695ZM90.2158 37.5684V27.4717H91.8291V37.5684H90.2158ZM96.4229 31.375C95.9215 31.375 95.5137 31.5391 95.1992 31.8672C94.8848 32.1953 94.707 32.6169 94.666 33.1318H98.1182C98.0954 32.6123 97.9313 32.1908 97.626 31.8672C97.3252 31.5391 96.9242 31.375 96.4229 31.375ZM98.1318 35.2988H99.6631C99.5355 36.0234 99.1823 36.6068 98.6035 37.0488C98.0247 37.4863 97.3184 37.7051 96.4844 37.7051C95.4134 37.7051 94.568 37.361 93.9482 36.6729C93.333 35.9847 93.0254 35.0618 93.0254 33.9043C93.0254 33.1341 93.1644 32.4596 93.4424 31.8809C93.7249 31.2975 94.1191 30.8441 94.625 30.5205C95.1354 30.1969 95.7347 30.0352 96.4229 30.0352C97.0973 30.0352 97.6829 30.1878 98.1797 30.4932C98.6764 30.7985 99.0592 31.2292 99.3281 31.7852C99.597 32.3366 99.7314 32.9837 99.7314 33.7266V34.3076H94.6523V34.3281C94.6523 34.9479 94.8187 35.4424 95.1514 35.8115C95.4886 36.1761 95.9443 36.3584 96.5186 36.3584C97.3389 36.3584 97.8766 36.0052 98.1318 35.2988ZM103.491 34.6562H105.132C105.2 35.1667 105.439 35.5677 105.85 35.8594C106.264 36.1465 106.793 36.29 107.436 36.29C108.046 36.29 108.543 36.1533 108.926 35.8799C109.313 35.6019 109.507 35.2487 109.507 34.8203C109.507 34.4466 109.368 34.1436 109.09 33.9111C108.816 33.6787 108.365 33.485 107.736 33.3301L106.458 33.0225C104.658 32.6032 103.758 31.6849 103.758 30.2676C103.758 29.6842 103.913 29.1693 104.223 28.7227C104.537 28.276 104.97 27.9274 105.521 27.6768C106.073 27.4261 106.704 27.3008 107.415 27.3008C108.468 27.3008 109.325 27.5765 109.985 28.1279C110.651 28.6794 111.004 29.4154 111.045 30.3359H109.418C109.368 29.821 109.163 29.4268 108.803 29.1533C108.447 28.8799 107.978 28.7432 107.395 28.7432C106.811 28.7432 106.342 28.8753 105.986 29.1396C105.635 29.3994 105.46 29.7412 105.46 30.165C105.46 30.5023 105.592 30.778 105.856 30.9922C106.125 31.2018 106.572 31.3841 107.196 31.5391L108.283 31.8057C109.299 32.0426 110.04 32.389 110.505 32.8447C110.97 33.2959 111.202 33.8929 111.202 34.6357C111.202 35.5837 110.851 36.3379 110.149 36.8984C109.448 37.4544 108.507 37.7324 107.326 37.7324C106.219 37.7324 105.319 37.4613 104.626 36.9189C103.933 36.3721 103.555 35.6178 103.491 34.6562ZM112.836 28.4492H114.456V30.165H115.823V31.4844H114.456V35.4219C114.456 35.7227 114.518 35.9391 114.641 36.0713C114.768 36.1989 114.976 36.2627 115.263 36.2627C115.413 36.2627 115.598 36.2467 115.816 36.2148V37.5342C115.557 37.5889 115.26 37.6162 114.928 37.6162C114.185 37.6162 113.649 37.4567 113.321 37.1377C112.998 36.8187 112.836 36.3014 112.836 35.5859V31.4844H111.79V30.165H112.836V28.4492ZM120.198 37.7051C119.501 37.7051 118.89 37.5501 118.366 37.2402C117.847 36.9303 117.441 36.4883 117.149 35.9141C116.862 35.3398 116.719 34.6585 116.719 33.8701C116.719 33.0817 116.865 32.4004 117.156 31.8262C117.448 31.252 117.854 30.8099 118.373 30.5C118.897 30.1901 119.506 30.0352 120.198 30.0352C120.891 30.0352 121.497 30.1901 122.017 30.5C122.541 30.8099 122.949 31.252 123.24 31.8262C123.532 32.4004 123.678 33.0817 123.678 33.8701C123.678 34.6585 123.532 35.3398 123.24 35.9141C122.953 36.4883 122.548 36.9303 122.023 37.2402C121.504 37.5501 120.896 37.7051 120.198 37.7051ZM120.198 36.3379C120.763 36.3379 121.21 36.126 121.538 35.7021C121.871 35.2738 122.037 34.6631 122.037 33.8701C122.037 33.0771 121.871 32.4688 121.538 32.0449C121.205 31.6165 120.759 31.4023 120.198 31.4023C119.638 31.4023 119.191 31.6165 118.858 32.0449C118.526 32.4688 118.359 33.0771 118.359 33.8701C118.359 34.6631 118.526 35.2738 118.858 35.7021C119.191 36.126 119.638 36.3379 120.198 36.3379ZM124.819 37.5684V30.165H126.364V31.4023H126.275C126.398 30.9876 126.617 30.6595 126.932 30.418C127.246 30.1719 127.622 30.0488 128.06 30.0488C128.278 30.0488 128.47 30.0716 128.634 30.1172V31.6621C128.429 31.5846 128.185 31.5459 127.902 31.5459C127.442 31.5459 127.082 31.6895 126.822 31.9766C126.562 32.2591 126.433 32.651 126.433 33.1523V37.5684H124.819ZM132.626 31.375C132.125 31.375 131.717 31.5391 131.402 31.8672C131.088 32.1953 130.91 32.6169 130.869 33.1318H134.321C134.299 32.6123 134.134 32.1908 133.829 31.8672C133.528 31.5391 133.127 31.375 132.626 31.375ZM134.335 35.2988H135.866C135.739 36.0234 135.385 36.6068 134.807 37.0488C134.228 37.4863 133.521 37.7051 132.688 37.7051C131.617 37.7051 130.771 37.361 130.151 36.6729C129.536 35.9847 129.229 35.0618 129.229 33.9043C129.229 33.1341 129.368 32.4596 129.646 31.8809C129.928 31.2975 130.322 30.8441 130.828 30.5205C131.339 30.1969 131.938 30.0352 132.626 30.0352C133.3 30.0352 133.886 30.1878 134.383 30.4932C134.88 30.7985 135.262 31.2292 135.531 31.7852C135.8 32.3366 135.935 32.9837 135.935 33.7266V34.3076H130.855V34.3281C130.855 34.9479 131.022 35.4424 131.354 35.8115C131.692 36.1761 132.147 36.3584 132.722 36.3584C133.542 36.3584 134.08 36.0052 134.335 35.2988Z" fill="white"/>
</svg>
