<svg width="66" height="42" viewBox="0 0 66 42" fill="none" xmlns="http://www.w3.org/2000/svg">
<path d="M0.0127969 25.3805C0.284287 30.4749 0.683536 40.0649 8.00976 40.9912L56.3948 41.4383C61.6489 41.4383 63.8568 36.4757 63.8408 34.2199C63.8408 34.2199 65.1424 27.4127 57.7123 25.652C45.14 22.6736 9.98206 19.791 9.98206 19.791C-0.717829 18.8528 0.0048119 25.1889 0.0127969 25.3805Z" fill="#5C5090"/>
<path d="M51.4255 14.0696L49.7327 11.4664C48.1876 9.0949 45.5485 7.6616 42.7139 7.6616H41.3884V1.95632C41.3884 0.882339 40.51 0 39.432 0H12.2112C11.1372 0 10.2549 0.878346 10.2549 1.95632V21.1882C10.2549 22.2622 11.1332 23.1445 12.2112 23.1445H15.7486C16.4193 25.0449 18.2279 26.4024 20.3599 26.4024C22.4879 26.4024 24.3005 25.0409 24.9712 23.1445H38.406C39.0767 25.0449 40.8853 26.4024 43.0173 26.4024C45.305 26.4024 47.2254 24.8333 47.7564 22.7093H49.4013C50.7348 22.7093 51.8128 21.6273 51.8128 20.2938V15.3831C51.8168 14.916 51.681 14.4608 51.4255 14.0696Z" fill="#988FC5"/>
<g opacity="0.5">
<mask id="mask0_5155_8364" style="mask-type:luminance" maskUnits="userSpaceOnUse" x="10" y="0" width="42" height="27">
<path d="M51.4265 14.0696L49.7337 11.4664C48.1886 9.0949 45.5495 7.6616 42.7148 7.6616H41.3893V1.95632C41.3893 0.882339 40.511 0 39.433 0H12.2122C11.1382 0 10.2559 0.878346 10.2559 1.95632V21.1882C10.2559 22.2622 11.1342 23.1445 12.2122 23.1445H15.7495C16.4203 25.0449 18.2289 26.4024 20.3609 26.4024C22.4889 26.4024 24.3015 25.0409 24.9722 23.1445H38.4069C39.0777 25.0449 40.8863 26.4024 43.0183 26.4024C45.306 26.4024 47.2264 24.8333 47.7574 22.7093H49.4023C50.7358 22.7093 51.8137 21.6273 51.8137 20.2938V15.3831C51.8177 14.916 51.682 14.4608 51.4265 14.0696Z" fill="white"/>
</mask>
<g mask="url(#mask0_5155_8364)">
<path d="M68.6889 -1.91279L47.0391 45.7588L50.009 47.1076L71.6589 -0.564003L68.6889 -1.91279Z" fill="#5C5090"/>
<path d="M62.7518 -4.60907L41.0967 43.0625L44.0666 44.4116L65.7217 -3.25996L62.7518 -4.60907Z" fill="#5C5090"/>
<path d="M56.8032 -7.31122L35.1533 40.3604L38.1233 41.7091L59.7731 -5.96244L56.8032 -7.31122Z" fill="#5C5090"/>
<path d="M50.8699 -10.0065L29.2148 37.665L32.1848 39.0141L53.8399 -8.65743L50.8699 -10.0065Z" fill="#5C5090"/>
<path d="M44.9204 -12.7058L23.2705 34.9658L26.2404 36.3146L47.8903 -11.357L44.9204 -12.7058Z" fill="#5C5090"/>
<path d="M38.9832 -15.405L17.3281 32.2666L20.2981 33.6157L41.9532 -14.0559L38.9832 -15.405Z" fill="#5C5090"/>
<path d="M33.0422 -18.0999L11.3818 29.5664L14.3514 30.9158L36.0118 -16.7505L33.0422 -18.0999Z" fill="#5C5090"/>
<path d="M27.0985 -20.8015L5.44336 26.8701L8.41329 28.2192L30.0684 -19.4523L27.0985 -20.8015Z" fill="#5C5090"/>
<path d="M21.1561 -23.4997L-0.499023 24.1719L2.47091 25.521L24.126 -22.1506L21.1561 -23.4997Z" fill="#5C5090"/>
<path d="M15.2147 -26.1999L-6.44043 21.4717L-3.4705 22.8208L18.1846 -24.8508L15.2147 -26.1999Z" fill="#5C5090"/>
</g>
</g>
<path d="M63.9996 19.7953C63.9996 24.223 60.4104 27.8123 55.9787 27.8123C51.551 27.8123 47.9578 24.223 47.9578 19.7953C47.9578 15.3677 51.547 11.7744 55.9787 11.7744C60.4104 11.7744 63.9996 15.3637 63.9996 19.7953Z" fill="#FFBE3D"/>
<path d="M19.8505 8.42676H3.58105V9.53667H19.8505V8.42676Z" fill="#5C5090"/>
<path d="M19.8505 6.48633H3.58105V7.59624H19.8505V6.48633Z" fill="#5C5090"/>
<path d="M19.8505 4.54199H3.58105V5.65191H19.8505V4.54199Z" fill="#5C5090"/>
<path d="M20.5483 17.0659C19.9448 17.0659 19.4219 16.9341 18.9795 16.6704C18.5371 16.4067 18.1943 16.0288 17.9512 15.5366C17.7109 15.0415 17.5908 14.4497 17.5908 13.7612C17.5908 13.0757 17.7124 12.4868 17.9556 11.9946C18.1987 11.4995 18.5415 11.1201 18.9839 10.8564C19.4263 10.5928 19.9478 10.4609 20.5483 10.4609C21.2983 10.4609 21.9268 10.6821 22.4336 11.1245C22.9434 11.5669 23.2275 12.1279 23.2861 12.8076H22.0776C22.0161 12.4268 21.8462 12.1133 21.5679 11.8672C21.2896 11.6182 20.9497 11.4937 20.5483 11.4937C20.0298 11.4937 19.6182 11.6973 19.3135 12.1045C19.0088 12.5117 18.8564 13.0625 18.8564 13.7568C18.8564 14.46 19.0073 15.0151 19.3091 15.4224C19.6108 15.8296 20.0254 16.0332 20.5527 16.0332C20.96 16.0332 21.2983 15.9189 21.5679 15.6904C21.8403 15.4619 22.0132 15.1631 22.0864 14.7939H23.2905C23.2114 15.4707 22.9258 16.0186 22.4336 16.4375C21.9414 16.8564 21.313 17.0659 20.5483 17.0659ZM28.2344 16.9561L27.751 15.3872H25.4526L24.9692 16.9561H23.7036L25.8745 10.5752H27.373L29.5483 16.9561H28.2344ZM26.5117 11.8584L25.7163 14.46H27.4873L26.6919 11.8584H26.5117ZM29.9614 15.1982H31.1567C31.189 15.4531 31.3311 15.6641 31.583 15.8311C31.835 15.998 32.1411 16.0815 32.5015 16.0815C32.8677 16.0815 33.165 16.001 33.3936 15.8398C33.6221 15.6787 33.7363 15.4707 33.7363 15.2158C33.7363 14.9873 33.6499 14.8071 33.4771 14.6753C33.3042 14.5405 33.0229 14.4307 32.6333 14.3457L31.8071 14.1611C30.6675 13.9033 30.0977 13.3159 30.0977 12.3989C30.0977 12.0122 30.1987 11.6738 30.4009 11.3838C30.606 11.0938 30.8872 10.8682 31.2446 10.707C31.605 10.543 32.0166 10.4609 32.4795 10.4609C33.2061 10.4609 33.7803 10.6367 34.2021 10.9883C34.624 11.3369 34.8438 11.7808 34.8613 12.3198H33.7012C33.6777 12.062 33.5547 11.8511 33.332 11.687C33.1123 11.5229 32.8296 11.4409 32.4839 11.4409C32.147 11.4409 31.873 11.5171 31.6621 11.6694C31.4512 11.8188 31.3457 12.0225 31.3457 12.2803C31.3457 12.4971 31.4321 12.6699 31.605 12.7988C31.7808 12.9277 32.0518 13.0347 32.418 13.1196L33.187 13.2866C33.8081 13.4185 34.2607 13.6279 34.5449 13.915C34.832 14.1992 34.9756 14.5815 34.9756 15.062C34.9756 15.6714 34.7471 16.1577 34.29 16.521C33.8359 16.8843 33.2222 17.0659 32.4487 17.0659C31.7017 17.0659 31.1069 16.8945 30.6646 16.5518C30.2222 16.2061 29.9878 15.7549 29.9614 15.1982ZM41.2114 16.9561H39.9722V14.2314H37.0278V16.9561H35.7886V10.5752H37.0278V13.1987H39.9722V10.5752H41.2114V16.9561Z" fill="white"/>
<path d="M52.8271 16.4609C53.4424 16.4609 53.9756 16.5957 54.4268 16.8652C54.8779 17.1318 55.2266 17.5127 55.4727 18.0078C55.7188 18.5 55.8418 19.0859 55.8418 19.7656C55.8418 20.4424 55.7188 21.0283 55.4727 21.5234C55.2266 22.0156 54.8779 22.3965 54.4268 22.666C53.9756 22.9326 53.4424 23.0659 52.8271 23.0659C52.2119 23.0659 51.6787 22.9326 51.2275 22.666C50.7764 22.3965 50.4277 22.0156 50.1816 21.5234C49.9355 21.0283 49.8125 20.4424 49.8125 19.7656C49.8125 19.0859 49.9355 18.5 50.1816 18.0078C50.4277 17.5127 50.7764 17.1318 51.2275 16.8652C51.6787 16.5957 52.2119 16.4609 52.8271 16.4609ZM52.8271 17.5024C52.291 17.5024 51.8647 17.7075 51.5483 18.1177C51.2349 18.5249 51.0781 19.0742 51.0781 19.7656C51.0781 20.4541 51.2349 21.002 51.5483 21.4092C51.8618 21.8164 52.2881 22.02 52.8271 22.02C53.3633 22.02 53.7881 21.8164 54.1016 21.4092C54.415 21.002 54.5718 20.4541 54.5718 19.7656C54.5718 19.0742 54.415 18.5249 54.1016 18.1177C53.7881 17.7075 53.3633 17.5024 52.8271 17.5024ZM57.8809 22.9561H56.6987V16.5752H57.7402L60.6099 20.6577H60.8032V16.5752H61.9854V22.9561H60.9526L58.0786 18.8516H57.8809V22.9561Z" fill="white"/>
<path d="M12.209 28.5752H14.5864C15.521 28.5752 16.2505 28.8506 16.7749 29.4014C17.3022 29.9492 17.5659 30.7285 17.5659 31.7393C17.5659 32.7529 17.3022 33.5425 16.7749 34.1079C16.2505 34.6733 15.521 34.9561 14.5864 34.9561H12.209V28.5752ZM13.4482 29.6035V33.9233H14.4282C15.0376 33.9233 15.502 33.7388 15.8213 33.3696C16.1406 32.9976 16.3003 32.4556 16.3003 31.7437C16.3003 31.0522 16.1377 30.5234 15.8125 30.1572C15.4902 29.7881 15.0288 29.6035 14.4282 29.6035H13.4482ZM22.5361 33.9233V34.9561H18.4229V28.5752H22.5361V29.6035H19.6621V31.2515H22.3735V32.2051H19.6621V33.9233H22.5361ZM27.5063 33.9233V34.9561H23.4941V28.5752H24.7334V33.9233H27.5063ZM31.5273 34.9561H29.9937L27.8887 28.5752H29.2773L30.6924 33.5146H30.8638L32.2744 28.5752H33.6323L31.5273 34.9561ZM38.3916 33.9233V34.9561H34.2783V28.5752H38.3916V29.6035H35.5176V31.2515H38.229V32.2051H35.5176V33.9233H38.3916ZM40.5889 29.5464V31.6953H41.7754C42.124 31.6953 42.395 31.6001 42.5884 31.4097C42.7817 31.2163 42.8784 30.9526 42.8784 30.6187C42.8784 30.2876 42.7773 30.0269 42.5752 29.8364C42.376 29.6431 42.105 29.5464 41.7622 29.5464H40.5889ZM40.5889 32.5874V34.9561H39.3496V28.5752H41.9028C42.6177 28.5752 43.1714 28.7568 43.564 29.1201C43.9565 29.4805 44.1528 29.9712 44.1528 30.5923C44.1528 30.9966 44.0562 31.3599 43.8628 31.6821C43.6694 32.0044 43.3765 32.2476 42.9839 32.4116L44.311 34.9561H42.9048L41.8281 32.7983L41.4458 32.5874H40.5889ZM48.0112 34.9561H46.772V32.5742L44.5967 28.5752H45.9414L47.2949 31.2031H47.5146L48.8726 28.5752H50.1953L48.0112 32.5742V34.9561Z" fill="white"/>
</svg>
