<svg width="30" height="28" viewBox="0 0 30 28" fill="none" xmlns="http://www.w3.org/2000/svg">
<path d="M5.02125 20.4291C5.21587 20.6244 5.365 20.8604 5.45802 21.12C5.55103 21.3796 5.58564 21.6566 5.55937 21.9311C5.4276 23.2018 5.17777 24.4574 4.81312 25.6817C7.42875 25.0759 9.02625 24.3746 9.75187 24.007C10.1634 23.7986 10.6374 23.7492 11.0831 23.8683C12.3608 24.209 13.6777 24.3804 15 24.3783C22.4925 24.3783 28.125 19.1145 28.125 13.1268C28.125 7.14098 22.4925 1.87526 15 1.87526C7.5075 1.87526 1.875 7.14098 1.875 13.1268C1.875 15.8797 3.03187 18.4338 5.02125 20.4291ZM4.09687 27.7519C3.65263 27.84 3.20694 27.9207 2.76 27.9938C2.385 28.0539 2.1 27.6638 2.24813 27.315C2.41461 26.9223 2.5672 26.5239 2.70562 26.1205L2.71125 26.1017C3.17625 24.7515 3.555 23.1988 3.69375 21.753C1.39313 19.4464 0 16.4273 0 13.1268C0 5.87706 6.71625 0 15 0C23.2838 0 30 5.87706 30 13.1268C30 20.3765 23.2838 26.2536 15 26.2536C13.5143 26.2556 12.0349 26.0627 10.5994 25.6798C9.62437 26.173 7.52625 27.0712 4.09687 27.7519Z" fill="white"/>
</svg>
