<svg width="44" height="44" viewBox="0 0 44 44" fill="none" xmlns="http://www.w3.org/2000/svg">
<circle cx="22.1923" cy="21.8077" r="21.3077" stroke="#5C4F90"/>
<path d="M24.72 23.4088H24.22V23.9088V36.6485H19.8699V23.8991V23.3991H19.3699H15.4227V19.2154H19.3602H19.8602V18.7154V14.9111C19.8602 12.8027 20.5036 11.233 21.5602 10.1905C22.6184 9.14634 24.1463 8.57645 26.0188 8.57645L26.0208 8.57644C27.1838 8.57191 28.3462 8.62442 29.504 8.73373V12.4032H27.2837C26.143 12.4032 25.3235 12.6748 24.8141 13.2805C24.3211 13.8668 24.22 14.6536 24.22 15.4232V18.7251V19.2251H24.72H29.2824L28.7465 23.4088H24.72Z" fill="#5C4F90" stroke="#5C4F90"/>
</svg>
