<svg width="157" height="54" viewBox="0 0 157 54" fill="none" xmlns="http://www.w3.org/2000/svg">
<rect width="157" height="54" rx="11.3077" fill="#5C4F90"/>
<path d="M20 40.9749V12.0266C20.0002 11.9638 20.0189 11.9024 20.0538 11.8502C20.0888 11.798 20.1383 11.7573 20.1963 11.7332C20.2543 11.709 20.3181 11.7025 20.3797 11.7145C20.4414 11.7265 20.4981 11.7564 20.5429 11.8005L35.6159 26.5L20.5429 41.201C20.4981 41.2451 20.4414 41.275 20.3797 41.287C20.3181 41.299 20.2543 41.2925 20.1963 41.2683C20.1383 41.2442 20.0888 41.2034 20.0538 41.1512C20.0189 41.099 20.0002 41.0377 20 40.9749ZM41.9359 32.5401L23.0363 42.9526L23.0245 42.9593C22.6989 43.1361 22.3895 42.6956 22.6562 42.4392L37.4714 28.273L41.9359 32.5401ZM22.6576 10.5608C22.3895 10.3044 22.6989 9.86395 23.0259 10.0407L23.0377 10.0474L41.9359 20.4599L37.4714 24.7285L22.6576 10.5608ZM49.5655 28.3415L44.2878 31.2481L39.3254 26.5L44.2878 21.7541L49.5655 24.6585C51.0012 25.4518 51.0012 27.5482 49.5655 28.3415Z" fill="white"/>
<path d="M68.5084 17.9531C68.8092 17.9531 69.0507 17.8381 69.233 17.6079C69.4153 17.3778 69.5065 17.0679 69.5065 16.6782C69.5065 16.2886 69.4153 15.9775 69.233 15.7451C69.0507 15.5127 68.8092 15.3965 68.5084 15.3965C68.2099 15.3965 67.9718 15.5116 67.7941 15.7417C67.6186 15.9696 67.5309 16.2817 67.5309 16.6782C67.5309 17.0747 67.6186 17.3869 67.7941 17.6147C67.9718 17.8403 68.2099 17.9531 68.5084 17.9531ZM68.5289 19.874C68.1324 19.874 67.7918 19.7703 67.507 19.563C67.2221 19.3579 67.049 19.0868 66.9874 18.7495H67.6642C67.7257 18.9204 67.8351 19.0537 67.9923 19.1494C68.1495 19.2474 68.3364 19.2964 68.5529 19.2964C68.8536 19.2964 69.0872 19.2178 69.2535 19.0605C69.4222 18.9033 69.5065 18.6948 69.5065 18.4351V17.9019H69.5475C69.4381 18.0955 69.2809 18.2516 69.0758 18.3701C68.873 18.4886 68.644 18.5479 68.3888 18.5479C67.9285 18.5479 67.5571 18.377 67.2745 18.0352C66.9943 17.6934 66.8541 17.241 66.8541 16.6782C66.8541 16.1086 66.9954 15.6528 67.278 15.311C67.5605 14.9692 67.9353 14.7983 68.4025 14.7983C68.6577 14.7983 68.8878 14.8587 69.0929 14.9795C69.298 15.098 69.4598 15.2598 69.5782 15.4648H69.5338V14.8633H70.1696V18.4146C70.1696 18.8498 70.0203 19.2018 69.7218 19.4707C69.4233 19.7396 69.0257 19.874 68.5289 19.874ZM72.4049 15.4033C72.1337 15.4033 71.9127 15.4933 71.7418 15.6733C71.5732 15.8534 71.4786 16.0835 71.4581 16.3638H73.3175C73.3084 16.0812 73.2218 15.8511 73.0577 15.6733C72.896 15.4933 72.6783 15.4033 72.4049 15.4033ZM73.3141 17.437H73.9635C73.8997 17.7834 73.7288 18.0636 73.4508 18.2778C73.1728 18.4897 72.8367 18.5957 72.4425 18.5957C71.9253 18.5957 71.5174 18.4259 71.2189 18.0864C70.9204 17.7446 70.7711 17.2889 70.7711 16.7192C70.7711 16.3433 70.8383 16.0129 70.9728 15.728C71.1095 15.4409 71.3009 15.2165 71.547 15.0547C71.7931 14.8929 72.0825 14.812 72.4152 14.812C72.741 14.812 73.0224 14.8883 73.2594 15.041C73.4964 15.1914 73.6787 15.4045 73.8063 15.6802C73.9362 15.9536 74.0011 16.2726 74.0011 16.6372V16.9004H71.4513C71.4513 17.2376 71.5402 17.5065 71.7179 17.707C71.8979 17.9053 72.144 18.0044 72.4562 18.0044C72.6772 18.0044 72.8618 17.9543 73.0099 17.854C73.158 17.7537 73.2594 17.6147 73.3141 17.437ZM74.7941 14.0088H75.4572V14.877H76.1476V15.4375H75.4572V17.5361C75.4572 17.6934 75.4891 17.8073 75.5529 17.8779C75.6167 17.9463 75.7203 17.9805 75.8639 17.9805C75.93 17.9805 76.0234 17.9725 76.1442 17.9565V18.5273C76.012 18.5501 75.8753 18.5615 75.734 18.5615C75.4013 18.5615 75.1609 18.484 75.0128 18.3291C74.867 18.1742 74.7941 17.9201 74.7941 17.5669V15.4375H74.2643V14.877H74.7941V14.0088ZM78.2496 18.5342V14.877H78.9127V18.5342H78.2496ZM78.5812 14.3403C78.4741 14.3403 78.3795 14.3005 78.2975 14.2207C78.2177 14.1387 78.1779 14.043 78.1779 13.9336C78.1779 13.8219 78.2177 13.7262 78.2975 13.6465C78.3795 13.5667 78.4741 13.5269 78.5812 13.5269C78.6906 13.5269 78.7851 13.5667 78.8649 13.6465C78.9469 13.7262 78.9879 13.8219 78.9879 13.9336C78.9879 14.043 78.9469 14.1387 78.8649 14.2207C78.7851 14.3005 78.6906 14.3403 78.5812 14.3403ZM79.9073 14.0088H80.5704V14.877H81.2609V15.4375H80.5704V17.5361C80.5704 17.6934 80.6023 17.8073 80.6661 17.8779C80.7299 17.9463 80.8336 17.9805 80.9772 17.9805C81.0433 17.9805 81.1367 17.9725 81.2574 17.9565V18.5273C81.1253 18.5501 80.9886 18.5615 80.8473 18.5615C80.5146 18.5615 80.2742 18.484 80.1261 18.3291C79.9803 18.1742 79.9073 17.9201 79.9073 17.5669V15.4375H79.3776V14.877H79.9073V14.0088ZM84.8395 18.5957C84.5068 18.5957 84.214 18.5182 83.9611 18.3633C83.7081 18.2083 83.511 17.9896 83.3698 17.707C83.2285 17.4245 83.1578 17.0907 83.1578 16.7056C83.1578 16.3182 83.2285 15.9832 83.3698 15.7007C83.511 15.4181 83.7081 15.1994 83.9611 15.0444C84.214 14.8895 84.5068 14.812 84.8395 14.812C85.1722 14.812 85.4638 14.8895 85.7145 15.0444C85.9674 15.1994 86.1645 15.4181 86.3058 15.7007C86.4471 15.9832 86.5177 16.3182 86.5177 16.7056C86.5177 17.0907 86.4471 17.4245 86.3058 17.707C86.1645 17.9896 85.9674 18.2083 85.7145 18.3633C85.4638 18.5182 85.1722 18.5957 84.8395 18.5957ZM84.8395 17.9976C85.1471 17.9976 85.3909 17.8859 85.5709 17.6626C85.7532 17.4393 85.8444 17.1203 85.8444 16.7056C85.8444 16.2886 85.7532 15.9684 85.5709 15.7451C85.3909 15.5218 85.1471 15.4102 84.8395 15.4102C84.5319 15.4102 84.2869 15.5218 84.1046 15.7451C83.9223 15.9684 83.8312 16.2886 83.8312 16.7056C83.8312 17.1203 83.9223 17.4393 84.1046 17.6626C84.2869 17.8859 84.5319 17.9976 84.8395 17.9976ZM87.1193 18.5342V14.877H87.7482V15.4478H87.7072C87.8051 15.2563 87.951 15.1025 88.1447 14.9863C88.3383 14.8701 88.5753 14.812 88.8556 14.812C89.2521 14.812 89.562 14.9351 89.7853 15.1812C90.0086 15.4272 90.1202 15.7565 90.1202 16.1689V18.5342H89.4572V16.2783C89.4572 15.9935 89.3934 15.7782 89.2657 15.6323C89.1381 15.4865 88.941 15.4136 88.6744 15.4136C88.401 15.4136 88.1834 15.5013 88.0216 15.6768C87.8621 15.8522 87.7823 16.0892 87.7823 16.3877V18.5342H87.1193Z" fill="white"/>
<path d="M76.1852 33.3574C76.1852 34.7201 75.8024 35.791 75.0367 36.5703C74.2711 37.3451 73.2138 37.7324 71.8649 37.7324C70.9124 37.7324 70.0875 37.5182 69.3903 37.0898C68.693 36.6615 68.153 36.0531 67.7701 35.2646C67.3873 34.4762 67.1959 33.5443 67.1959 32.4688C67.1959 31.416 67.3851 30.5023 67.7633 29.7275C68.1461 28.9528 68.6839 28.3558 69.3766 27.9365C70.0739 27.5127 70.8964 27.3008 71.8444 27.3008C72.9518 27.3008 73.8929 27.6084 74.6676 28.2236C75.4423 28.8389 75.9277 29.6774 76.1237 30.7393H74.4215C74.2255 30.1058 73.9065 29.6227 73.4645 29.29C73.0224 28.9574 72.4847 28.791 71.8512 28.791C70.9261 28.791 70.2015 29.1123 69.6774 29.7549C69.1578 30.3975 68.8981 31.2975 68.8981 32.4551C68.8981 33.6354 69.1624 34.5628 69.691 35.2373C70.2242 35.9072 70.9534 36.2422 71.8785 36.2422C72.667 36.2422 73.3004 36.0166 73.7789 35.5654C74.262 35.1143 74.5149 34.5127 74.5377 33.7607V33.6582H71.9879V32.2705H76.1852V33.3574ZM80.6627 37.7051C79.9655 37.7051 79.3548 37.5501 78.8307 37.2402C78.3112 36.9303 77.9056 36.4883 77.6139 35.9141C77.3268 35.3398 77.1832 34.6585 77.1832 33.8701C77.1832 33.0817 77.3291 32.4004 77.6207 31.8262C77.9124 31.252 78.318 30.8099 78.8375 30.5C79.3616 30.1901 79.97 30.0352 80.6627 30.0352C81.3554 30.0352 81.9615 30.1901 82.4811 30.5C83.0052 30.8099 83.413 31.252 83.7047 31.8262C83.9964 32.4004 84.1422 33.0817 84.1422 33.8701C84.1422 34.6585 83.9964 35.3398 83.7047 35.9141C83.4176 36.4883 83.012 36.9303 82.4879 37.2402C81.9684 37.5501 81.36 37.7051 80.6627 37.7051ZM80.6627 36.3379C81.2278 36.3379 81.6744 36.126 82.0026 35.7021C82.3352 35.2738 82.5016 34.6631 82.5016 33.8701C82.5016 33.0771 82.3352 32.4688 82.0026 32.0449C81.6699 31.6165 81.2233 31.4023 80.6627 31.4023C80.1022 31.4023 79.6556 31.6165 79.3229 32.0449C78.9902 32.4688 78.8239 33.0771 78.8239 33.8701C78.8239 34.6631 78.9902 35.2738 79.3229 35.7021C79.6556 36.126 80.1022 36.3379 80.6627 36.3379ZM88.442 37.7051C87.7448 37.7051 87.1341 37.5501 86.61 37.2402C86.0905 36.9303 85.6849 36.4883 85.3932 35.9141C85.1061 35.3398 84.9625 34.6585 84.9625 33.8701C84.9625 33.0817 85.1084 32.4004 85.4 31.8262C85.6917 31.252 86.0973 30.8099 86.6168 30.5C87.1409 30.1901 87.7493 30.0352 88.442 30.0352C89.1347 30.0352 89.7408 30.1901 90.2604 30.5C90.7845 30.8099 91.1923 31.252 91.484 31.8262C91.7757 32.4004 91.9215 33.0817 91.9215 33.8701C91.9215 34.6585 91.7757 35.3398 91.484 35.9141C91.1969 36.4883 90.7913 36.9303 90.2672 37.2402C89.7477 37.5501 89.1393 37.7051 88.442 37.7051ZM88.442 36.3379C89.0071 36.3379 89.4537 36.126 89.7819 35.7021C90.1145 35.2738 90.2809 34.6631 90.2809 33.8701C90.2809 33.0771 90.1145 32.4688 89.7819 32.0449C89.4492 31.6165 89.0026 31.4023 88.442 31.4023C87.8815 31.4023 87.4349 31.6165 87.1022 32.0449C86.7695 32.4688 86.6031 33.0771 86.6031 33.8701C86.6031 34.6631 86.7695 35.2738 87.1022 35.7021C87.4349 36.126 87.8815 36.3379 88.442 36.3379ZM96.194 36.1943C96.7545 36.1943 97.2011 35.9824 97.5338 35.5586C97.8711 35.1348 98.0397 34.556 98.0397 33.8223C98.0397 33.0885 97.8711 32.5052 97.5338 32.0723C97.2011 31.6348 96.7545 31.416 96.194 31.416C95.6425 31.416 95.2028 31.6302 94.8746 32.0586C94.5511 32.487 94.3893 33.0749 94.3893 33.8223C94.3893 34.5697 94.5511 35.153 94.8746 35.5723C95.2028 35.987 95.6425 36.1943 96.194 36.1943ZM96.2076 40.2754C95.3509 40.2754 94.6285 40.0635 94.0406 39.6396C93.4573 39.2204 93.1064 38.6644 92.9879 37.9717H94.6012C94.7151 38.2907 94.9179 38.5368 95.2096 38.71C95.5013 38.8877 95.8522 38.9766 96.2623 38.9766C96.8274 38.9766 97.2627 38.833 97.568 38.5459C97.8779 38.2588 98.0328 37.8737 98.0328 37.3906V36.2627H98.1149C97.9143 36.6546 97.609 36.9714 97.1989 37.2129C96.7887 37.4499 96.3216 37.5684 95.7975 37.5684C94.8769 37.5684 94.1364 37.2288 93.5758 36.5498C93.0198 35.8708 92.7418 34.9593 92.7418 33.8154C92.7418 32.6579 93.0221 31.7373 93.5826 31.0537C94.1432 30.3656 94.8929 30.0215 95.8317 30.0215C96.3512 30.0215 96.8138 30.1445 97.2194 30.3906C97.6295 30.6367 97.944 30.9671 98.1627 31.3818H98.0807V30.1445H99.653V37.3428C99.653 38.2223 99.3385 38.931 98.7096 39.4688C98.0807 40.0065 97.2467 40.2754 96.2076 40.2754ZM101.171 37.5684V27.4717H102.784V37.5684H101.171ZM107.378 31.375C106.876 31.375 106.468 31.5391 106.154 31.8672C105.839 32.1953 105.662 32.6169 105.621 33.1318H109.073C109.05 32.6123 108.886 32.1908 108.581 31.8672C108.28 31.5391 107.879 31.375 107.378 31.375ZM109.087 35.2988H110.618C110.49 36.0234 110.137 36.6068 109.558 37.0488C108.979 37.4863 108.273 37.7051 107.439 37.7051C106.368 37.7051 105.523 37.361 104.903 36.6729C104.288 35.9847 103.98 35.0618 103.98 33.9043C103.98 33.1341 104.119 32.4596 104.397 31.8809C104.68 31.2975 105.074 30.8441 105.58 30.5205C106.09 30.1969 106.689 30.0352 107.378 30.0352C108.052 30.0352 108.638 30.1878 109.134 30.4932C109.631 30.7985 110.014 31.2292 110.283 31.7852C110.552 32.3366 110.686 32.9837 110.686 33.7266V34.3076H105.607V34.3281C105.607 34.9479 105.773 35.4424 106.106 35.8115C106.443 36.1761 106.899 36.3584 107.473 36.3584C108.294 36.3584 108.831 36.0052 109.087 35.2988ZM114.883 27.4717H118.65C119.297 27.4717 119.869 27.613 120.366 27.8955C120.867 28.1781 121.259 28.57 121.542 29.0713C121.824 29.5726 121.965 30.1514 121.965 30.8076C121.965 31.4684 121.822 32.0518 121.535 32.5576C121.248 33.0589 120.851 33.4531 120.345 33.7402C119.839 34.0228 119.258 34.1641 118.602 34.1641H116.551V37.5684H114.883V27.4717ZM116.551 28.9072V32.7285H118.24C118.892 32.7285 119.391 32.5645 119.737 32.2363C120.088 31.9036 120.263 31.4297 120.263 30.8145C120.263 30.2038 120.09 29.7344 119.744 29.4062C119.397 29.0736 118.898 28.9072 118.247 28.9072H116.551ZM123.182 37.5684V27.4717H124.796V37.5684H123.182ZM128.897 36.3721C129.398 36.3721 129.818 36.2217 130.155 35.9209C130.497 35.6156 130.668 35.235 130.668 34.7793V34.2803L128.972 34.3828C128.539 34.4147 128.211 34.5173 127.988 34.6904C127.765 34.8636 127.653 35.0983 127.653 35.3945C127.653 35.6953 127.765 35.9346 127.988 36.1123C128.211 36.2855 128.514 36.3721 128.897 36.3721ZM128.487 37.6914C127.771 37.6914 127.181 37.4818 126.716 37.0625C126.256 36.6432 126.026 36.1009 126.026 35.4355C126.026 34.7839 126.263 34.2666 126.737 33.8838C127.215 33.4964 127.89 33.2754 128.76 33.2207L130.668 33.1045V32.6123C130.668 32.2204 130.547 31.9196 130.305 31.71C130.068 31.4958 129.731 31.3887 129.294 31.3887C128.879 31.3887 128.548 31.4821 128.302 31.6689C128.056 31.8512 127.899 32.111 127.831 32.4482H126.306C126.338 31.9743 126.479 31.5573 126.73 31.1973C126.985 30.8372 127.334 30.5547 127.776 30.3496C128.223 30.14 128.747 30.0352 129.348 30.0352C130.232 30.0352 130.941 30.2585 131.474 30.7051C132.007 31.1517 132.274 31.7487 132.274 32.4961V37.5684H130.722V36.3721H130.797C130.583 36.7731 130.264 37.0944 129.84 37.3359C129.417 37.5729 128.965 37.6914 128.487 37.6914ZM134.516 40.248C134.398 40.248 134.174 40.2321 133.846 40.2002V38.8467C133.942 38.8695 134.042 38.8831 134.147 38.8877C134.252 38.8923 134.334 38.8945 134.393 38.8945C134.726 38.8945 134.983 38.8193 135.166 38.6689C135.352 38.5231 135.498 38.2725 135.603 37.917C135.603 37.917 135.61 37.8942 135.624 37.8486C135.637 37.8031 135.651 37.7507 135.665 37.6914C135.683 37.6367 135.699 37.5889 135.713 37.5479C135.726 37.5068 135.733 37.4886 135.733 37.4932L133.108 30.1445H134.858L136.683 36.0508H136.601L138.426 30.1445H140.129L137.401 37.876C137.1 38.751 136.733 39.3639 136.3 39.7148C135.872 40.0703 135.277 40.248 134.516 40.248Z" fill="white"/>
</svg>
