<svg width="44" height="44" viewBox="0 0 44 44" fill="none" xmlns="http://www.w3.org/2000/svg">
<circle cx="21.8077" cy="21.8077" r="21.3077" stroke="#5C4F90"/>
<path fill-rule="evenodd" clip-rule="evenodd" d="M21.8079 8.07617C18.0786 8.07617 17.6118 8.09265 16.1467 8.15856C14.6858 8.22584 13.6875 8.45789 12.8143 8.79704C11.8977 9.14147 11.0674 9.68175 10.3812 10.3802C9.68276 11.0664 9.14248 11.8968 8.79801 12.8133C8.45886 13.6866 8.22681 14.6848 8.15953 16.1457C8.09225 17.6108 8.07715 18.0777 8.07715 21.8069C8.07715 25.5362 8.09225 26.0031 8.15953 27.4681C8.22681 28.9291 8.45886 29.9273 8.79801 30.8006C9.14252 31.7171 9.6828 32.5474 10.3812 33.2337C11.0674 33.9321 11.8978 34.4723 12.8143 34.8168C13.6875 35.156 14.6858 35.388 16.1467 35.4553C17.6118 35.5212 18.0786 35.5377 21.8079 35.5377C25.5372 35.5377 26.004 35.5212 27.4691 35.4553C28.9301 35.388 29.9283 35.156 30.8016 34.8168C31.7181 34.4724 32.5484 33.9321 33.2347 33.2337C33.9331 32.5475 34.4734 31.7171 34.8178 30.8006C35.157 29.9273 35.389 28.9291 35.4563 27.4681C35.5222 26.0031 35.5387 25.5362 35.5387 21.8069C35.5387 18.0777 35.5222 17.6108 35.4563 16.1457C35.389 14.6848 35.157 13.6866 34.8178 12.8133C34.4734 11.8968 33.9331 11.0664 33.2347 10.3802C32.5485 9.68175 31.7181 9.14147 30.8016 8.79704C29.9283 8.45789 28.9301 8.22584 27.4691 8.15856C26.004 8.09265 25.5372 8.07617 21.8079 8.07617ZM21.8079 10.5505C25.474 10.5505 25.9079 10.5642 27.3552 10.6301C28.6953 10.6919 29.4216 10.9143 29.9063 11.1024C30.5462 11.3523 31.0048 11.6503 31.4854 12.1295C31.9659 12.6101 32.2625 13.0687 32.5124 13.7085C32.6992 14.1932 32.9243 14.9196 32.9848 16.2583C33.0507 17.7069 33.0644 18.1395 33.0644 21.8069C33.0644 25.4731 33.0507 25.9069 32.9848 27.3542C32.923 28.6943 32.6992 29.4207 32.5124 29.9053C32.2923 30.5018 31.9413 31.0413 31.4854 31.4844C31.0048 31.965 30.5462 32.2615 29.9063 32.5114C29.4216 32.6982 28.6953 32.9234 27.3565 32.9838C25.9093 33.0497 25.4754 33.0634 21.8079 33.0634C18.1418 33.0634 17.7065 33.0497 16.2607 32.9838C14.9206 32.922 14.1942 32.6982 13.7095 32.5114C13.113 32.2914 12.5735 31.9404 12.1305 31.4844C11.6744 31.0414 11.3235 30.5018 11.1034 29.9053C10.9153 29.4207 10.6915 28.6943 10.6311 27.3555C10.5652 25.9069 10.5514 25.4744 10.5514 21.8069C10.5514 18.1408 10.5652 17.7069 10.6311 16.2597C10.6929 14.9196 10.9153 14.1932 11.1034 13.7085C11.3533 13.0687 11.6513 12.6101 12.1305 12.1295C12.611 11.6489 13.0697 11.3523 13.7095 11.1024C14.1942 10.9143 14.9206 10.6905 16.2593 10.6301C17.7079 10.5642 18.1404 10.5505 21.8079 10.5505ZM21.8079 26.3834C20.5942 26.3834 19.4301 25.9012 18.5719 25.043C17.7136 24.1847 17.2315 23.0207 17.2315 21.8069C17.2315 20.5932 17.7136 19.4291 18.5719 18.5709C19.4301 17.7126 20.5942 17.2305 21.8079 17.2305C23.0217 17.2305 24.1857 17.7126 25.044 18.5709C25.9022 19.4291 26.3844 20.5932 26.3844 21.8069C26.3844 23.0207 25.9022 24.1847 25.044 25.043C24.1857 25.9012 23.0217 26.3834 21.8079 26.3834ZM21.8079 14.7562C20.882 14.7562 19.9651 14.9386 19.1097 15.2929C18.2543 15.6472 17.477 16.1666 16.8223 16.8213C16.1676 17.476 15.6482 18.2533 15.2939 19.1087C14.9395 19.9642 14.7572 20.881 14.7572 21.8069C14.7572 22.7329 14.9395 23.6497 15.2939 24.5051C15.6482 25.3606 16.1676 26.1379 16.8223 26.7926C17.477 27.4473 18.2543 27.9667 19.1097 28.321C19.9651 28.6753 20.882 28.8577 21.8079 28.8577C23.6779 28.8577 25.4713 28.1148 26.7936 26.7926C28.1158 25.4703 28.8587 23.6769 28.8587 21.8069C28.8587 19.937 28.1158 18.1436 26.7936 16.8213C25.4713 15.499 23.6779 14.7562 21.8079 14.7562ZM30.7851 14.4775C30.7851 14.6938 30.7425 14.9081 30.6597 15.108C30.5769 15.3079 30.4555 15.4895 30.3025 15.6426C30.1495 15.7956 29.9679 15.9169 29.7679 15.9997C29.568 16.0825 29.3538 16.1251 29.1374 16.1251C28.921 16.1251 28.7068 16.0825 28.5069 15.9997C28.307 15.9169 28.1253 15.7956 27.9723 15.6426C27.8193 15.4895 27.6979 15.3079 27.6151 15.108C27.5323 14.9081 27.4897 14.6938 27.4897 14.4775C27.4897 14.0405 27.6633 13.6214 27.9723 13.3124C28.2813 13.0034 28.7004 12.8298 29.1374 12.8298C29.5744 12.8298 29.9935 13.0034 30.3025 13.3124C30.6115 13.6214 30.7851 14.0405 30.7851 14.4775Z" fill="#5C4F90"/>
</svg>
