<svg width="25" height="25" viewBox="0 0 25 25" fill="none" xmlns="http://www.w3.org/2000/svg">
<path d="M15.2418 2.43771C15.2653 2.34967 15.3059 2.26712 15.3613 2.19478C15.4167 2.12244 15.4858 2.06173 15.5647 2.01612C15.6435 1.97051 15.7306 1.9409 15.821 1.92897C15.9113 1.91705 16.0031 1.92304 16.0911 1.94662C17.7656 2.38342 19.2934 3.25876 20.517 4.48246C21.7407 5.70616 22.616 7.23398 23.0528 8.90852C23.0764 8.99653 23.0824 9.08833 23.0705 9.17866C23.0585 9.26899 23.0289 9.35609 22.9833 9.43496C22.9377 9.51384 22.877 9.58295 22.8047 9.63835C22.7323 9.69375 22.6498 9.73435 22.5617 9.75782C22.5033 9.77338 22.4431 9.78115 22.3826 9.78093C22.2299 9.78102 22.0814 9.73066 21.9602 9.63768C21.839 9.5447 21.7519 9.4143 21.7125 9.26673C21.3375 7.82835 20.5857 6.51598 19.5346 5.46489C18.4836 4.4138 17.1712 3.66201 15.7329 3.287C15.6449 3.26353 15.5623 3.22293 15.49 3.16754C15.4176 3.11214 15.3569 3.04302 15.3113 2.96415C15.2657 2.88527 15.2361 2.79818 15.2242 2.70784C15.2122 2.61751 15.2182 2.52572 15.2418 2.43771ZM14.8085 6.98461C16.4897 7.43295 17.5666 8.50988 18.015 10.1911C18.0544 10.3387 18.1415 10.4691 18.2627 10.5621C18.3839 10.6551 18.5324 10.7054 18.6851 10.7053C18.7456 10.7055 18.8058 10.6978 18.8642 10.6822C18.9523 10.6587 19.0348 10.6182 19.1071 10.5628C19.1795 10.5074 19.2402 10.4382 19.2858 10.3594C19.3314 10.2805 19.361 10.1934 19.3729 10.1031C19.3849 10.0127 19.3789 9.92094 19.3553 9.83292C18.7776 7.67098 17.3286 6.22198 15.1667 5.64423C15.0787 5.62071 14.9869 5.61475 14.8966 5.6267C14.8063 5.63865 14.7192 5.66828 14.6404 5.71388C14.4811 5.80597 14.3649 5.95757 14.3174 6.13532C14.2699 6.31306 14.295 6.5024 14.3871 6.66167C14.4792 6.82094 14.6308 6.93711 14.8085 6.98461ZM23.9876 18.193C23.7896 19.7035 23.0484 21.0902 21.9024 22.094C20.7564 23.0977 19.2841 23.6498 17.7607 23.647C8.7134 23.647 1.35304 16.2864 1.35304 7.23882C1.35012 5.71592 1.90168 4.24403 2.90469 3.0981C3.9077 1.95217 5.29356 1.21056 6.8034 1.01182C7.15097 0.969578 7.50285 1.04125 7.80621 1.21606C8.10957 1.39087 8.34803 1.65939 8.48577 1.98128L10.9238 7.4237C11.0315 7.67009 11.076 7.93942 11.0534 8.20734C11.0308 8.47527 10.9418 8.73334 10.7944 8.95821C10.7795 8.9811 10.7633 9.00309 10.7459 9.02407L8.31129 11.9198C8.29651 11.9498 8.28883 11.9828 8.28883 12.0162C8.28883 12.0497 8.29651 12.0827 8.31129 12.1127C9.19639 13.9246 11.096 15.8103 12.9332 16.6943C12.9639 16.7083 12.9974 16.7149 13.0311 16.7137C13.0648 16.7125 13.0977 16.7035 13.1273 16.6874L15.9802 14.2608C16.0005 14.2431 16.0222 14.2269 16.0449 14.2123C16.2687 14.063 16.5263 13.972 16.7942 13.9473C17.0622 13.9227 17.332 13.9653 17.5793 14.0713L23.0378 16.5175C23.3554 16.6583 23.6192 16.8975 23.7903 17.1999C23.9614 17.5023 24.0305 17.8517 23.9876 18.1965V18.193ZM22.6137 18.022C22.6176 17.9737 22.6062 17.9253 22.5811 17.8839C22.556 17.8424 22.5185 17.8099 22.4739 17.7909L17.0143 15.3447C16.9845 15.3332 16.9525 15.3282 16.9206 15.3302C16.8887 15.3322 16.8576 15.3411 16.8294 15.3562L13.9777 17.7828C13.9569 17.8001 13.935 17.8163 13.913 17.8313C13.6804 17.9864 13.4116 18.0786 13.1327 18.0989C12.8539 18.1191 12.5745 18.0667 12.3219 17.9469C10.2005 16.9219 8.08598 14.827 7.06107 12.7251C6.94053 12.474 6.88687 12.196 6.90529 11.9181C6.92371 11.6401 7.01359 11.3717 7.16622 11.1386C7.1811 11.1155 7.19771 11.0935 7.21591 11.0728L9.64933 8.17709C9.66324 8.14683 9.67043 8.11391 9.67043 8.08061C9.67043 8.0473 9.66324 8.01439 9.64933 7.98412L7.21591 2.53708C7.19985 2.49336 7.17095 2.45552 7.13302 2.42851C7.09508 2.4015 7.04986 2.38658 7.0033 2.38571H6.97672C5.80154 2.54204 4.72343 3.12077 3.94372 4.01385C3.164 4.90692 2.73599 6.05326 2.73961 7.23882C2.73961 15.5215 9.47832 22.2604 17.7607 22.2604C18.9465 22.2639 20.0929 21.8358 20.986 21.0558C21.8791 20.2758 22.4577 19.1974 22.6137 18.022Z" fill="#5C4F90" stroke="#5C4F90"/>
</svg>
