<svg width="36" height="36" viewBox="0 0 36 36" fill="none" xmlns="http://www.w3.org/2000/svg">
<circle cx="18" cy="18" r="17.5" transform="matrix(-1 0 0 1 36 0)" fill="white" stroke="#D0D5DD"/>
<g clip-path="url(#clip0_5572_33124)">
<path d="M30 18C30 11.3726 24.6274 6 18 6C11.3726 6 6 11.3725 6 18C6 23.9895 10.3882 28.954 16.125 29.8542V21.4688H13.0781V18H16.125V15.3563C16.125 12.3488 17.9166 10.6875 20.6575 10.6875C21.9705 10.6875 23.3438 10.9219 23.3438 10.9219V13.875H21.8306C20.3398 13.875 19.875 14.8 19.875 15.7491V18H23.2031L22.6711 21.4688H19.875V29.8542C25.6117 28.954 30 23.9896 30 18Z" fill="#1877F2"/>
<path d="M22.6711 21.4688L23.2031 18H19.875V15.7491C19.875 14.7999 20.3399 13.875 21.8306 13.875H23.3438V10.9219C23.3438 10.9219 21.9705 10.6875 20.6575 10.6875C17.9166 10.6875 16.125 12.3488 16.125 15.3563V18H13.0781V21.4688H16.125V29.8542C16.7453 29.9514 17.3722 30.0002 18 30C18.6278 30.0002 19.2547 29.9514 19.875 29.8542V21.4688H22.6711Z" fill="white"/>
</g>
<defs>
<clipPath id="clip0_5572_33124">
<rect width="24" height="24" fill="white" transform="translate(6 6)"/>
</clipPath>
</defs>
</svg>
