<svg width="65" height="45" viewBox="0 0 65 45" fill="none" xmlns="http://www.w3.org/2000/svg">
<g clip-path="url(#clip0_160_747)">
<path d="M0.825715 20.3585C1.39741 21.5582 2.09653 22.7277 3.38652 23.6285C5.13581 24.8499 8.01688 25.6015 13.2446 25.1167L13.2446 25.1167C15.8796 24.873 17.6911 24.912 18.9255 25.1146C20.1524 25.316 20.8516 25.6862 21.2026 26.1473L0.825715 20.3585ZM0.825715 20.3585C1.14296 20.6104 1.53572 20.8719 2.00552 21.097C3.49029 21.8085 5.7115 22.1404 8.68699 20.7322L8.68708 20.7322C10.4156 19.9132 11.8197 19.0708 13.0353 18.3416C13.6459 17.9753 14.209 17.6375 14.7417 17.3455C16.3465 16.4661 17.7157 15.9741 19.438 16.2139C19.6322 16.245 19.8313 16.22 20.0118 16.1417C20.1932 16.063 20.3482 15.9338 20.4585 15.7696C20.5688 15.6053 20.6298 15.4129 20.6342 15.2151C20.6387 15.0173 20.5865 14.8223 20.4837 14.6532L20.4837 14.6532L20.481 14.6489C19.6637 13.3635 17.8461 11.7328 13.7632 11.0896C13.877 10.9708 14.0226 10.8264 14.1989 10.6664C14.6879 10.2226 15.4108 9.6603 16.3452 9.18699C18.2075 8.2436 20.9183 7.64788 24.3218 9.0696L24.3222 9.06978C24.6932 9.22391 25.0749 9.41723 25.4574 9.61318C25.483 9.62633 25.5087 9.63949 25.5344 9.65265C25.8877 9.8338 26.2419 10.0155 26.5746 10.1587C26.9288 10.3113 27.2815 10.4307 27.6026 10.4545C27.9318 10.479 28.2518 10.4034 28.4939 10.1406C28.6351 9.99074 28.7154 9.81487 28.7074 9.61828C28.6996 9.43065 28.6126 9.26341 28.5031 9.12064C28.2886 8.84095 27.9134 8.56212 27.5117 8.28374C27.3913 8.20028 27.2671 8.11598 27.1407 8.03016C26.8307 7.81972 26.5072 7.60016 26.1929 7.3615C25.7521 7.02691 25.3496 6.66937 25.0598 6.27907L25.0597 6.27903C23.9346 4.76427 22.8305 3.75168 21.7367 3.20378C20.8369 2.75306 19.9495 2.6199 19.0791 2.77446C19.6475 1.91554 20.6757 1.02275 22.3717 0.563861C24.4024 0.0144005 27.4083 0.0828845 31.7435 1.61248L31.7436 1.61254C36.2076 3.18419 37.9993 3.58354 39.3311 3.57297C39.8725 3.56867 40.3372 3.49606 40.8558 3.41504C40.9728 3.39676 41.0926 3.37805 41.2166 3.3596C41.8755 3.26156 42.6856 3.16472 43.9062 3.15952L43.9164 3.16971L44.0185 3.17091C49.477 3.23524 54.6902 5.45425 58.5277 9.34692C62.3652 13.2396 64.5174 18.4921 64.5174 23.9654C64.5174 29.4387 62.3652 34.6912 58.5277 38.5839C54.6906 42.4762 49.478 44.6952 44.0201 44.7599C41.4051 44.7599 34.0376 44.7568 27.143 40.2295C24.1241 38.2436 22.0555 36.0705 20.3753 34.3053C20.0735 33.9883 19.7842 33.6844 19.5042 33.3971C18.5906 32.4598 17.7605 31.6833 16.9128 31.2285C16.2461 30.8708 15.5658 30.7107 14.8285 30.8176C14.8454 30.7953 14.8628 30.7724 14.8807 30.7491C15.1593 30.3869 15.5638 29.9108 16.0679 29.4526C17.0842 28.5289 18.4589 27.7193 20.0027 27.9766L20.0028 27.9766C20.518 28.0624 20.977 27.8194 21.2271 27.4548C21.4795 27.0869 21.5299 26.5759 21.203 26.1479L0.825715 20.3585Z" fill="#67CB93" stroke="white" stroke-width="0.5"/>
<path d="M48.1092 41.845C57.9695 39.5755 64.1278 29.7221 61.864 19.8367C59.6003 9.95134 49.7717 3.77746 39.9114 6.04696C30.051 8.31646 23.8928 18.1699 26.1565 28.0553C28.4203 37.9406 38.2488 44.1145 48.1092 41.845Z" fill="white"/>
<path d="M21.7816 5.58781C21.7816 5.58781 19.3566 5.10216 16.2702 6.72197C13.1838 8.34178 11.0981 6.1229 11.0981 6.1229C11.0981 6.1229 12.2294 7.07385 14.9793 5.52092C17.7293 3.96799 21.7816 5.58781 21.7816 5.58781Z" fill="#67CB93" stroke="white" stroke-width="0.5"/>
<path d="M15.6094 27.5524C15.6094 27.5524 13.7935 27.151 11.7514 29.2827C9.70925 31.4143 7.92529 28.9424 7.92529 28.9424C7.92529 28.9424 8.85643 29.9835 10.6723 27.9566C12.4882 25.9296 15.6094 27.5524 15.6094 27.5524Z" fill="#67CB93" stroke="white" stroke-width="0.5"/>
<path d="M15.357 14.9786C15.357 14.9786 12.5694 14.2778 9.19875 17.1655C5.82808 20.0533 3.27832 16.4007 3.27832 16.4007C3.27832 16.4007 4.63297 17.9507 7.62944 15.1938C10.6259 12.4369 15.357 14.9786 15.357 14.9786Z" fill="#67CB93" stroke="white" stroke-width="0.5"/>
<path d="M38.715 32.7509H29.2974L29.8272 32.2266H39.0244L38.715 32.7509Z" fill="#FFBE9D"/>
<path d="M46.625 21.6878C46.6842 21.659 46.7405 21.6246 46.7932 21.5851C46.8947 21.5173 47.033 21.4223 47.1799 21.3147L47.2563 21.2604L47.2283 21.2536C47.3095 21.3961 47.382 21.5211 47.4362 21.6093C47.4632 21.659 47.4956 21.7055 47.5328 21.7479C47.5154 21.6949 47.4917 21.6441 47.4623 21.5967C47.4149 21.5047 47.3453 21.3767 47.2689 21.2342L47.2573 21.2148L47.2399 21.2274L47.1625 21.2817C47.0117 21.3893 46.8725 21.4882 46.7758 21.5618C46.7212 21.5983 46.6706 21.6405 46.625 21.6878Z" fill="#FFBE3D"/>
<path d="M57.7645 32.3984C57.8868 30.6474 56.57 29.1286 54.8234 29.006C53.0769 28.8835 51.5619 30.2036 51.4396 31.9546C51.3174 33.7055 52.6341 35.2244 54.3807 35.3469C56.1273 35.4695 57.6422 34.1494 57.7645 32.3984Z" fill="#FFBE3D"/>
<path d="M51.3023 32.1172V32.1259C51.2986 32.9613 51.6239 33.7644 52.2076 34.3606C52.7913 34.9568 53.586 35.298 54.4192 35.31C55.2524 35.322 56.0567 35.0039 56.6572 34.4247C57.2577 33.8455 57.6059 33.0522 57.6262 32.217C57.6262 32.217 57.6262 32.2112 57.6262 32.2093L51.3023 32.1172Z" fill="#FFBE3D"/>
<path d="M52.2434 32.1389C52.2364 32.5801 52.3601 33.0134 52.5989 33.3841C52.8376 33.7547 53.1808 34.046 53.5848 34.221C53.9888 34.396 54.4355 34.4469 54.8684 34.3673C55.3012 34.2876 55.7008 34.0809 56.0164 33.7735C56.3321 33.466 56.5496 33.0715 56.6415 32.64C56.7334 32.2085 56.6955 31.7594 56.5326 31.3495C56.3697 30.9396 56.0891 30.5874 55.7264 30.3375C55.3637 30.0875 54.9352 29.9511 54.4951 29.9455C53.9067 29.938 53.3393 30.1646 52.9172 30.5758C52.4952 30.9869 52.2529 31.549 52.2434 32.1389V32.1389Z" fill="#FAFAFA"/>
<path d="M54.4949 29.9455C53.9064 29.938 53.339 30.1646 52.9169 30.5758C52.4949 30.9869 52.2526 31.549 52.2432 32.1389L56.6828 32.2029C56.6902 31.613 56.4642 31.0441 56.0541 30.621C55.644 30.1978 55.0833 29.9549 54.4949 29.9455Z" fill="#FFBE9D"/>
<path d="M53.1105 32.1531C53.1065 32.4216 53.182 32.6851 53.3275 32.9105C53.473 33.1359 53.6818 33.313 53.9277 33.4193C54.1736 33.5257 54.4454 33.5565 54.7087 33.5079C54.9721 33.4594 55.2152 33.3336 55.4072 33.1465C55.5992 32.9594 55.7316 32.7194 55.7875 32.4569C55.8435 32.1944 55.8205 31.9211 55.7215 31.6717C55.6225 31.4222 55.4519 31.2079 55.2314 31.0556C55.0108 30.9034 54.7502 30.8202 54.4824 30.8165C54.1237 30.8116 53.7778 30.9496 53.5206 31.2002C53.2633 31.4509 53.1158 31.7936 53.1105 32.1531V32.1531Z" fill="#FFBE3D"/>
<path d="M52.9627 27.5202C52.9627 27.5202 56.2005 26.5383 57.5405 30.0645L50.7651 32.1687L52.9627 27.5202Z" fill="#5C4F90"/>
<path d="M31.7894 32.1252C31.7805 32.7522 31.9572 33.3678 32.2972 33.8941C32.6373 34.4204 33.1254 34.8338 33.6998 35.082C34.2742 35.3302 34.9091 35.402 35.5243 35.2885C36.1394 35.1749 36.7071 34.881 37.1557 34.444C37.6042 34.0069 37.9134 33.4463 38.0441 32.8331C38.1748 32.2199 38.1212 31.5816 37.8901 30.9989C37.6589 30.4162 37.2606 29.9153 36.7456 29.5596C36.2305 29.2038 35.6217 29.0092 34.9963 29.0003C34.581 28.9943 34.1687 29.0704 33.7827 29.2242C33.3968 29.378 33.0449 29.6065 32.7471 29.8967C32.4492 30.1869 32.2114 30.5331 32.0471 30.9154C31.8827 31.2978 31.7952 31.7089 31.7894 32.1252V32.1252Z" fill="#FFBE3D"/>
<path d="M31.7901 32.1172V32.1259C31.7864 32.9613 32.1117 33.7644 32.6954 34.3606C33.2791 34.9568 34.0738 35.298 34.907 35.31C35.7402 35.322 36.5445 35.0039 37.145 34.4247C37.7455 33.8455 38.0937 33.0522 38.114 32.217C38.114 32.217 38.114 32.2112 38.114 32.2093L31.7901 32.1172Z" fill="#FFBE3D"/>
<path d="M32.7322 32.1389C32.7252 32.5802 32.8489 33.0136 33.0878 33.3844C33.3267 33.7551 33.67 34.0464 34.0742 34.2213C34.4783 34.3962 34.9252 34.447 35.3582 34.3671C35.7911 34.2872 36.1907 34.0802 36.5062 33.7725C36.8218 33.4647 37.0391 33.0699 37.1306 32.6382C37.2222 32.2065 37.1839 31.7573 37.0205 31.3475C36.8572 30.9376 36.5762 30.5856 36.2131 30.336C35.85 30.0864 35.4212 29.9505 34.981 29.9455C34.3931 29.9387 33.8264 30.1657 33.405 30.5768C32.9835 30.9878 32.7416 31.5495 32.7322 32.1389V32.1389Z" fill="#FAFAFA"/>
<path d="M34.9807 29.9455C34.3923 29.938 33.8248 30.1646 33.4028 30.5758C32.9807 30.9869 32.7384 31.549 32.729 32.1389L37.1686 32.2029C37.1761 31.613 36.95 31.0441 36.5399 30.621C36.1298 30.1978 35.5691 29.9549 34.9807 29.9455Z" fill="#FFBE9D"/>
<path d="M33.5988 32.1531C33.5948 32.4216 33.6703 32.6851 33.8158 32.9105C33.9612 33.1359 34.1701 33.313 34.416 33.4193C34.6619 33.5257 34.9337 33.5565 35.197 33.5079C35.4604 33.4594 35.7034 33.3336 35.8955 33.1465C36.0875 32.9594 36.2199 32.7194 36.2758 32.4569C36.3318 32.1944 36.3088 31.9211 36.2098 31.6717C36.1108 31.4222 35.9402 31.2079 35.7196 31.0556C35.4991 30.9034 35.2384 30.8202 34.9707 30.8165C34.612 30.8116 34.2661 30.9496 34.0089 31.2002C33.7516 31.4509 33.6041 31.7936 33.5988 32.1531V32.1531Z" fill="#FFBE3D"/>
<path d="M39.4497 30.8984C39.4275 30.9072 37.7839 30.6406 37.7839 30.6406C37.6949 30.7573 37.5816 30.853 37.4518 30.9212C37.322 30.9893 37.179 31.0282 37.0327 31.0351C36.3221 31.069 35.626 31.101 35.0237 31.132C34.755 31.1444 34.5022 31.2627 34.3202 31.4611C34.1382 31.6595 34.0418 31.9221 34.052 32.1914V32.1914C34.0629 32.4481 34.1697 32.6914 34.3511 32.8729C34.5325 33.0544 34.7753 33.1609 35.0314 33.1714L38.5332 33.309C39.1133 33.3323 39.8751 32.9814 40.2347 32.5336L39.4497 30.8984Z" fill="#5C4F90"/>
<path d="M30.8466 29.4934C30.8466 29.4934 30.6957 26.4044 33.5923 25.7598V25.3643H43.738V26.3084C43.738 26.3084 42.2491 28.1064 42.7354 29.599C43.2217 31.0917 43.3735 31.2468 43.3735 31.2468H49.1482C49.6035 30.6043 49.8573 29.8402 49.8772 29.0524C49.9082 27.7429 49.3648 25.502 48.9597 24.0704C48.5914 22.7677 48.3584 21.6792 48.3584 21.6792L50.0899 21.0977C50.0899 21.0977 53.2959 25.2994 53.4264 25.5359C53.5569 25.7724 54.0065 26.3229 53.8982 27.5306C53.7899 28.7383 50.9127 32.4661 50.1537 32.8868C49.3948 33.3074 48.7093 33.3336 48.0325 33.4392C47.4409 33.5304 43.0699 33.4693 41.9262 33.4518C41.5286 33.4497 41.1388 33.3413 40.797 33.1378C40.4547 32.9304 40.1975 32.5863 39.9143 32.0212L39.3119 30.8397L30.8466 29.4934Z" fill="#5C4F90"/>
<path d="M31.6225 29.2852L30.3444 31.2886C30.3078 31.3446 30.2901 31.4109 30.294 31.4777C30.2978 31.5446 30.323 31.6084 30.3658 31.6598C30.4086 31.7112 30.4668 31.7474 30.5317 31.7631C30.5966 31.7788 30.6648 31.7732 30.7263 31.7471C30.8853 31.6767 31.0304 31.5782 31.1546 31.4563C31.7395 30.898 32.7818 29.4296 32.7818 29.4296L31.6225 29.2852Z" fill="#5C4F90"/>
<path d="M40.7872 29.6408C40.7887 29.6309 40.7909 29.6212 40.794 29.6117C40.8005 29.5917 40.8092 29.5636 40.8201 29.5274C40.8509 29.4191 40.8732 29.3086 40.8868 29.1969C40.9314 28.7829 40.8646 28.3646 40.6935 27.9853C40.5772 27.724 40.4181 27.4842 40.2226 27.2758C39.9976 27.0381 39.7366 26.8376 39.4492 26.6816C39.1306 26.5092 38.7895 26.3819 38.436 26.3036C38.0548 26.221 37.6657 26.1807 37.2758 26.1834C36.8876 26.1865 36.5001 26.2149 36.1156 26.2687C35.7415 26.3201 35.3818 26.3821 35.0434 26.4626C34.4419 26.5902 33.8622 26.8051 33.3225 27.1004C32.9602 27.3021 32.629 27.5555 32.3393 27.8525C32.2368 27.9581 32.1643 28.0464 32.115 28.1064L32.0599 28.1753C32.0541 28.1833 32.0476 28.1907 32.0405 28.1976C32.1265 28.0706 32.2235 27.9515 32.3306 27.8418C32.6176 27.5388 32.9484 27.2807 33.3119 27.0761C33.8522 26.7748 34.4341 26.5557 35.0386 26.4257C35.378 26.3472 35.7376 26.2842 36.1127 26.2319C36.5003 26.1768 36.8911 26.1476 37.2826 26.1447C37.6745 26.1419 38.0656 26.1828 38.4485 26.2668C38.8056 26.3483 39.1499 26.4787 39.4714 26.6545C39.7627 26.8129 40.027 27.0168 40.2545 27.2583C40.4518 27.47 40.6117 27.7139 40.7273 27.9795C40.8989 28.3634 40.9634 28.7868 40.9139 29.2046C40.8985 29.317 40.8736 29.4279 40.8395 29.5361L40.8095 29.6195C40.8025 29.627 40.7951 29.6341 40.7872 29.6408V29.6408Z" fill="#FFBE3D"/>
<path d="M40.2012 28.9498C40.1964 28.9498 40.2177 28.9004 40.2399 28.8122C40.2685 28.6848 40.2721 28.5532 40.2506 28.4245C40.221 28.2353 40.1574 28.053 40.063 27.8865C40.0092 27.787 39.9464 27.6925 39.8754 27.6045C39.7999 27.5098 39.7147 27.4234 39.6212 27.3466C39.4398 27.1977 39.2363 27.0783 39.0179 26.9929C38.8388 26.9238 38.6532 26.8731 38.4639 26.8417C38.3358 26.8201 38.2068 26.8052 38.0772 26.7971C38.0293 26.7967 37.9815 26.7931 37.9341 26.7864C37.9466 26.7847 37.9593 26.7847 37.9718 26.7864C37.996 26.7864 38.0317 26.7864 38.0781 26.7864C38.2076 26.7884 38.3368 26.7991 38.4649 26.8184C38.657 26.8464 38.8456 26.8948 39.0275 26.9628C39.2507 27.0481 39.4586 27.1689 39.6434 27.3205C39.7382 27.4001 39.8241 27.4898 39.8996 27.588C39.9727 27.6789 40.0374 27.7762 40.093 27.8788C40.1882 28.0499 40.2508 28.2372 40.2776 28.4312C40.2964 28.5624 40.2878 28.6961 40.2525 28.8238C40.2435 28.8573 40.2312 28.8897 40.2158 28.9207C40.2117 28.9308 40.2069 28.9405 40.2012 28.9498V28.9498Z" fill="#F5F5F5"/>
<g opacity="0.4">
<path d="M38.2163 26.2422C38.7627 26.343 39.2826 26.5551 39.7439 26.8654C40.2078 27.1745 40.5654 27.6196 40.7677 28.14C40.9698 28.6624 40.9398 29.3545 40.7261 29.7877L41.4435 29.8469C41.6852 29.0404 41.4222 28.0499 40.8422 27.4179C40.51 27.0497 40.105 26.755 39.6529 26.5525C39.2007 26.3501 38.7115 26.2444 38.2163 26.2422" fill="#333333"/>
</g>
<path d="M43.7327 25.7235C43.7327 25.7351 41.452 25.7438 38.6395 25.7438C35.8271 25.7438 33.5464 25.7351 33.5464 25.7235C33.5464 25.7119 35.8271 25.7031 38.6395 25.7031C41.452 25.7031 43.7327 25.7128 43.7327 25.7235Z" fill="#FFBE3D"/>
<path d="M43.7375 25.3633C43.8404 25.2319 43.9041 25.074 43.9212 24.9078C43.9367 24.6519 43.8245 24.332 43.5471 24.332H40.0433C39.9083 24.332 39.7746 24.3587 39.6498 24.4106C39.5251 24.4624 39.4117 24.5384 39.3163 24.6341C39.2208 24.7299 39.1452 24.8436 39.0936 24.9687C39.042 25.0939 39.0155 25.2279 39.0156 25.3633H43.7375Z" fill="#5C4F90"/>
<path d="M48.3575 21.6772L47.7475 20.4035C47.666 20.2288 47.6525 20.0298 47.7096 19.8456C47.7666 19.6613 47.8901 19.505 48.0559 19.4071L49.8774 18.3177C49.9726 18.2606 50.0816 18.2304 50.1925 18.2305H50.586L50.7446 20.8048L50.1365 21.0433L50.5232 21.6694L48.3575 21.6772Z" fill="#5C4F90"/>
<path d="M50.5923 18.3242C50.5923 18.3242 51.2159 18.4677 51.2942 19.4311C51.3725 20.3946 50.745 20.6911 50.745 20.6911L50.5923 18.3242Z" fill="white"/>
<path d="M50.5916 18.3232C50.5959 18.34 50.5982 18.3573 50.5984 18.3746L50.61 18.5132C50.6206 18.6392 50.6332 18.8098 50.6496 19.0191C50.6825 19.4456 50.726 20.032 50.7686 20.6921L50.7328 20.6708C50.7998 20.634 50.8613 20.588 50.9155 20.5341C51.039 20.4143 51.1331 20.2673 51.1901 20.1047C51.2441 19.9531 51.2731 19.7937 51.2761 19.6327C51.2862 19.3582 51.2336 19.085 51.1224 18.834C51.0445 18.6662 50.9234 18.5224 50.7715 18.4172C50.7146 18.3795 50.6544 18.3471 50.5916 18.3203C50.6095 18.3215 50.6271 18.3254 50.6438 18.3319C50.692 18.3492 50.7383 18.3713 50.7821 18.3979C50.9429 18.4993 51.0719 18.644 51.1543 18.8156C51.2733 19.0704 51.3309 19.3496 51.3225 19.6308C51.3208 19.796 51.2917 19.9597 51.2365 20.1154C51.1759 20.2855 51.0766 20.4392 50.9464 20.5641C50.889 20.6213 50.8239 20.6703 50.7531 20.7095L50.7192 20.727V20.6882C50.6767 20.0165 50.6438 19.4185 50.6226 18.993C50.6129 18.7865 50.6042 18.6179 50.5984 18.4928L50.5926 18.3601C50.5913 18.3478 50.591 18.3355 50.5916 18.3232V18.3232Z" fill="#FFBE3D"/>
<path d="M48.3483 19.9362C48.3483 19.9362 46.6883 20.7252 46.4852 20.8502C46.3451 20.9403 46.2242 21.0974 46.3344 21.3746C46.5229 21.8456 47.3012 21.4027 47.3012 21.4027L48.8481 20.6273C48.8481 20.6273 49.4417 20.3452 49.2223 19.9943C48.9728 19.6047 48.3483 19.9362 48.3483 19.9362Z" fill="#FFBE3D"/>
<path d="M48.1381 18.9029C48.4099 18.9029 48.6302 18.5137 48.6302 18.0335C48.6302 17.5533 48.4099 17.1641 48.1381 17.1641C47.8663 17.1641 47.646 17.5533 47.646 18.0335C47.646 18.5137 47.8663 18.9029 48.1381 18.9029Z" fill="#FFBE3D"/>
<path d="M48.2192 18.6342L48.4899 19.5735C48.5394 19.5486 48.5788 19.5076 48.6016 19.4571C48.6245 19.4067 48.6295 19.3499 48.6156 19.2963C48.548 18.9745 48.5093 18.7457 48.4348 18.4637C48.4261 18.4356 48.2192 18.6342 48.2192 18.6342" fill="#FFBE3D"/>
<g opacity="0.3">
<path d="M42.8683 30.0025C42.8413 29.9249 42.8142 29.8464 42.7881 29.765C42.762 29.6836 42.7359 29.6109 42.7156 29.5353C42.6839 29.4193 42.6613 29.301 42.6479 29.1815C42.1916 31.0435 42.8877 32.3549 44.0846 32.4469C45.8316 32.5817 47.9624 32.6796 48.8219 32.4528C50.393 32.0399 50.9692 30.7265 51.1065 30.5142C51.2438 30.302 52.4939 28.0077 51.7282 25.8036C50.9624 23.5995 49.6283 21.2578 49.6273 21.2578L48.3559 21.6833C48.3559 21.6833 48.5889 22.7718 48.9573 24.0745C49.3624 25.5061 49.9057 27.747 49.8748 29.0565C49.8549 29.8443 49.6011 30.6084 49.1458 31.2509H43.373C43.373 31.2509 43.2492 31.1268 42.8683 30.0064" fill="#333333"/>
</g>
<path d="M30.6154 29.0084L30.656 28.5664L41.1942 29.7838C41.3351 29.8005 41.4711 29.8459 41.5939 29.9171C41.7167 29.9884 41.8237 30.084 41.9083 30.1981C41.9929 30.3123 42.0534 30.4426 42.0861 30.581C42.1187 30.7194 42.1228 30.8631 42.0982 31.0031L42.0508 31.2706L31.1442 29.6811C30.9869 29.6581 30.8444 29.5756 30.746 29.4505C30.6476 29.3253 30.6009 29.1671 30.6154 29.0084V29.0084Z" fill="#5C4F90"/>
<g opacity="0.3">
<path d="M30.6154 29.0123L30.656 28.5703L41.1942 29.7877C41.3351 29.8044 41.4711 29.8498 41.5939 29.921C41.7167 29.9923 41.8237 30.0879 41.9083 30.2021C41.9929 30.3162 42.0534 30.4465 42.0861 30.5849C42.1187 30.7233 42.1228 30.867 42.0982 31.007L42.0508 31.2745L31.1442 29.685C30.9869 29.662 30.8444 29.5795 30.746 29.4544C30.6476 29.3292 30.6009 29.171 30.6154 29.0123V29.0123Z" fill="#333333"/>
</g>
<g opacity="0.3">
<path d="M51.1084 31.9646C51.1084 31.9646 53.4287 29.4068 53.9073 27.3946C54.1478 27.3934 54.388 27.4112 54.6256 27.4479C54.6256 27.4479 53.2528 31.1873 51.1084 31.9646Z" fill="#333333"/>
</g>
<path d="M53.8733 26.4961C53.8796 26.5173 53.8838 26.539 53.8858 26.561C53.8916 26.6037 53.9042 26.6657 53.9129 26.7481C53.9341 26.9793 53.928 27.2123 53.8945 27.4421C53.8409 27.7833 53.7376 28.1147 53.5881 28.4259C53.4045 28.804 53.1995 29.1713 52.9741 29.526C52.5698 30.1743 52.1156 30.7901 51.6158 31.3676C51.4272 31.5915 51.2716 31.7698 51.1623 31.892L51.0376 32.0325C51.0236 32.0497 51.008 32.0656 50.9912 32.08C51.0028 32.0614 51.0161 32.0439 51.0309 32.0277L51.1507 31.8823L51.5945 31.3492C52.0863 30.7685 52.5357 30.153 52.9393 29.5076C53.1639 29.1537 53.3695 28.7881 53.5552 28.4123C53.7041 28.1056 53.8089 27.7793 53.8665 27.4431C53.9027 27.2152 53.9128 26.984 53.8965 26.7539C53.8916 26.6725 53.881 26.6095 53.8781 26.5668C53.8745 26.5434 53.8729 26.5198 53.8733 26.4961V26.4961Z" fill="#FFBE3D"/>
<path d="M49.8624 31.9478C49.6058 31.7336 49.3669 31.4989 49.1479 31.2461C49.2805 31.3481 49.4046 31.4606 49.5192 31.5824C49.6434 31.6946 49.7582 31.8168 49.8624 31.9478V31.9478Z" fill="#FFBE3D"/>
<path d="M42.9771 31.8704C43.014 31.7508 43.0716 31.6386 43.1472 31.5389C43.2123 31.4323 43.2946 31.3373 43.3908 31.2578C43.4005 31.2656 43.2942 31.3935 43.181 31.5612C43.0679 31.7289 42.9877 31.8752 42.9771 31.8704Z" fill="#FFBE3D"/>
<path d="M38.5191 33.3471C38.6459 33.231 38.7527 33.0948 38.8353 32.9439C38.922 32.779 38.975 32.5984 38.9909 32.4127C39.0145 32.1864 38.9752 31.9579 38.8772 31.7527C38.7793 31.5474 38.6266 31.3733 38.436 31.2496C38.2822 31.1448 38.1089 31.0723 37.9265 31.0364C37.7576 31.0055 37.5847 31.0032 37.415 31.0296C37.415 31.0296 37.4266 31.0247 37.4498 31.0189C37.4816 31.0101 37.5139 31.0036 37.5465 30.9996C37.6731 30.982 37.8018 30.985 37.9274 31.0083C38.1147 31.0415 38.2931 31.1131 38.4515 31.2186C38.6499 31.3445 38.8088 31.524 38.9099 31.7365C39.011 31.9489 39.0501 32.1857 39.0228 32.4195C39.005 32.6095 38.9481 32.7936 38.8556 32.9604C38.7945 33.0727 38.7162 33.1747 38.6236 33.2628C38.5916 33.2948 38.5617 33.3141 38.5443 33.3296C38.5366 33.3364 38.5282 33.3423 38.5191 33.3471Z" fill="#FFBE3D"/>
<path d="M34.6699 32.5364C34.6438 32.4141 34.6311 32.2892 34.6322 32.1642C34.6193 32.0395 34.6193 31.9138 34.6322 31.7891C34.6584 31.9117 34.671 32.0368 34.6699 32.1622C34.6833 32.2866 34.6833 32.412 34.6699 32.5364V32.5364Z" fill="#FFBE3D"/>
<path d="M34.9495 32.5383C34.914 32.4169 34.8914 32.2922 34.8818 32.1661C34.8596 32.0417 34.8502 31.9154 34.8538 31.7891C34.8899 31.9103 34.9126 32.0351 34.9214 32.1613C34.9448 32.2855 34.9542 32.412 34.9495 32.5383Z" fill="#FFBE3D"/>
<path d="M39.2967 25.3641C39.2967 25.3748 38.0157 25.3845 36.435 25.3845C34.8543 25.3845 33.5723 25.3748 33.5723 25.3641C33.5723 25.3534 34.8543 25.3438 36.435 25.3438C38.0157 25.3438 39.2967 25.3525 39.2967 25.3641Z" fill="#FFBE3D"/>
<path d="M32.5858 34.3219C32.5733 34.3119 32.562 34.3005 32.552 34.2879C32.5317 34.2647 32.4988 34.2308 32.4621 34.1833C32.3537 34.0519 32.2567 33.9115 32.1721 33.7636C31.8924 33.2736 31.7464 32.7184 31.7486 32.1539C31.7508 31.5894 31.9012 31.0354 32.1846 30.5476C32.2691 30.4002 32.3662 30.2604 32.4747 30.1298C32.5114 30.0823 32.5452 30.0494 32.5655 30.0261C32.576 30.0136 32.5876 30.0023 32.6003 29.9922C32.5922 30.006 32.5828 30.0189 32.5723 30.031C32.553 30.0562 32.522 30.0911 32.4872 30.1395C32.3844 30.2727 32.2919 30.4137 32.2107 30.5611C31.9373 31.0472 31.7925 31.5953 31.7901 32.1533C31.7877 32.7113 31.9279 33.2607 32.1972 33.749C32.2777 33.8972 32.3692 34.0391 32.4708 34.1736C32.5046 34.223 32.5356 34.2569 32.5539 34.2831C32.5661 34.2947 32.5768 34.3077 32.5858 34.3219V34.3219Z" fill="#5C4F90"/>
<path d="M43.3916 33.0631C43.3916 33.0631 43.4805 35.1364 43.4825 35.2362L43.9214 35.5696L44.9743 35.307L44.8776 33.0156L43.3916 33.0631Z" fill="#FFBE9D"/>
<path d="M46.2922 14.8224L47.3934 15.4127L49.2351 14.0664L49.7707 14.993C49.7707 14.993 48.6492 16.0776 48.2509 16.4469C47.8526 16.8162 47.5915 17.013 47.3005 16.9558C47.0095 16.8986 45.3892 15.9962 45.3892 15.9962C45.3892 15.9962 45.861 14.8418 46.2922 14.8224Z" fill="#FFBE9D"/>
<path d="M47.3987 15.824C47.3987 15.824 47.4054 15.8308 47.4093 15.8424V15.8521H47.3851V15.8434V15.8143C47.3785 15.759 47.3749 15.7034 47.3745 15.6476C47.3654 15.5679 47.3723 15.4872 47.3948 15.4102C47.4219 15.4858 47.4321 15.5666 47.4248 15.6467C47.4248 15.7116 47.4248 15.7707 47.4199 15.8143V15.8434V15.8521C47.3697 15.8521 47.4054 15.8521 47.3948 15.8521V15.8415C47.3919 15.8308 47.3958 15.824 47.3987 15.824Z" fill="#67CB93" fill-opacity="0.2"/>
<path d="M49.4639 15.2452C49.5007 15.2568 49.8439 14.8856 49.8439 14.8856C49.8439 14.8856 50.4868 14.8739 50.6406 14.7886C50.7943 14.7034 51.0273 14.3854 51.0273 14.3854L50.7169 13.4375C50.4299 13.4563 50.1442 13.4919 49.8613 13.5441C49.6563 13.6013 49.1662 14.116 49.1662 14.116L48.9554 14.4446C48.9554 14.4446 48.8897 15.0678 49.4639 15.2452Z" fill="#FFBE9D"/>
<path d="M50.5508 14.8408C50.6296 14.8352 50.7081 14.8251 50.7858 14.8108C50.9404 14.7846 51.1 14.771 51.0951 14.6169C51.0956 14.5914 51.0905 14.566 51.0804 14.5426C51.0702 14.5192 51.0551 14.4983 51.0362 14.4812C51.0362 14.4812 51.1502 14.4337 51.1493 14.3474C51.149 14.3224 51.1428 14.2977 51.1312 14.2754C51.1197 14.2532 51.103 14.234 51.0826 14.2195C51.0826 14.2195 51.2402 14.1468 51.245 14.0189C51.2456 13.9716 51.2331 13.9251 51.2089 13.8845C51.1846 13.8439 51.1496 13.8109 51.1077 13.7892C51.1077 13.7892 51.5911 13.6506 51.6298 13.635C51.7671 13.5788 52.0291 13.4538 51.9198 13.351C51.8802 13.3132 51.8647 13.2716 51.5882 13.3055C51.3368 13.3355 50.9414 13.4286 50.9414 13.4286C50.9414 13.4286 50.603 13.4451 50.4251 13.4635C50.2047 13.4837 49.9863 13.523 49.7725 13.5808C49.5444 13.6864 49.3452 13.9869 49.3452 13.9869L49.847 14.8844L50.5508 14.8408Z" fill="#FFBE9D"/>
<path d="M50.9987 14.4782C50.9536 14.4721 50.908 14.4695 50.8624 14.4705H50.7145C50.6852 14.4682 50.6558 14.4682 50.6265 14.4705C50.5931 14.4747 50.5619 14.4897 50.5376 14.5131C50.5243 14.525 50.5146 14.5404 50.5094 14.5575C50.5043 14.5746 50.504 14.5928 50.5086 14.6101C50.5184 14.6404 50.5395 14.6657 50.5675 14.6808C50.5904 14.695 50.6147 14.7067 50.6401 14.7157L50.7039 14.7399C50.7445 14.7545 50.7764 14.7642 50.8005 14.77C50.8247 14.7758 50.8363 14.7787 50.8363 14.7768C50.8363 14.7748 50.788 14.7574 50.7106 14.7264C50.6652 14.7092 50.6213 14.6884 50.5791 14.6643C50.5558 14.6512 50.5382 14.6297 50.5298 14.6042C50.5267 14.5908 50.5272 14.5767 50.5315 14.5635C50.5358 14.5504 50.5435 14.5386 50.554 14.5296C50.575 14.5095 50.6017 14.4963 50.6304 14.4918C50.6587 14.4895 50.6872 14.4895 50.7155 14.4918H50.8634C50.9088 14.4909 50.9541 14.4864 50.9987 14.4782V14.4782Z" fill="#67CB93" fill-opacity="0.2"/>
<path d="M50.4704 13.8166C50.5207 13.7951 50.5651 13.7619 50.6 13.7197C50.6406 13.6834 50.6716 13.6374 50.6899 13.5859C50.685 13.5859 50.6454 13.6422 50.5845 13.7052C50.5236 13.7682 50.4665 13.8118 50.4704 13.8166Z" fill="#67CB93" fill-opacity="0.2"/>
<path d="M50.0623 13.5938C50.1904 13.6246 50.3069 13.692 50.3978 13.7876C50.4877 13.883 50.5627 13.9915 50.6202 14.1094C50.6685 14.2063 50.7101 14.3178 50.6569 14.4079C50.6245 14.4521 50.5771 14.4827 50.5236 14.4942C50.4702 14.5056 50.4144 14.497 50.3669 14.47C50.2741 14.4139 50.2011 14.3302 50.158 14.2306C50.1154 14.1312 50.0608 14.0375 49.9956 13.9514" fill="#FFBE9D"/>
<path d="M50.0024 13.9485C50.0024 13.9485 50.0198 13.9708 50.0479 14.0154C50.0833 14.0783 50.1156 14.143 50.1446 14.2092C50.1664 14.256 50.1923 14.3007 50.2219 14.343C50.2558 14.3926 50.3 14.4343 50.3515 14.4651C50.4101 14.4986 50.4791 14.5086 50.5448 14.4932C50.581 14.4851 50.6144 14.4673 50.6415 14.4419C50.6676 14.4155 50.6848 14.3816 50.6908 14.3449C50.6976 14.2729 50.6832 14.2004 50.6492 14.1365C50.6202 14.0779 50.5879 14.021 50.5526 13.9659C50.4946 13.8717 50.4214 13.7879 50.336 13.7178C50.2782 13.6708 50.2128 13.6341 50.1426 13.6093C50.1235 13.6023 50.1037 13.5971 50.0837 13.5938C50.0701 13.5938 50.0633 13.5938 50.0633 13.5938C50.0633 13.5938 50.0914 13.6015 50.1397 13.6199C50.2077 13.6475 50.2709 13.6854 50.3273 13.7324C50.4102 13.8027 50.4811 13.8862 50.5371 13.9795C50.5706 14.0341 50.6013 14.0904 50.6289 14.1482C50.6608 14.2075 50.6746 14.2749 50.6686 14.342C50.6636 14.3748 50.6488 14.4052 50.626 14.4293C50.6025 14.4516 50.5735 14.4673 50.5419 14.4748C50.4811 14.4901 50.4167 14.4815 50.3621 14.4506C50.3129 14.4213 50.2704 14.382 50.2374 14.3352C50.2078 14.2941 50.1817 14.2507 50.1591 14.2054C50.1273 14.1386 50.0915 14.0738 50.0517 14.0115C50.0372 13.9902 50.0237 13.9747 50.015 13.964C50.0063 13.9533 50.0024 13.9475 50.0024 13.9485Z" fill="#67CB93" fill-opacity="0.2"/>
<path d="M50.9838 14.4775C50.7855 14.4776 50.5874 14.488 50.3902 14.5085C50.3338 14.5189 50.2757 14.5139 50.222 14.494C50.1804 14.4736 50.1649 14.3689 50.1543 14.3243L50.8813 14.2109" fill="#FFBE9D"/>
<path d="M50.8817 14.2109C50.8629 14.2108 50.8441 14.2124 50.8256 14.2158L50.6709 14.2371L50.1527 14.3137H50.1421V14.3253C50.1498 14.3583 50.1566 14.3951 50.1682 14.431C50.1728 14.4459 50.1793 14.4603 50.1875 14.4736C50.1915 14.4804 50.1964 14.4866 50.202 14.492C50.2083 14.4977 50.2155 14.5023 50.2233 14.5056C50.2507 14.5164 50.2799 14.5216 50.3093 14.5211C50.3664 14.5211 50.4186 14.5134 50.4689 14.5095C50.5655 14.5008 50.6622 14.493 50.7357 14.4882C50.8092 14.4833 50.873 14.4814 50.9165 14.4794C50.9384 14.4811 50.9604 14.4811 50.9822 14.4794C50.9605 14.4758 50.9385 14.4742 50.9165 14.4746C50.873 14.4746 50.8111 14.4746 50.7347 14.4746C50.6584 14.4746 50.5675 14.4833 50.4669 14.4911C50.4167 14.4911 50.3635 14.5017 50.3103 14.5008C50.2835 14.5014 50.2568 14.4965 50.232 14.4862C50.2088 14.4785 50.1982 14.4513 50.1885 14.4252C50.1788 14.399 50.1711 14.3554 50.1634 14.3214L50.1547 14.334C50.3596 14.3021 50.5414 14.272 50.6709 14.2497L50.8247 14.2226C50.844 14.2203 50.863 14.2164 50.8817 14.2109V14.2109Z" fill="#67CB93" fill-opacity="0.2"/>
<path d="M51.0929 14.169L50.3359 14.3144C50.2828 14.3278 50.2279 14.332 50.1734 14.327C50.1464 14.3243 50.1204 14.3149 50.0978 14.2996C50.0752 14.2844 50.0566 14.2639 50.0439 14.2397C50.0328 14.2041 50.0336 14.1659 50.0464 14.1308C50.0591 14.0958 50.0831 14.0659 50.1145 14.0459C50.1792 14.0073 50.2514 13.9829 50.3262 13.9742C50.5563 13.9288 50.7826 13.8656 51.003 13.7852" fill="#FFBE9D"/>
<path d="M51.0018 13.7852C50.9942 13.7862 50.9868 13.7882 50.9796 13.791L50.9168 13.8113C50.8626 13.8278 50.7843 13.853 50.6867 13.8792C50.589 13.9053 50.4711 13.9354 50.3396 13.9616C50.2686 13.9709 50.1994 13.9911 50.1346 14.0217C50.0998 14.0399 50.0707 14.0674 50.0505 14.1011C50.0281 14.1362 50.0192 14.1782 50.0254 14.2194C50.0301 14.2398 50.0391 14.259 50.0517 14.2758C50.0644 14.2925 50.0804 14.3063 50.0988 14.3163C50.1332 14.3351 50.1718 14.3448 50.211 14.3444C50.2816 14.3392 50.3518 14.3285 50.4208 14.3124L50.7717 14.2426L51.0076 14.1942L51.0714 14.1796L51.0937 14.1729C51.086 14.1718 51.0782 14.1718 51.0705 14.1729L51.0057 14.1835L50.7688 14.2252L50.4169 14.2911C50.3492 14.3067 50.2803 14.3167 50.211 14.3212C50.1755 14.3217 50.1406 14.313 50.1095 14.296C50.0938 14.2875 50.08 14.2758 50.0692 14.2615C50.0584 14.2473 50.0507 14.231 50.0466 14.2136C50.0414 14.1778 50.0493 14.1412 50.0689 14.1108C50.0872 14.0806 50.1132 14.0559 50.1443 14.0391C50.2073 14.0093 50.2744 13.9894 50.3434 13.98C50.4749 13.9528 50.5929 13.9218 50.6905 13.8937C50.7882 13.8656 50.8665 13.8375 50.9197 13.8181L50.9806 13.7939L51.0018 13.7852Z" fill="#67CB93" fill-opacity="0.2"/>
<path d="M49.5791 14.3555C49.5791 14.3555 49.5897 14.3778 49.6187 14.4039C49.6576 14.4365 49.7032 14.46 49.7522 14.4727C49.801 14.486 49.8523 14.488 49.902 14.4786C49.9397 14.4708 49.961 14.4601 49.96 14.4572C49.8929 14.468 49.8245 14.4663 49.758 14.4524C49.6926 14.4321 49.6319 14.3991 49.5791 14.3555V14.3555Z" fill="#67CB93" fill-opacity="0.2"/>
<path d="M45.4834 19.7266C45.4834 19.7266 47.3203 20.0668 47.448 20.1017C47.5756 20.1366 48.1005 20.3847 48.1247 20.5436C48.1388 20.7528 48.1388 20.9626 48.1247 21.1717C48.1247 21.1717 48.028 21.2483 47.972 21.0952C47.9331 20.9463 47.9165 20.7924 47.9227 20.6386L47.6326 20.5262L47.7912 20.8092L47.8173 21.4722C47.8173 21.4722 47.6142 21.4538 47.5746 21.2948C47.5497 21.1848 47.5367 21.0723 47.5359 20.9595L47.3232 20.7792L47.4828 20.9953L47.5359 21.4722C47.5359 21.4722 47.3812 21.5226 47.3319 21.417C47.2966 21.2792 47.2791 21.1375 47.2797 20.9953L46.6803 20.785L46.2839 21.007L45.8537 20.7705C45.7935 20.7371 45.7414 20.6909 45.7009 20.6351C45.6605 20.5794 45.6328 20.5154 45.6197 20.4477L45.4834 19.7266Z" fill="#FFBE9D"/>
<path d="M41.8143 10.5757L41.8752 13.7888C41.88 14.0416 41.9801 14.2832 42.1553 14.465C42.3305 14.6468 42.5679 14.7553 42.8198 14.7687V14.7687C42.956 14.7758 43.0923 14.7547 43.2201 14.7069C43.3479 14.659 43.4646 14.5854 43.5629 14.4906C43.6612 14.3957 43.7391 14.2817 43.7917 14.1555C43.8443 14.0293 43.8705 13.8936 43.8688 13.7568C43.8688 13.4505 43.8591 13.2005 43.8591 13.2005C43.8591 13.2005 44.6383 13.12 44.6886 12.3456C44.7167 11.8978 44.6886 10.8781 44.6664 10.0969C44.6579 9.84125 44.5537 9.59818 44.3746 9.41605C44.1954 9.23393 43.9544 9.12611 43.6996 9.11408L43.2326 9.08984C43.0415 9.0918 42.8527 9.13205 42.6773 9.20822C42.5019 9.28439 42.3435 9.39494 42.2114 9.53338C42.0792 9.67182 41.976 9.83535 41.9078 10.0143C41.8396 10.1934 41.8078 10.3842 41.8143 10.5757Z" fill="#FFBE9D"/>
<path d="M43.8591 13.1946C43.5022 13.1748 43.1584 13.053 42.8682 12.8438C42.8682 12.8438 43.0876 13.4253 43.863 13.3904L43.8591 13.1946Z" fill="#EB996E"/>
<path d="M44.4832 10.8267C44.4697 10.8412 44.3866 10.7743 44.2696 10.7685C44.1526 10.7627 44.0607 10.818 44.0491 10.8024C44.0375 10.7869 44.0578 10.7705 44.0975 10.7443C44.1509 10.7117 44.2129 10.6962 44.2754 10.6997C44.3372 10.7027 44.3965 10.7254 44.4446 10.7646C44.4794 10.7937 44.491 10.8209 44.4832 10.8267Z" fill="#EC994B"/>
<path d="M43.3396 11.0783C43.3386 11.1073 43.3262 11.1347 43.3053 11.1547C43.2843 11.1746 43.2563 11.1855 43.2274 11.185C43.2133 11.1852 43.1993 11.1827 43.1862 11.1775C43.1731 11.1724 43.1611 11.1646 43.151 11.1548C43.1408 11.145 43.1327 11.1333 43.1271 11.1203C43.1214 11.1074 43.1184 11.0934 43.1182 11.0793C43.1192 11.0503 43.1315 11.0229 43.1525 11.003C43.1735 10.9831 43.2014 10.9722 43.2303 10.9727C43.2444 10.9723 43.2585 10.9747 43.2717 10.9799C43.2849 10.985 43.2969 10.9927 43.3071 11.0025C43.3172 11.0124 43.3253 11.0241 43.3309 11.0372C43.3365 11.0502 43.3394 11.0642 43.3396 11.0783Z" fill="#333333"/>
<path d="M44.4211 11.0783C44.4201 11.1073 44.4078 11.1347 44.3868 11.1547C44.3658 11.1746 44.3379 11.1855 44.309 11.185C44.2948 11.1854 44.2808 11.1829 44.2676 11.1778C44.2544 11.1727 44.2424 11.165 44.2322 11.1551C44.222 11.1453 44.2139 11.1335 44.2084 11.1205C44.2028 11.1075 44.1998 11.0935 44.1997 11.0793C44.2007 11.0503 44.213 11.0229 44.234 11.003C44.255 10.9831 44.283 10.9722 44.3119 10.9727C44.326 10.9723 44.34 10.9747 44.3532 10.9799C44.3664 10.985 44.3784 10.9927 44.3886 11.0025C44.3988 11.0124 44.4069 11.0241 44.4125 11.0372C44.418 11.0502 44.421 11.0642 44.4211 11.0783Z" fill="#333333"/>
<path d="M43.3355 10.7848C43.321 10.7983 43.2389 10.7314 43.1219 10.7256C43.0049 10.7198 42.9131 10.7751 42.9005 10.7596C42.8879 10.744 42.9102 10.7276 42.9498 10.7024C43.0029 10.6689 43.0651 10.653 43.1277 10.6568C43.1896 10.6598 43.2488 10.6826 43.2969 10.7218C43.3317 10.7518 43.3423 10.778 43.3355 10.7848Z" fill="#EC994B"/>
<path d="M43.7109 11.7298C43.7741 11.7134 43.839 11.705 43.9042 11.7046C43.9342 11.7046 43.9642 11.6988 43.97 11.6784C43.9738 11.6472 43.9684 11.6155 43.9545 11.5873L43.8752 11.3508C43.8022 11.1502 43.7453 10.9441 43.7051 10.7344C43.7941 10.9285 43.8675 11.1295 43.9245 11.3353C43.9506 11.4187 43.9748 11.4972 43.999 11.5728C44.0161 11.6105 44.0192 11.6532 44.0077 11.693C44.0028 11.7036 43.9956 11.713 43.9865 11.7204C43.9775 11.7278 43.9669 11.733 43.9555 11.7356C43.9385 11.7379 43.9212 11.7379 43.9042 11.7356C43.8398 11.7416 43.7749 11.7397 43.7109 11.7298V11.7298Z" fill="#EB996E"/>
<path d="M43.3554 11.793C43.3757 11.793 43.3689 11.9229 43.4743 12.0198C43.5797 12.1167 43.718 12.1099 43.718 12.1284C43.718 12.1468 43.6861 12.1516 43.6281 12.1506C43.5524 12.1475 43.4803 12.118 43.4241 12.0673C43.3703 12.0166 43.3378 11.9473 43.3332 11.8734C43.3312 11.823 43.3467 11.792 43.3554 11.793Z" fill="#EB996E"/>
<path d="M43.3496 10.3489C43.3361 10.3799 43.2191 10.3586 43.0779 10.3683C42.9368 10.378 42.8236 10.41 42.8062 10.3799C42.7985 10.3664 42.8198 10.3363 42.8672 10.3073C42.9295 10.2715 42.9994 10.2509 43.0711 10.2472C43.1429 10.2422 43.2149 10.2545 43.2809 10.283C43.3312 10.3063 43.3554 10.3334 43.3496 10.3489Z" fill="#EC994B"/>
<path d="M44.4472 10.3965C44.4249 10.4227 44.3447 10.3897 44.2461 10.3839C44.1475 10.3781 44.0634 10.3926 44.046 10.3626C44.0382 10.349 44.0527 10.3228 44.0904 10.2986C44.1408 10.2704 44.1985 10.2579 44.256 10.2627C44.3135 10.2676 44.3683 10.2895 44.4133 10.3257C44.4472 10.3548 44.4549 10.3839 44.4472 10.3965Z" fill="#EC994B"/>
<path d="M42.0456 11.167C42.033 11.1602 41.5225 10.9819 41.5119 11.5121C41.5012 12.0423 42.0378 11.9444 42.0378 11.9327C42.0378 11.9211 42.0456 11.167 42.0456 11.167Z" fill="#FFBE9D"/>
<path d="M41.8783 11.7266C41.8783 11.7266 41.8696 11.7334 41.8531 11.7402C41.831 11.7486 41.8066 11.7486 41.7845 11.7402C41.7517 11.7171 41.7255 11.6858 41.7086 11.6494C41.6916 11.613 41.6844 11.5728 41.6878 11.5328C41.6876 11.4873 41.6972 11.4424 41.7159 11.401C41.7213 11.3844 41.7306 11.3694 41.743 11.3572C41.7555 11.3451 41.7707 11.3361 41.7874 11.3312C41.7979 11.3287 41.809 11.3299 41.8187 11.3347C41.8284 11.3394 41.8361 11.3475 41.8406 11.3574C41.8473 11.3729 41.8406 11.3835 41.8473 11.3845C41.8541 11.3855 41.8589 11.3758 41.8551 11.3535C41.8521 11.3403 41.845 11.3284 41.8348 11.3196C41.8201 11.3085 41.8018 11.3033 41.7835 11.305C41.762 11.3094 41.742 11.319 41.7251 11.333C41.7082 11.3471 41.6951 11.3651 41.6869 11.3855C41.663 11.4308 41.651 11.4815 41.6521 11.5328C41.6485 11.58 41.6589 11.6273 41.6819 11.6687C41.7049 11.71 41.7396 11.7437 41.7816 11.7654C41.7959 11.7695 41.8108 11.7705 41.8255 11.7683C41.8402 11.7661 41.8542 11.7609 41.8667 11.7528C41.8773 11.7412 41.8802 11.7276 41.8783 11.7266Z" fill="#EB996E"/>
<path d="M41.7529 11.1329C41.8033 11.1324 41.8529 11.1456 41.8964 11.171C41.94 11.1964 41.9759 11.2332 42.0004 11.2773C42.0304 11.3548 42.0342 11.4411 42.0642 11.5186C42.0758 11.5586 42.1003 11.5935 42.1339 11.6179C42.1676 11.6423 42.2083 11.6548 42.2498 11.6534C42.2777 11.6462 42.3033 11.6318 42.3238 11.6115C42.3443 11.5912 42.3592 11.5659 42.3668 11.538C42.381 11.4823 42.3846 11.4245 42.3774 11.3674C42.3581 11.1183 42.3194 10.8702 42.3223 10.6201C42.315 10.3687 42.3823 10.1208 42.5157 9.90774C42.5835 9.80254 42.6785 9.71766 42.7904 9.66205C42.9024 9.60643 43.0273 9.58215 43.1519 9.59176C43.3152 9.61309 43.4612 9.7071 43.6237 9.73909C43.7195 9.75621 43.818 9.75142 43.9117 9.72507C44.0055 9.69872 44.0921 9.6515 44.1651 9.58691C44.1844 9.57044 44.2695 9.52004 44.2695 9.52004C44.2703 9.46102 44.2538 9.40307 44.2221 9.35332C43.9137 9.03637 43.3346 8.922 42.9015 9.00827C42.6813 9.05035 42.473 9.14005 42.291 9.27112C42.109 9.4022 41.9577 9.57149 41.8476 9.7672C41.6427 10.1597 41.6688 10.7219 41.7509 11.1329" fill="#EB996E"/>
<path d="M44.0305 9.43522C43.7404 9.44589 43.1787 9.55444 42.9476 9.73473C42.9206 9.75605 42.8906 9.79094 42.909 9.82099C42.9273 9.85104 42.9544 9.84425 42.9805 9.84328C43.2488 9.85701 43.515 9.8976 43.7752 9.96444C43.9408 10.0231 44.116 10.0497 44.2915 10.043C44.3792 10.0381 44.4641 10.0106 44.538 9.96302C44.6119 9.91545 44.6722 9.84948 44.713 9.77156L44.7875 9.79967C44.7028 9.67922 44.5888 9.58249 44.4563 9.5187C44.3238 9.45491 44.1772 9.42617 44.0305 9.43522Z" fill="#EB996E"/>
<path d="M44.6363 9.79238C44.4786 9.64362 44.2764 9.55098 44.061 9.52874C43.392 9.46768 42.2937 9.66928 41.7117 10.8217C41.6483 10.6223 41.6087 10.416 41.5938 10.2072C41.5938 10.0492 41.6904 9.11002 42.6572 8.81924C42.6592 8.81924 44.1152 8.26967 44.6363 9.79238Z" fill="#5C4F90"/>
<g opacity="0.3">
<path d="M44.6363 9.79238C44.4686 9.6128 44.2375 9.50601 43.9924 9.49482C43.393 9.46574 42.2599 9.73519 41.7117 10.8217C41.6483 10.6223 41.6087 10.416 41.5938 10.2072C41.5938 10.0492 41.6904 9.11002 42.6572 8.81924C42.6592 8.81924 44.1152 8.26967 44.6363 9.79238Z" fill="#333333"/>
</g>
<path d="M41.8031 10.6576C42.0931 10.173 42.5282 9.83861 42.9971 9.54783C43.466 9.25705 44.2384 8.97306 44.7712 8.83349C44.9289 8.78249 45.0957 8.76596 45.2604 8.78502C45.3424 8.79576 45.4197 8.82946 45.4835 8.88227C45.5473 8.93507 45.595 9.00484 45.621 9.08356C45.6713 9.28516 45.3135 9.59339 45.1453 9.71454C44.9896 9.81852 44.8282 9.91366 44.6619 9.99951C44.6619 9.99951 44.6426 9.63894 44.047 9.56043C43.2359 9.45381 41.7779 10.678 41.8031 10.6576Z" fill="#5C4F90"/>
<path d="M42.9082 9.17199C43.0848 9.08866 43.2695 9.0237 43.4593 8.97814C43.6511 8.94844 43.8454 8.93772 44.0394 8.94615C43.9848 8.92626 43.9273 8.91577 43.8692 8.91514C43.7289 8.90389 43.5878 8.91171 43.4496 8.9384C43.312 8.96541 43.1786 9.01106 43.0532 9.0741C43 9.09878 42.951 9.13183 42.9082 9.17199V9.17199Z" fill="white"/>
<path d="M44.9876 35.1797L44.9934 35.2708C44.9934 35.2708 46.637 35.8204 46.6747 36.1121L43.4881 36.2342L43.4688 35.2136C43.7105 35.3134 43.9703 35.3619 44.2317 35.3561C44.4931 35.3503 44.7505 35.2902 44.9876 35.1797V35.1797Z" fill="#5C4F90"/>
<g opacity="0.6">
<path d="M43.4882 36.2343L43.4834 35.989L46.5366 35.9609C46.5366 35.9609 46.6816 36.0152 46.6719 36.1121L43.4882 36.2343Z" fill="white"/>
</g>
<path d="M45.0053 35.2761C45.0053 35.2906 44.929 35.3003 44.8555 35.3517C44.782 35.4031 44.7453 35.467 44.7298 35.4622C44.7143 35.4573 44.7298 35.3653 44.8265 35.309C44.9232 35.2528 45.0082 35.2625 45.0053 35.2761Z" fill="#FFBE3D"/>
<path d="M45.3478 35.3963C45.3526 35.4108 45.2869 35.4379 45.2376 35.5039C45.1883 35.5698 45.1777 35.6366 45.1622 35.6366C45.1467 35.6366 45.1313 35.5523 45.1941 35.4719C45.2569 35.3914 45.3468 35.3817 45.3478 35.3963Z" fill="#FFBE3D"/>
<path d="M45.5612 35.7785C45.5467 35.7785 45.5206 35.7078 45.5554 35.6244C45.5902 35.5411 45.6617 35.5062 45.6685 35.5178C45.6753 35.5294 45.6337 35.576 45.6057 35.6448C45.5776 35.7136 45.5766 35.7785 45.5612 35.7785Z" fill="#FFBE3D"/>
<path d="M45.2424 28.0448L44.7029 26.242L43.9846 23.9468L44.0242 22.7653L42.8215 21.9346C42.0355 21.9482 39.7451 21.8125 39.7451 21.8125C39.7451 21.8125 39.8041 23.0105 39.922 23.8731C39.946 24.0443 40.0092 24.2075 40.1067 24.35L41.1615 25.8921L42.9752 29.2845C42.9752 29.2845 43.0961 30.4961 43.1463 31.5429C43.2024 32.7157 43.391 34.8384 43.391 34.8384L45.2569 34.883L45.3739 30.184C45.4212 29.4784 45.4735 28.7136 45.2424 28.0448Z" fill="#FFBE3D"/>
<path d="M46.3984 27.9883C46.6131 28.1627 46.8055 30.5345 46.4516 30.362L46.8722 30.7604L47.9975 30.5665L48.1532 28.0745L46.3984 27.9883Z" fill="#FFBE9D"/>
<path d="M43.2175 20.8984C43.2175 20.8984 47.8794 22.1701 48.3628 23.1762C48.5576 23.5056 48.6486 23.8864 48.6239 24.2686C48.5958 24.947 48.211 29.8253 48.211 29.8253L46.4505 29.709L46.2813 27.9091L46.2523 25.1845L46.3751 24.8743C46.2403 24.9056 46.1001 24.9039 45.9661 24.8695C45.766 24.8104 42.7283 23.8886 42.7283 23.8886L41.542 22.0141L43.2175 20.8984Z" fill="#FFBE3D"/>
<path d="M48.0246 30.428V30.5249C48.0246 30.5249 49.6759 31.2645 49.6759 31.5834L46.3491 31.4438L46.44 30.3359C46.682 30.4644 46.9489 30.5392 47.2223 30.5551C47.4957 30.571 47.7694 30.5276 48.0246 30.428V30.428Z" fill="#5C4F90"/>
<g opacity="0.6">
<path d="M46.3521 31.4423L46.3733 31.1758L49.5551 31.4074C49.5551 31.4074 49.7001 31.4782 49.6788 31.5819L46.3521 31.4423Z" fill="white"/>
</g>
<path d="M48.0317 30.5377C48.0317 30.5542 47.9486 30.5581 47.8664 30.6065C47.7842 30.655 47.7388 30.7229 47.7243 30.7151C47.7098 30.7073 47.7378 30.6182 47.8384 30.5581C47.9389 30.498 48.0366 30.5222 48.0317 30.5377Z" fill="#FFBE3D"/>
<path d="M48.3751 30.6981C48.3751 30.7146 48.3074 30.7388 48.2485 30.8057C48.1895 30.8726 48.1721 30.9443 48.1518 30.9433C48.1315 30.9424 48.1295 30.8464 48.203 30.7679C48.2765 30.6894 48.3761 30.6826 48.3751 30.6981Z" fill="#FFBE3D"/>
<path d="M48.5563 31.1239C48.5418 31.1239 48.5225 31.0445 48.5679 30.9572C48.6134 30.87 48.6907 30.837 48.6975 30.8506C48.7042 30.8642 48.6549 30.9107 48.6182 30.9824C48.5815 31.0541 48.5728 31.1239 48.5563 31.1239Z" fill="#FFBE3D"/>
<path d="M47.1195 23.9688C47.0637 23.9946 47.0121 24.0289 46.9667 24.0705C46.8515 24.1644 46.748 24.2717 46.6583 24.3904C46.5686 24.51 46.4939 24.6402 46.436 24.7781C46.4081 24.8332 46.3892 24.8924 46.3799 24.9535C46.4685 24.7667 46.5726 24.5877 46.6912 24.4185C46.8209 24.2566 46.9642 24.1061 47.1195 23.9688V23.9688Z" fill="#5C4F90"/>
<path d="M46.7417 23.5977C46.6982 23.6509 46.6624 23.7099 46.6354 23.7731C46.488 24.0704 46.404 24.3952 46.3888 24.7268C46.3827 24.7951 46.3857 24.8639 46.3975 24.9314C46.409 24.8644 46.4158 24.7967 46.4178 24.7288C46.4329 24.5653 46.4607 24.4033 46.501 24.2442C46.5416 24.0861 46.5946 23.9315 46.6595 23.7818C46.6906 23.7221 46.718 23.6606 46.7417 23.5977Z" fill="#5C4F90"/>
<path d="M43.6188 22.9062C43.6314 22.9062 43.8422 23.4878 44.0887 24.2051C44.3352 24.9223 44.5247 25.5155 44.5112 25.5203C44.4977 25.5252 44.2879 24.9436 44.0413 24.2215C43.7948 23.4994 43.6053 22.9111 43.6188 22.9062Z" fill="#5C4F90"/>
<path d="M44.3291 14.3297L45.09 14.0234L47.0748 15.1042L46.2647 16.9632L44.5176 16.0938L44.3291 14.3297Z" fill="#5C4F90"/>
<path d="M45.0902 14.0226L43.8836 13.5651C43.8836 13.5651 43.6196 14.1244 43.0425 13.9528C42.4653 13.7813 41.8291 13.2656 41.8291 13.2656C41.8291 13.2656 40.7318 13.7018 40.3973 13.9005C40.0628 14.0992 39.882 19.2547 39.882 19.2547L39.7911 21.2494L39.7369 21.6255C39.7139 21.8055 39.7019 21.9868 39.7012 22.1683C41.746 22.6287 43.7676 22.1411 44.8514 21.5383C44.8514 21.5383 44.9944 21.4258 44.9326 21.169C44.8707 20.9121 44.7392 20.8675 44.7392 20.8675L44.7663 18.613L44.9674 16.3072L45.0902 14.0226Z" fill="#5C4F90"/>
<path d="M46.171 19.853L43.4562 18.7267L41.774 14.9922L40.2773 15.6222C40.2773 15.6222 41.8842 19.6718 42.5078 20.0081C43.1314 20.3444 45.7031 20.4995 45.7031 20.4995L46.171 19.853Z" fill="#FFBE9D"/>
<path d="M40.3942 13.8996C40.3942 13.8996 39.8286 14.1836 39.8296 15.2692C39.8296 16.2123 40.1071 17.7156 40.1071 17.7156L42.7716 16.7861L41.9479 14.867C41.7545 14.4095 41.3252 13.5682 40.3942 13.8996Z" fill="#5C4F90"/>
<path d="M40.415 17.6097C40.4294 17.6022 40.4442 17.5957 40.4595 17.5903L40.59 17.5399L41.0802 17.3616L42.7673 16.7636L42.7528 16.7946C42.6687 16.5406 42.5768 16.2692 42.4763 15.993C42.3177 15.5578 42.1524 15.1498 41.9832 14.7863C41.9085 14.6133 41.8175 14.4477 41.7115 14.292C41.622 14.1557 41.4974 14.0462 41.3509 13.975C41.1345 13.8766 40.8963 13.8362 40.6596 13.8577C40.5959 13.8651 40.5336 13.8821 40.475 13.9081C40.4559 13.9206 40.4358 13.9316 40.415 13.9411C40.415 13.9411 40.415 13.9362 40.4286 13.9295C40.4413 13.9179 40.4552 13.9079 40.4701 13.8994C40.5282 13.8681 40.5914 13.8475 40.6567 13.8383C40.898 13.8085 41.1428 13.8443 41.3654 13.9421C41.519 14.0143 41.6503 14.1268 41.7454 14.2677C41.8546 14.4245 41.9482 14.5917 42.0248 14.7669C42.1978 15.1304 42.3641 15.5423 42.5236 15.9756C42.6203 16.2528 42.717 16.5242 42.7982 16.7791L42.806 16.8023L42.7837 16.8101L41.0908 17.3916L40.5958 17.5564L40.4624 17.5991C40.4472 17.6047 40.4312 17.6083 40.415 17.6097Z" fill="#FFBE3D"/>
<path d="M44.6174 20.9492C44.576 20.9881 44.5318 21.0237 44.485 21.0558C44.4414 21.0888 44.3883 21.1285 44.3216 21.1692C44.2549 21.2099 44.1823 21.2613 44.0963 21.3069C44.0102 21.3524 43.9165 21.4038 43.8111 21.4542C43.7057 21.5046 43.5936 21.5511 43.4727 21.5986C43.2086 21.6949 42.9369 21.7692 42.6606 21.8206C42.3836 21.8667 42.1032 21.8894 41.8224 21.8884C41.6928 21.8884 41.5691 21.8826 41.455 21.8681C41.3486 21.86 41.2428 21.8465 41.1379 21.8274C41.0412 21.8138 40.9551 21.7915 40.8788 21.775C40.8024 21.7585 40.7386 21.7401 40.6854 21.7237C40.6304 21.71 40.5767 21.6915 40.5249 21.6684C40.5808 21.6764 40.6361 21.6883 40.6902 21.7043C40.7434 21.7178 40.8072 21.7343 40.8836 21.7469C40.96 21.7595 41.045 21.7808 41.1417 21.7915C41.2384 21.8022 41.3438 21.8206 41.4579 21.8264C41.572 21.8322 41.6928 21.839 41.8214 21.8419C42.0994 21.8406 42.3768 21.8166 42.6509 21.7702C42.9247 21.7203 43.194 21.6483 43.4563 21.555C43.5752 21.5075 43.6902 21.4658 43.7927 21.4164C43.8952 21.367 43.9919 21.3195 44.0828 21.2759C44.1736 21.2322 44.2433 21.1847 44.31 21.145C44.3675 21.1127 44.4233 21.0774 44.4772 21.0394C44.5215 21.0056 44.5684 20.9755 44.6174 20.9492Z" fill="#FFBE3D"/>
<path d="M44.6292 16.1992H43.8838V16.553H44.6292V16.1992Z" fill="white"/>
<path d="M45.0514 15.1016C45.0659 15.1016 45.0379 15.6482 44.9905 16.319C44.9431 16.9897 44.8938 17.5344 44.8793 17.5334C44.8648 17.5325 44.8929 16.9868 44.9402 16.316C44.9876 15.6453 45.035 15.1006 45.0514 15.1016Z" fill="#FFBE3D"/>
<path d="M38.6399 17.6094H31.5977V19.1515H38.6399V17.6094Z" fill="#FF715B"/>
<path d="M39.1142 19.168H31.1274V25.3431H39.1142V19.168Z" fill="#FF715B"/>
<path d="M37.1126 25.3013C37.1039 25.3013 37.0962 23.925 37.0962 22.2268C37.0962 20.5287 37.1039 19.1523 37.1126 19.1523C37.1213 19.1523 37.1281 20.5287 37.1281 22.2268C37.1281 23.925 37.1213 25.3013 37.1126 25.3013Z" fill="#FFBE3D"/>
<path d="M38.836 23.9414H37.8247V24.9553H38.836V23.9414Z" fill="#F5F5F5"/>
<path opacity="0.3" d="M34.4659 19.168H33.5591V20.4862H34.4659V19.168Z" fill="white"/>
<path opacity="0.3" d="M34.4703 24.0273H33.5635V25.3455H34.4703V24.0273Z" fill="white"/>
<path opacity="0.3" d="M39.1146 19.1523H37.1133V25.3614H39.1146V19.1523Z" fill="#333333"/>
<path d="M39.0868 19.1697C39.0868 19.1843 37.3079 19.1949 35.1142 19.1949C32.9205 19.1949 31.1406 19.1843 31.1406 19.1697C31.1406 19.1552 32.9196 19.1445 35.1142 19.1445C37.3089 19.1445 39.0868 19.1562 39.0868 19.1697Z" fill="#FFBE3D"/>
<path opacity="0.3" d="M38.6393 17.6094H36.668V19.1408H38.6393V17.6094Z" fill="#333333"/>
<path d="M36.6522 19.1313C36.6273 18.8837 36.6189 18.6347 36.627 18.386C36.6189 18.1372 36.6273 17.8882 36.6522 17.6406C36.6776 17.8882 36.686 18.1372 36.6773 18.386C36.686 18.6347 36.6776 18.8838 36.6522 19.1313V19.1313Z" fill="#FFBE3D"/>
<path d="M34.657 17.6094H33.666V18.0766H34.657V17.6094Z" fill="white"/>
<path d="M35.0533 17.6394C35.052 17.632 35.052 17.6245 35.0533 17.6171L35.061 17.5502C35.0678 17.493 35.0803 17.4077 35.1035 17.2982C35.1659 16.9885 35.2842 16.6929 35.4526 16.4259C35.5103 16.3378 35.575 16.2545 35.6459 16.1768C35.718 16.0876 35.8042 16.0109 35.9012 15.95C35.9561 15.9169 36.02 15.902 36.0839 15.9073C36.1176 15.9131 36.1492 15.9272 36.1761 15.9483C36.2029 15.9695 36.2241 15.997 36.2376 16.0285C36.2798 16.1538 36.2828 16.2891 36.2463 16.4162C36.175 16.6872 36.0277 16.9321 35.8219 17.1218C35.6023 17.3198 35.361 17.4922 35.1026 17.6355L35.0668 17.6568L35.0523 17.6655L35.0388 17.6559C34.7999 17.4858 34.5737 17.2986 34.362 17.0956C34.1635 16.9054 33.9999 16.6816 33.8786 16.4346C33.8478 16.3761 33.8247 16.3139 33.81 16.2495C33.7942 16.1848 33.8 16.1167 33.8264 16.0556C33.8395 16.0243 33.8599 15.9966 33.886 15.975C33.9122 15.9534 33.9431 15.9385 33.9763 15.9315C34.0404 15.9249 34.1047 15.9422 34.157 15.98C34.2046 16.0136 34.248 16.0527 34.2866 16.0963C34.3253 16.137 34.361 16.1787 34.3958 16.2194C34.4621 16.2984 34.524 16.3809 34.5815 16.4666C34.757 16.724 34.8917 17.0072 34.9808 17.306C35.0042 17.3869 35.0232 17.4691 35.0378 17.5521L35.0475 17.6171C35.0479 17.6245 35.0479 17.632 35.0475 17.6394C35.0475 17.6394 35.0475 17.6326 35.0407 17.6181L35.0262 17.5541C35.0136 17.4979 34.9933 17.4155 34.9605 17.3118C34.8661 17.0189 34.7296 16.7413 34.5554 16.4879C34.4978 16.4039 34.4358 16.323 34.3697 16.2456C34.3349 16.2049 34.2992 16.1642 34.2605 16.1254C34.2237 16.0841 34.1822 16.0474 34.1367 16.0159C34.0934 15.9844 34.0401 15.9699 33.9869 15.9752C33.961 15.9805 33.9367 15.9921 33.9163 16.009C33.8959 16.0259 33.88 16.0476 33.8699 16.0721C33.8206 16.1768 33.8699 16.3037 33.9231 16.4152C34.0431 16.6595 34.2047 16.8809 34.4007 17.0695C34.6103 17.2703 34.8342 17.4556 35.0707 17.6239H35.0426L35.0784 17.6025C35.3335 17.4609 35.5719 17.2909 35.789 17.0956C35.9888 16.9138 36.1324 16.6783 36.2028 16.4171C36.2392 16.2994 36.2392 16.1734 36.2028 16.0556C36.1921 16.0304 36.1753 16.0083 36.1538 15.9914C36.1323 15.9744 36.107 15.9632 36.08 15.9587C36.0256 15.9541 35.9711 15.967 35.9244 15.9955C35.831 16.054 35.7474 16.1269 35.6769 16.2117C35.6063 16.2877 35.5417 16.369 35.4835 16.4549C35.3144 16.7166 35.1923 17.0059 35.1229 17.3098C35.0977 17.4174 35.0823 17.5037 35.0716 17.5589L35.06 17.6239L35.0533 17.6394Z" fill="#FFBE3D"/>
<path d="M39.1381 21.9002C39.1381 21.9138 37.3476 21.9254 35.1403 21.9254C32.9331 21.9254 31.1426 21.9138 31.1426 21.9002C31.1426 21.8866 32.9321 21.875 35.1403 21.875C37.3485 21.875 39.1381 21.8857 39.1381 21.9002Z" fill="#FFBE3D"/>
<path d="M35.0681 25.4435C35.0546 25.4435 35.043 23.6775 35.043 21.4996C35.043 19.3216 35.0546 17.5547 35.0681 17.5547C35.0816 17.5547 35.0932 19.3207 35.0932 21.4996C35.0932 23.6785 35.0826 25.4435 35.0681 25.4435Z" fill="#FFBE3D"/>
</g>
<defs>
<clipPath id="clip0_160_747">
<rect width="65" height="45" fill="white"/>
</clipPath>
</defs>
</svg>
