<svg width="26" height="26" viewBox="0 0 26 26" fill="none" xmlns="http://www.w3.org/2000/svg">
<path d="M25.4694 12.987C25.4694 5.8175 19.7642 0 12.7347 0C5.70514 0 0 5.8175 0 12.987C0 16.9358 1.75739 20.4945 4.50808 22.8832C4.53355 22.9092 4.55902 22.9093 4.55902 22.9353C4.78825 23.1173 5.01747 23.2992 5.27216 23.4812C5.39951 23.5592 5.50139 23.6616 5.62873 23.7656C7.73325 25.2222 10.2175 26.0006 12.7602 26C15.3028 26.0006 17.7871 25.2222 19.8916 23.7656C20.0189 23.6876 20.1208 23.5852 20.2482 23.5056C20.4774 23.3253 20.7321 23.1432 20.9613 22.9613C20.9868 22.9353 21.0122 22.9352 21.0122 22.9092C23.712 20.4929 25.4694 16.9358 25.4694 12.987ZM12.7347 24.3636C10.3406 24.3636 8.1502 23.5836 6.34188 22.2852C6.36735 22.0772 6.41829 21.8709 6.46922 21.6629C6.62099 21.0992 6.84357 20.5579 7.13143 20.0525C7.41159 19.5585 7.74269 19.1165 8.1502 18.7265C8.53224 18.3365 8.99069 17.9741 9.44914 17.6881C9.93306 17.4021 10.4424 17.1941 11.0028 17.0381C11.5675 16.8827 12.1499 16.8046 12.7347 16.8057C14.4708 16.7932 16.1432 17.473 17.3956 18.7005C17.9814 19.2985 18.4398 20.0005 18.7709 20.8049C18.9492 21.2729 19.0766 21.7669 19.153 22.2852C17.2733 23.6343 15.0324 24.3599 12.7347 24.3636ZM8.83788 12.3386C8.61346 11.8141 8.50061 11.247 8.50677 10.6746C8.50677 10.1042 8.60865 9.53225 8.83788 9.01225C9.0671 8.49225 9.37273 8.02588 9.75478 7.63587C10.1368 7.24587 10.5953 6.9355 11.1047 6.7015C11.614 6.4675 12.1744 6.3635 12.7347 6.3635C13.3205 6.3635 13.8553 6.4675 14.3647 6.7015C14.8741 6.9355 15.3326 7.2475 15.7146 7.63587C16.0967 8.02588 16.4023 8.49387 16.6315 9.01225C16.8607 9.53225 16.9626 10.1042 16.9626 10.6746C16.9626 11.2726 16.8607 11.8186 16.6315 12.337C16.4103 12.8493 16.0996 13.3162 15.7146 13.715C15.3239 14.1074 14.8665 14.424 14.3647 14.6494C13.3123 15.0909 12.1317 15.0909 11.0792 14.6494C10.5775 14.424 10.1201 14.1074 9.72931 13.715C9.34379 13.3221 9.04051 12.8549 8.83788 12.3386ZM20.6557 20.9609C20.6557 20.9089 20.6302 20.8829 20.6302 20.8309C20.3797 20.0174 20.0105 19.2472 19.535 18.5461C19.0591 17.8399 18.4742 17.217 17.8031 16.7017C17.2906 16.3081 16.735 15.9766 16.1476 15.7137C16.4148 15.5338 16.6624 15.3251 16.8862 15.0914C17.2659 14.7087 17.5994 14.281 17.8795 13.8174C18.4436 12.8713 18.7349 11.782 18.72 10.6746C18.7279 9.85484 18.5719 9.04202 18.2616 8.28588C17.9552 7.55729 17.5141 6.89578 16.9626 6.3375C16.4119 5.78505 15.7638 5.34396 15.0524 5.0375C14.3105 4.72126 13.5132 4.56258 12.7092 4.57113C11.9051 4.5631 11.1079 4.72233 10.366 5.03912C9.64853 5.34493 8.99883 5.79537 8.45584 6.3635C7.91468 6.92508 7.48258 7.58618 7.18237 8.31187C6.87204 9.06802 6.71604 9.88084 6.72392 10.7006C6.72392 11.2726 6.80033 11.8186 6.95314 12.337C7.10596 12.883 7.30971 13.377 7.58988 13.8434C7.84457 14.3114 8.20114 14.7274 8.58318 15.1174C8.81241 15.3514 9.0671 15.5577 9.34727 15.7397C8.75802 16.0096 8.20229 16.35 7.69175 16.7537C7.02955 17.2738 6.44375 17.8961 5.95984 18.5721C5.47951 19.2703 5.10992 20.0413 4.86465 20.8569C4.83918 20.9089 4.83918 20.9609 4.83918 20.9869C2.8271 18.9085 1.5791 16.1038 1.5791 12.987C1.5791 6.7275 6.59657 1.61038 12.7347 1.61038C18.8728 1.61038 23.8903 6.7275 23.8903 12.987C23.887 15.9769 22.724 18.8439 20.6557 20.9609Z" fill="#5C4F90"/>
</svg>
