<svg width="15" height="15" viewBox="0 0 15 15" fill="none" xmlns="http://www.w3.org/2000/svg">
<path fill-rule="evenodd" clip-rule="evenodd" d="M7.50853 9.52895L12.56 14.5814C12.828 14.8494 13.1916 15 13.5707 15C13.9498 15 14.3133 14.8494 14.5813 14.5814C14.8494 14.3133 15 13.9498 15 13.5707C15 13.1916 14.8494 12.8281 14.5813 12.56L9.52798 7.50855L14.5804 2.45709C14.7131 2.32436 14.8183 2.16681 14.89 1.99342C14.9618 1.82003 14.9987 1.63421 14.9987 1.44655C14.9986 1.2589 14.9616 1.07309 14.8898 0.899732C14.8179 0.726378 14.7126 0.568874 14.5799 0.436213C14.4472 0.303552 14.2896 0.198332 14.1163 0.126561C13.9429 0.0547888 13.757 0.0178711 13.5694 0.0179153C13.3817 0.0179595 13.1959 0.0549646 13.0226 0.126818C12.8492 0.198672 12.6917 0.303966 12.559 0.43669L7.50853 5.48815L2.45707 0.43669C2.32533 0.300159 2.16771 0.191233 1.99342 0.116267C1.81913 0.0413017 1.63166 0.00179739 1.44194 5.99201e-05C1.25222 -0.00167755 1.06405 0.0343864 0.888415 0.106147C0.712782 0.177909 0.553199 0.28393 0.418977 0.418025C0.284756 0.552119 0.178584 0.711603 0.106658 0.887169C0.034731 1.06273 -0.00151035 1.25087 4.82159e-05 1.44059C0.00160679 1.63031 0.0409339 1.81782 0.115735 1.99218C0.190537 2.16654 0.299314 2.32426 0.43572 2.45613L5.48909 7.50855L0.436673 12.56C0.168626 12.8281 0.018038 13.1916 0.018038 13.5707C0.018038 13.9498 0.168626 14.3133 0.436673 14.5814C0.704721 14.8494 1.06827 15 1.44735 15C1.82642 15 2.18997 14.8494 2.45802 14.5814L7.50853 9.52799V9.52895Z" fill="white"/>
</svg>
