<svg width="29" height="26" viewBox="0 0 29 26" fill="none" xmlns="http://www.w3.org/2000/svg">
<path d="M14.4695 26L12.4395 24.158C10.0828 22.0091 8.13448 20.1553 6.59448 18.5967C5.05448 17.0381 3.82948 15.6387 2.91948 14.3985C2.00948 13.1592 1.37388 12.02 1.01268 10.9809C0.651482 9.94187 0.470416 8.8792 0.469482 7.79291C0.469482 5.57311 1.20448 3.71935 2.67448 2.23161C4.14448 0.743869 5.97615 0 8.16948 0C9.38282 0 10.5378 0.259764 11.6345 0.779291C12.7311 1.29882 13.6761 2.03088 14.4695 2.97548C15.2628 2.03088 16.2078 1.29882 17.3045 0.779291C18.4011 0.259764 19.5561 0 20.7695 0C22.9628 0 24.7945 0.743869 26.2645 2.23161C27.7345 3.71935 28.4695 5.57311 28.4695 7.79291C28.4695 8.8792 28.2884 9.94187 27.9263 10.9809C27.5641 12.02 26.9285 13.1592 26.0195 14.3985C25.1095 15.6387 23.8845 17.0381 22.3445 18.5967C20.8045 20.1553 18.8561 22.0091 16.4995 24.158L14.4695 26ZM14.4695 22.1744C16.7095 20.1435 18.5528 18.4017 19.9995 16.9489C21.4461 15.4961 22.5895 14.2332 23.4295 13.1601C24.2695 12.0852 24.8528 11.1283 25.1795 10.2895C25.5061 9.45068 25.6695 8.61849 25.6695 7.79291C25.6695 6.37602 25.2028 5.19528 24.2695 4.25068C23.3361 3.30609 22.1695 2.83379 20.7695 2.83379C19.6728 2.83379 18.6578 3.14645 17.7245 3.77177C16.7911 4.39709 16.1495 5.19433 15.7995 6.16349H13.1395C12.7895 5.19528 12.1478 4.39804 11.2145 3.77177C10.2811 3.1455 9.26615 2.83284 8.16948 2.83379C6.76948 2.83379 5.60282 3.30609 4.66948 4.25068C3.73615 5.19528 3.26948 6.37602 3.26948 7.79291C3.26948 8.61944 3.43282 9.4521 3.75948 10.2909C4.08615 11.1297 4.66948 12.0861 5.50948 13.1601C6.34948 14.2341 7.49282 15.4975 8.93948 16.9503C10.3861 18.4031 12.2295 20.1444 14.4695 22.1744Z" fill="#5C4F90"/>
</svg>
