<svg width="14" height="17" viewBox="0 0 14 17" fill="none" xmlns="http://www.w3.org/2000/svg">
<path d="M7 0C3.15 0 0 3.06 0 6.8C0 11.39 6.125 16.575 6.3875 16.83C6.5625 16.915 6.825 17 7 17C7.175 17 7.4375 16.915 7.6125 16.83C7.875 16.575 14 11.39 14 6.8C14 3.06 10.85 0 7 0ZM7 15.045C5.1625 13.345 1.75 9.69 1.75 6.8C1.75 3.995 4.1125 1.7 7 1.7C9.8875 1.7 12.25 3.995 12.25 6.8C12.25 9.605 8.8375 13.345 7 15.045ZM7 3.4C5.075 3.4 3.5 4.93 3.5 6.8C3.5 8.67 5.075 10.2 7 10.2C8.925 10.2 10.5 8.67 10.5 6.8C10.5 4.93 8.925 3.4 7 3.4ZM7 8.5C6.0375 8.5 5.25 7.735 5.25 6.8C5.25 5.865 6.0375 5.1 7 5.1C7.9625 5.1 8.75 5.865 8.75 6.8C8.75 7.735 7.9625 8.5 7 8.5Z" fill="#5C4F90"/>
</svg>
