<svg width="27" height="28" viewBox="0 0 27 28" fill="none" xmlns="http://www.w3.org/2000/svg">
<path d="M19.5205 21.0924H6.39975L6.04393 18.9453H19.5798C20.0065 18.9466 20.4203 18.776 20.7503 18.4626C21.0803 18.1492 21.3059 17.7126 21.3885 17.2275L22.6339 10.3566C22.6912 10.0441 22.6877 9.72069 22.6234 9.40998C22.5592 9.09927 22.436 8.80908 22.2627 8.56057C22.0894 8.31205 21.8704 8.11148 21.6217 7.97347C21.373 7.83546 21.1009 7.76349 20.8251 7.76281H4.1759L3.84973 5.63281H0.469482V7.77998H2.32269L4.54654 21.247C3.90065 21.4239 3.32464 21.8467 2.9107 22.4477C2.49676 23.0488 2.26883 23.7934 2.26339 24.5623C2.29811 25.5085 2.65415 26.4006 3.25397 27.0441C3.85378 27.6875 4.64876 28.0303 5.46573 27.9978C6.27619 28.021 7.06195 27.6736 7.65296 27.0306C8.24396 26.3876 8.59267 25.5009 8.6236 24.5623C8.62086 24.1075 8.54023 23.658 8.38639 23.2396H16.5257C16.3718 23.658 16.2912 24.1075 16.2885 24.5623C16.3232 25.5085 16.6792 26.4006 17.279 27.0441C17.8789 27.6875 18.6738 28.0303 19.4908 27.9978C20.2772 27.9978 21.0314 27.6358 21.5875 26.9915C22.1435 26.3472 22.4559 25.4734 22.4559 24.5623C22.4559 23.6511 22.1435 22.7773 21.5875 22.133C21.0314 21.4888 20.2772 21.1268 19.4908 21.1268L19.5205 21.0924ZM20.8251 9.96151L19.5798 16.8325H5.65846L4.56137 9.96151H20.8251ZM5.46573 25.8849C5.14601 25.8953 4.83485 25.7644 4.59534 25.5188C4.35582 25.2732 4.20588 24.9312 4.1759 24.5623C4.20609 24.1808 4.36444 23.8284 4.61681 23.581C4.86918 23.3336 5.19536 23.211 5.52503 23.2396C5.85314 23.2112 6.17763 23.3343 6.42763 23.5821C6.67764 23.8299 6.83284 24.1823 6.85934 24.5623C6.84657 24.7568 6.79987 24.9463 6.72208 25.1194C6.64428 25.2924 6.53701 25.4454 6.40674 25.569C6.27647 25.6926 6.12592 25.7844 5.96418 25.8387C5.80243 25.893 5.63287 25.9087 5.46573 25.8849ZM19.5205 25.8849C19.1908 25.9136 18.8646 25.791 18.6122 25.5435C18.3599 25.2961 18.2015 24.9437 18.1713 24.5623C18.2287 24.1985 18.3944 23.8695 18.6396 23.6327C18.8848 23.3959 19.1939 23.2662 19.5131 23.2662C19.8322 23.2662 20.1413 23.3959 20.3865 23.6327C20.6317 23.8695 20.7974 24.1985 20.8548 24.5623C20.8246 24.9405 20.6683 25.2903 20.4192 25.5372C20.1701 25.7842 19.8477 25.9089 19.5205 25.8849Z" fill="#5C4F90"/>
<circle cx="19.4695" cy="7" r="7" fill="#FCCD59"/>
<path d="M19.4845 11.1987C18.7003 11.1987 18.0486 10.9785 17.5294 10.5381C17.0102 10.0941 16.7255 9.50505 16.6754 8.771H17.9269C17.9806 9.17562 18.1489 9.4943 18.4317 9.72705C18.7146 9.9598 19.0691 10.0762 19.4952 10.0762C19.9715 10.0762 20.3564 9.92757 20.65 9.63037C20.9472 9.32959 21.0958 8.93929 21.0958 8.45947C21.0958 7.97965 20.9472 7.58757 20.65 7.2832C20.3564 6.97884 19.975 6.82666 19.506 6.82666C19.1765 6.82666 18.8793 6.89827 18.6144 7.0415C18.3494 7.18115 18.1381 7.38346 17.9806 7.64844H16.7936L17.2071 3.11523H21.9283V4.24854H18.276L18.0665 6.54736H18.0074C18.1793 6.30029 18.4192 6.10693 18.7271 5.96729C19.0351 5.82406 19.3824 5.75244 19.7691 5.75244C20.2704 5.75244 20.718 5.86882 21.1119 6.10156C21.5058 6.33431 21.8155 6.65299 22.0411 7.05762C22.2667 7.45866 22.3795 7.9152 22.3795 8.42725C22.3795 8.97152 22.2542 9.45133 22.0035 9.8667C21.7564 10.2821 21.4145 10.6079 20.9776 10.8442C20.5444 11.0806 20.0466 11.1987 19.4845 11.1987Z" fill="#5C4F90"/>
</svg>
